<?xml version="1.0" encoding="utf-8"?>
<!-- Generator: Adobe Illustrator 21.1.0, SVG Export Plug-In . SVG Version: 6.00 Build 0)  -->
<svg version="1.1" id="Calque_1" xmlns="http://www.w3.org/2000/svg" xmlns:xlink="http://www.w3.org/1999/xlink" x="0px" y="0px"
	 viewBox="0 0 623.6 737" style="enable-background:new 0 0 623.6 737;" xml:space="preserve">
<style type="text/css">
	.st0{fill:none;stroke:#000000;stroke-width:4;stroke-linecap:round;stroke-linejoin:round;stroke-miterlimit:10;}
</style>
<g>
	<path class="st0" d="M283,72.4c2.1-0.3,17.2,0.5,19.2,0c4.9-1.2,9.7,0.7,14.7,0.4c3.2-0.2,4.6,1.8,4.3,5.1
		c-0.5,5.5-0.8,11,0.4,16.3c0.7,3.2,2.1,6.4,3.5,9.5c1.8,4,3.6,8.1,5,12.3c0.5,1.5,0.6,2.8,0.3,4.3c-0.3,1.9,0.1,3.1,2.5,3.5
		c7.2,1.2,14.4,2.5,21.5,4.3c6.7,1.7,13.5,2.8,20.2,4.7c6.8,1.9,13.5,4.4,20.4,5.8c3,0.6,5.5,2.1,8,3.6c5.3,3,11.1,4.3,16.7,6.3
		c5.4,1.9,10.3,4.9,15.3,7.6c5.4,2.9,10.9,5.5,16.3,8.5c6.4,3.6,13.4,5.8,20.1,8.6c3.4,1.4,6.5,3.3,10,4.3c9.9,2.8,19.7,6,30.2,6.5
		c5.7,0.3,10.4-1.2,14.9-4c4.7-2.8,9.6-4.7,15.2-3.4c7.8-0.1,2.9,16.1,4.1,16.4"/>
	<path class="st0" d="M511.1,207.7c2.5,3.4,4.8,27.8,5.9,31.6c2.1,7.4,5.3,14.2,7.9,21.4c1.9,5.2,2.9,10.7,4.8,16
		c1.4,3.8,3.1,7.6,4.3,11.5c1.4,4.5,2.5,9.1,4.1,13.5c2.2,5.8,4.3,11.7,6.5,17.6c2.9,7.7,5.7,15.5,7.9,23.5c1.3,4.7,3.2,9.2,5,13.7
		c2.8,7,4.2,14.3,6.7,21.3c2.1,5.9,3.9,11.9,6,17.8c2,5.5,4.4,10.9,5.5,16.6c0.8,4,2.8,7.6,3.7,11.5c1.5,6.6,4.5,12.7,6.2,19.2
		c1.4,5.7,3.9,11.1,5.6,16.7c1.9,6.4,3.4,13,5.1,19.5c0.2,0.9,0.2,1.7-0.2,2.6"/>
	<path class="st0" d="M501.9,223.5c-4.7,10.6-63.2,147.3-67.7,158c-4.8,11.3-8.1,23.2-12.1,34.7c-2.2,6.3-4.6,12.6-6.6,19
		c-2,6.3-3.6,12.7-5.1,19.2c-0.9,3.7-1.2,7.6-2.6,11.3c-0.7,1.7-1,3.7-0.7,5.7c0.3,2.2-1.2,4.3-2,6.3c-0.6,1.4-0.3,2.5,0.5,3.2
		c1.7,1.6,2.6,3.9,4.3,5.5c2.9,2.9,3.5,7,5.8,10.2c2.5,3.4,4.9,7,6.7,10.8c4.1,8.4,12.4,10.5,19.8,14.1c4,2,8.2,3.3,12.4,4.4
		c6.2,1.6,12.3,3.3,18.6,4.6c5.3,1.1,10.7,1.8,16.1,2.8c8.2,1.4,16.4,2.3,24.7,2.7c5.6,0.2,11.1,0,16.7,0.5c3.1,0.3,6.3-0.1,9.5,0.1
		c2.9,0.2,5.8-0.1,8.6-0.4c6.3-0.8,12.7-0.3,19-0.7c4.2-0.2,8.4-0.4,12.4-2.1c1.3-0.5,2.2-1.3,1.6-2.6c-0.7-1.5,0-2.7,0.7-3.7
		c3.3-5.2,5.7-10.9,9.7-15.6c0.7-0.9,1.5-1.9,0.9-3.1"/>
	<path class="st0" d="M506.8,214.6c-2.7,2.4-3.6,5.7-4.9,8.9"/>
	<path class="st0" d="M172.2,604.7c-6.1,3.2-9.1,8.9-11.4,15c-1.6,4-2.3,8.3-3.7,12.3c-1.2,3.4,0.9,7.4,4.5,10
		c7.1,5.2,14.8,9.4,22.3,14c5.2,3.1,10.6,5.4,16.3,7.1c4.7,1.4,9.6,2.1,14.3,3.7c9.2,3.1,18.8,4.6,28.2,6.8c4.8,1.2,9.8,1,14.6,2
		c6.1,1.2,12.4,2.1,18.4,3.9c3.6,1.1,7.4,1.7,11.2,2.3c6.6,1.1,13.2,0.9,19.8,1c6.9,0.1,13.9-0.1,20.7-1.9c3.3-0.9,7-0.7,10.6-0.9
		c4.6-0.2,9-2.3,13.5-3.2c6.7-1.4,13.6-2.1,20.4-2.9c1.1-0.1,2.2-0.4,3.1-0.7c2.7-1.1,5.6-1.8,8.4-2.8c5.5-1.9,10.1-5.1,14.3-8.9
		c2.2-1.9,4.3-3.9,6.9-5.2c1.8-0.9,2.8-2.5,3.8-4.2c2.1-3.7,5-6.8,7.8-10c3.6-4.2,5.3-9.4,7.6-14.2c0.7-1.5-0.1-3.4-0.7-4.5
		c-2.1-4.1-2.5-8.8-4.1-13c-2.1-5.4-6-8.8-11.5-10.3"/>
	<path class="st0" d="M205.2,583.1c-0.1,6.5,2.3,12.1,6.4,16.9c1.5,1.7,2.1,3.9,3.7,5.5c2.8,2.7,6.4,4,9.8,5.8
		c7.9,4.2,16,8.1,24.1,11.8c3.5,1.6,7.4,1.9,10.9,3.7c3.4,1.7,7.1,2.5,10.9,3c1.2,0.2,2.7,0.6,3.8,1.6c1.6,1.4,3.3,1.6,5.5,1
		c2.9-0.9,31.6,1.7,34.5,2.1"/>
	<path class="st0" d="M332.4,172.5c3.5,1,67.8,12.1,71.2,13.5c5.7,2.4,11.5,4.3,17.6,5.7c4.4,1,8.5,2.8,12.7,4.3
		c5.5,1.9,11,3.8,16.7,5.1c3.8,0.9,7.4,2.4,11.2,3.4c4.3,1.1,8.7,1.7,13,3c7.3,2.1,14.8,3.4,22.4,4.3c3,0.3,6.5-0.7,9.2,1.5"/>
	<path class="st0" d="M173,489.2c-0.4-1.8-1.9-2.9-3.2-3c-4-0.3-7.4-2.3-11.2-3.3c-4.4-1.2-8.9-2.1-13.5-1.9
		c-2.7,0.1-5.2-0.8-7.7-1.3c-6.2-1.4-12.4-1.8-18.7-2.1c-6.8-0.4-13.6-0.8-20.4-1.7c-2.4-0.3-4.8-0.1-7.2-0.1c-7.9,0-15.9,0-23.8,0
		c-6.3,0-12.7,0.3-18.9,0.8c-4.1,0.3-8.3,1.3-12.1,3.2c-2,1-4.5,0.9-5.4,3.5"/>
	<path class="st0" d="M172.6,603.5c-0.4,0.8,0,1.4,0.4,2c3.6,5.9,8.2,10.7,14.4,14.1c3.7,2,7,4.6,10.7,6.5c3.3,1.7,5.9,4.3,9,5.9
		c7.2,3.7,14,8.2,22,10.3c3.5,0.9,6.7,2.6,10.1,4c4.8,2,9.9,2.6,14.9,3.4c6.6,1,13.2,1.7,19.8,2.6c10.6,1.5,21.1,3.4,31.9,3.1
		c4.1-0.1,16.6-0.2,20.7-0.6"/>
	<path class="st0" d="M181.1,454.2c-1.5,0-2.7-0.5-4-1.1c-7.8-3.6-16-5.9-24.4-7.8c-7.8-1.7-15.5-3.7-23.5-4.7
		c-7.5-0.9-14.9-1-22.4-0.6c-8.4,0.5-16.8,1.6-25.3,1.6c-4.7,0-9.4,0.8-14.1,1.8c-5,1.1-10.1,1.7-14.9,3.3
		c-7.3,2.5-14.8,4.4-21.7,8.4c-4.6,2.7-9.9,4.4-14.5,7.4c-1.2,0.8-2.6,0.4-3.8,1.3c-2.8,2.2-4.8,6.2-2.5,10.7"/>
	<path class="st0" d="M412.6,489.8c1,0.2,2-0.4,2.9,0.6c4,3.9,9.3,5.5,14.1,7.9c3.6,1.8,7.2,3.7,11.1,5.1c5.7,2,11.7,3.2,17.3,5.6
		c6.8,2.9,14,4.4,21.2,5.8c8.7,1.8,17.6,2.6,26.4,3.5c11.1,1.1,22.2,1,33.3,0.5c6.9-0.3,13.8-0.7,20.7-1.8
		c8.7-1.3,17.3-2.9,25.3-6.7c2.6-1.2,5.6-1.6,8.2-2.6c3.3-1.2,5.5-4.4,6.8-7.8c0.2-0.6,0.5-1.1,0.7-1.7"/>
	<path class="st0" d="M147.1,367.2c4.6,12.4,10.4,30.5,15.8,42.5c3.5,7.9,7.6,15.6,10.9,23.5c2.5,5.9,5.7,11.5,7.1,17.8
		c0.9,4.1,3,6.6,6.4,8.7c2.7,1.7,4.1,4.6,5.5,7.4c1.5,3.1-0.2,5.7-1.5,8.3c-1.3,2.6-2.5,5.2-4.3,7.5c-0.6,0.8-0.5,1.5-0.6,2.3
		c-0.6,4-3,7.3-4.6,10.9c-1,2.4-3.1,4.4-4.5,6.7c-1.8,2.8-4.5,3.5-7.5,4c-4.6,0.7-9.1,1.6-13.5,3.1c-7,2.4-14.1,3.7-21.5,4.5
		c-9.2,1-18.4,1.1-27.6,2.5c-6.1,1-12.4,0.4-18.6,0.1c-7.8-0.4-15.7-1.1-23.3-3.4c-10.6-3.2-21.5-5.7-31.6-10.4
		c-2.8-1.3-5.9-2.2-8.7-2.8c-4.2-1-6.3-3.9-7.9-6.9c-3.1-5.9-5.4-12.1-8.1-18.2c1.6-1.3,3-0.6,4.2,0.1c5,2.8,9.8,5.9,15.3,7.6
		c2.9,0.9,5.7,2.2,8.6,3.3c0.9,0.3,1.6,0.9,2.6,0.3"/>
	<path class="st0" d="M502.3,462.2c-3.6,1.6-7.4,0.6-11,0.2c-3.2-0.3-6.3-1-9.5-1c-5.5,0.1-10.9-0.5-16.4-0.8
		c-4.1-0.2-8.3-0.9-12.4-0.9c-10.2-0.2-20,2.2-29.6,5.4c-4,1.4-8,3-11.5,5.4c-1.3,0.9-2.8,1.2-4.3,1.2"/>
	<path class="st0" d="M405.7,601c-1.9,3-4.5,5.5-6.1,8.9c-1.9,4-5.3,7.2-8.3,10.3c-7.9,8.3-16.2,16.3-25.5,23
		c-4.1,3-8.5,5.6-13.4,7.4c-3.4,1.2-7,1.6-10.4,2.6c-5,1.5-10.3,1.7-15.5,1.8"/>
	<path class="st0" d="M98.3,215.5c1.8,0.8,2.6,2.2,3.2,4c2.8,9,6,17.8,8.8,26.8c2.3,7.3,3.3,14.9,5,22.4c2,8.2,4.4,16.2,7.3,24.2
		c1.5,4.2,2.6,8.8,3.9,13.1c2.1,7.2,4.7,14.2,7.2,21.2c1.5,4.1,2.5,8.2,3.7,12.4c1.8,6.4,3.9,12.6,6.6,18.6c1.3,2.9,1.5,6.1,3,9"/>
	<path class="st0" d="M316.1,566.8c5.1-1.2,10,0.6,14.9,1.2c6.9,0.8,13.4,3.2,20.1,4.8c5.7,1.4,11.3,3,16.9,4.7
		c4.9,1.5,9.1,4.3,13.8,6.3c3.8,1.6,7.3,4,10.9,6"/>
	<path class="st0" d="M332.4,172.5c-1.5,0.1-3.1,0.2-4.6,0.3c-2.9,0.2-4.7,2.6-6.3,4.8c-2.5,3.3-4.1,7.1-4.9,11.2
		c-0.5,2.4-1.8,4.5-2.4,6.9c-1.1,5.1-1.4,10.3-1.6,15.5c-0.1,3.1-0.8,6.1-0.6,9.2c0.5,7.7,1.5,15.3,1.6,23c0.1,8,1.4,16.1,0.4,24.1
		c-0.1,1,0.2,2.1,0.2,3.2c0.1,15.7,0.1,31.4-0.6,47.1c-0.2,3.7-1.4,7.4-1.5,11.2c-0.1,1.6,0,3.3,0,4.9c-0.1,6.5-1.1,13-1.5,19.5
		c-0.4,6.1,0.3,12.1-0.2,18.1c-0.3,3.5,0.4,13.7,1,17.2"/>
	<path class="st0" d="M86.1,237.5c-0.7,1.9-48.5,154.8-50.2,155.9c-1,0.7-1.2,1.6-1.3,2.4c-1.8,8-4.7,15.7-7,23.5
		c-2.7,9.2-5.2,18.4-8,27.6c-1.2,3.8-2.8,7.6-5.2,11c-1.1,1.5-1.8,3.2-1.8,5.1"/>
	<path class="st0" d="M95.5,210.9c-2.2,0.8-2.7,2.8-3.1,4.6c-1.9,7.4-3.9,14.8-6.2,22.1"/>
	<path class="st0" d="M271.5,567.9c-7,2.4-14.1,4.3-21.5,5c-5.8,0.5-11.5,2.4-17.3,3.6c-3.5,0.7-7.1,1.3-10.6,2
		c-5.3,1.1-10.4,3-15.8,3.9c-0.1,0-0.2,0.2-0.3,0.1c-5.7-2.1-8.8,2.7-12.6,5c-7.3,4.5-14,10-20.5,15.7"/>
	<path class="st0" d="M277.3,172.7c1.5,3.9,3.6,7.6,5.2,11.5c4.4,10.8-8.5,404.3-10.1,415.9"/>
	<path class="st0" d="M67.3,494.7c7,1.1,24.7,4.9,31.9,4.9c6.2,0,12.4,0,18.7,0c8.2,0,16.3-0.9,24.1-3.1c5.8-1.6,11.8-1.6,17.5-2.8
		c6.2-1.3,12.3-3,17.9-6.4c2.6-1.6,5.1-3.7,8.6-3.2"/>
	<path class="st0" d="M53.8,481.5"/>
	<path class="st0" d="M272.4,120.4c-2.1,2.1-5,1.7-7.5,2.2c-8.8,1.6-17.4,4.2-25.8,7c-5.8,1.9-11.7,3.8-17.2,6.4
		c-4.3,2-8.5,4.2-13,5.9c-5.9,2.2-11.9,4.4-18,6.2c-4.2,1.3-8.8,2.3-12.4,5.2c-1.4,1.1-3.4,1-5.1,1.8c-6.1,2.6-11.9,5.8-18.1,7.9
		c-4.9,1.6-10,3.1-14.8,4.9c-7.8,2.9-15.6,5.9-22.8,10.2c-4.9,3-10.5,4.5-16.1,5.8c-1.8,0.4-3.6,0.8-5.5,1.2"/>
	<path class="st0" d="M406.3,599.5c-1.8-1.5-3.6-2.9-2.6-5.8c0.3-0.8-0.5-1.2-1.1-1.7c-1.6-1.5-3.5-2.3-5.5-2.8
		c-3.2-0.9-3.3-0.9-4.6,2.3c-1.4,3.7-3.7,7.3-7,8.7c-6.1,2.5-9.7,8-15.3,11c-4.2,2.3-7.8,5.6-11.8,8.3c-4.3,2.9-9.1,4.7-13.9,6.4
		c-2.6,0.9-4.9,2.5-7.7,3.1c-2.8,0.6-5.7,1.5-8.4,2.2c-4.5,1.2-8.9,2.9-13.7,3.3"/>
	<path class="st0" d="M320.9,74.4c2.2-2.8,2.7-6.3,3.3-9.5c1.3-6.5,3.4-12.9,3.5-19.5c0.1-6.3-3.2-12.8-9.7-15.1
		c-1.7-0.6-3.9,0.1-5.7-0.4c-7.8-2.4-15.4-0.3-22.7,1.7c-5.5,1.5-7.4,6.9-7.7,12.2c-0.4,7-0.2,14,0,21c0.1,2.7,0.3,5.2,1,7.7"/>
	<path class="st0" d="M97.4,212.7c0.8,0.8,1.3,2.6,0.1,3.9c-1.2,1.3-0.3,2.7-0.2,4c0.3,3.3,1.1,6.5,1.5,9.8c0.1,1.3,0.1,2.3-0.3,3.5
		c-0.5,1.4-0.6,2.8-0.6,4.3c-0.1,12.6,0,25.3,0.5,37.9c0.4,7.9-0.4,15.9,0.4,23.8c0.7,7.5-0.3,15,0.6,22.4c1,8.3,0,16.7,0.6,25
		c0.7,10.6,0.3,21.3,1,31.9c0.6,8.6,0.2,17.1,0.3,25.6c0,4-0.3,8.1-1.2,12.1c-0.4,1.6-0.1,3.4-0.1,5.2c0.1,5.2-0.1,10.4-0.6,15.5
		c-0.1,0.9-0.2,1.8,0.3,2.6"/>
	<path class="st0" d="M507.9,463.8c10.4,1.1,20.9,2.4,31.3,3.2c7.9,0.6,15.7,2,23.5,2.7c9.4,0.9,18.4,3.5,26.4,8.8
		c1.9,1.3,3.9,2.4,6,3.2c0.3,0.1,0.7-0.1,0.9,0.3c2,4.6,7.1,8,5,14.1c-0.1,0.4-0.9,1.8,0.8,1.7"/>
	<path class="st0" d="M568.8,514.2c-2.6-3.1-6.2-4.5-9.8-5.6c-1.8-0.5-3.6-1.1-5.4-1.6c-4.4-1.2-8.6-3.1-12.9-4.6
		c-6.9-2.5-14-4.1-21.1-5.8c-7.3-1.7-14.8-2.7-22.4-3.3c-18.6-9-72.7,2.5-73.3,2.5"/>
	<path class="st0" d="M272.4,600.1"/>
	<path class="st0" d="M310.2,537.5c2.2,3.5,3.2,7.6,3.3,12c0.1,5.3,0.3,10.6,1.7,15.8c0.4,1.5-0.2,2.7-0.1,4
		c0.3,7.2,0.8,23.5,0.9,30.7c0.1,4.5-42.6-4.3-43.7,0"/>
	<path class="st0" d="M277.3,172.7c-46.6-0.2-76.3,8.3-81,9.8c-9.8,3.1-20,5.3-29.6,9.1c-1.9,0.7-4.2,0.8-6.3,1.3
		c-4.5,1.1-8.3,3.7-12.6,5.2c-1.7,0.6-3.3,1.4-5.2,1.7c-2.4,0.4-4.4,1.8-6.6,2.8c-6.9,3-14,5.7-21.8,5.9c-5.7,0.2-11.7,0-17,3"/>
	<path class="st0" d="M277.9,175"/>
	<path class="st0" d="M94.6,184.7c-4.4-0.4-8.2-2.5-11.4-5.2c-4.1-3.4-8.6-4-13.6-2.8c-0.8,0.2-1.5,0.7-2,1.2
		c-2.7,3.1-4.9,6.1-4.8,10.9c0.1,8.3,4.2,14.1,10,19.2c2,1.7,4.9,1.7,7.4,2.3c4.3,1.1,8.8,1.1,13.2,1.4"/>
	<path class="st0" d="M511.1,207.7c-0.5,2.7-8.4,231-8.5,233.8c-0.3,5.8-0.3,11.7-0.3,17.5c0,3.2,1.7,4.9,4.9,4.9
		c0.7,0,0.6-0.6,0.6-1.1"/>
	<path class="st0" d="M545.9,193.1c-0.8,2.6-1.3,5.1-2.9,7.5c-5.7,8.9-14.4,11.5-24.2,11.7c-3.1,0.1-6.1,0.6-9.2-0.2
		c-1.4-0.4-2.1,0.9-2.6,2"/>
	<path class="st0" d="M544.7,180.7"/>
	<path class="st0" d="M320.9,122.1c-2.9-2.4-6.8-1.7-10.1-3.1c-3.8-1.6-7.9-0.4-11.7-0.2c-4.5,0.2-9,0.2-13.5,0.9
		c-2.8,0.4-5.7,1.2-8.6,1.4c-3.1,0.2-4.1-0.3-4.9-2.6"/>
	<path class="st0" d="M36,480.3c0,0.1,0,0.2,0,0.3c3.6,5.2,7.5,10,14,11.9c2.2,0.6,4.3,0.2,6.4,0.7c3.6,0.9,7.2,1.6,10.9,1.5"/>
	<path class="st0" d="M44.9,477.7"/>
	<path class="st0" d="M121,486.9"/>
	<path class="st0" d="M132.5,497.8"/>
	<path class="st0" d="M309.8,404.8"/>
	<path class="st0" d="M312.6,393.6"/>
	<path class="st0" d="M401.4,605.8"/>
	<path class="st0" d="M311.5,388.7"/>
	<path class="st0" d="M309.2,536.6c-2,1.9,3.8-150.3,2.3-147.9"/>
	<path class="st0" d="M300.8,536.9"/>
	<path class="st0" d="M312.6,393.6"/>
	<path class="st0" d="M307.7,530.3"/>
	<path class="st0" d="M418.6,630.5"/>
	<path class="st0" d="M420,619.6"/>
	<path class="st0" d="M321.8,121.5c2.9,0.3,5.6,1.8,8.6,1.1"/>
	<path class="st0" d="M275,632.5"/>
	<path class="st0" d="M311.8,406.5"/>
	<path class="st0" d="M283,72.4c-0.6,1.6-10.9,44.5-10.9,46"/>
	<path class="st0" d="M95.2,209.7"/>
	<path class="st0" d="M511.1,207.7c-0.9,1.1-0.7,2.6-1.4,3.7"/>
	<path class="st0" d="M158.9,493.2"/>
	<path class="st0" d="M158.4,497.5"/>
	<path class="st0" d="M419.2,612.2"/>
	<path class="st0" d="M66.7,200.8"/>
	<path class="st0" d="M70.8,203.4"/>
</g>
<path class="st0" d="M73.3,481.5c-2.2,1.1-24.4,9.4-26.7,10.2"/>
<path class="st0" d="M94,484.7c-2.2,1.1-24.4,9.4-26.7,10.2"/>
<path class="st0" d="M115.3,487.4c-2.2,1.1-24.4,9.4-26.7,10.2"/>
<path class="st0" d="M481.7,496.9c-2.2,1.1-24.4,9.4-26.7,10.2"/>
<path class="st0" d="M495.9,502.1c-2.2,1.1-24.4,9.4-26.7,10.2"/>
<path class="st0" d="M529,507.1c-2.2,1.1-24.4,9.4-26.7,10.2"/>
</svg>
