<?xml version="1.0" encoding="utf-8"?>
<!-- Generator: Adobe Illustrator 21.1.0, SVG Export Plug-In . SVG Version: 6.00 Build 0)  -->
<svg version="1.1" id="Calque_1" xmlns="http://www.w3.org/2000/svg" xmlns:xlink="http://www.w3.org/1999/xlink" x="0px" y="0px"
	 viewBox="0 0 623.6 737" style="enable-background:new 0 0 623.6 737;" xml:space="preserve">
<style type="text/css">
	.st0{fill:none;stroke:#020203;stroke-width:4;stroke-linecap:round;stroke-linejoin:round;stroke-miterlimit:10;}
</style>
<g>
	<path class="st0" d="M486.3,266.9c0.9-5.5,2.4-19.7,2.5-25.2c0.2-6.2,0.2-12.2,0.3-18.2c0-1.4,0.3-3,0.2-4.4
		c-0.2-5.6-1.2-11-2.3-16.3c-1.4-7.6-2.7-15.2-4.6-22.8c-1.7-6.4-4.1-12.5-6.2-18.8c-1.3-3.9-3.5-7.1-5.2-10.8
		c-2.7-5.8-6.4-10.6-10-15.7c-3.1-4.4-6.6-8.3-9.7-12.5c-3.6-4.8-7.1-9.6-11.9-13.4c-3.5-3-7.1-5.6-10.6-8.4
		c-7.1-5.6-15.2-9.4-23.4-12.9c-7.4-3.2-15.3-4.9-23.2-6.4c-5.3-1.1-10.9-1.2-16.3-1.2c-8.7,0-17.6,0.2-26.2,2.3
		c-6.2,1.4-12.2,3-18.1,5.6c-7.3,3.3-14.7,6.4-22,10c-2.4,1.2-5.2,1.6-7.3,3c-4.5,2.8-8.9,5.9-13.2,8.9c-5.5,4-10.4,8.5-15.6,12.9
		c-10.6,8.7-19.7,19-28.1,29.8c-1.6,2-3.5,3.9-4.9,6c-3.7,5.6-8.1,10.6-11.5,16.1c-2.1,3.5-4.3,6.8-6,10.4
		c-2.3,4.9-4.8,9.9-7.1,14.9c-1.4,3.2-3.6,6.2-4.3,9.9c-1.1,5.5-3.1,10.6-4.8,15.7c-1.1,3.2-2.5,6.2-2.8,9.7c-0.3,3,0,5.9-0.3,8.7
		c-0.4,5.1-1.2,10-1.6,15c-0.4,5.5-0.8,10.9-1.6,16.3c-0.7,3.9-1.1,7.8-1.2,11.5c-0.2,4,0.2,8-0.9,11.9c-0.9,3.9-1.7,7.8-2.4,11.5
		c-1.3,8-3.6,15.7-5.5,23.6c-0.7,3-0.8,5.6,0.2,8.7c0.9,2.7,2.8,3.5,4.9,3.9c3.5,0.7,7.1,1.2,10.6,1.3c3.5,0.2,6.9,0.8,10.4,0.8
		c5.1,0,10-1.3,15-1.4c2.5,0,5.1-0.4,7.6-0.8c3.1-0.7,5.5-2.7,5.1-5.1c-0.8-4.1,1.2-8.3-0.2-12.2c-0.2-0.3,0.2-0.7,0.2-0.9
		c0.3-2.8,0.9-5.6,1.3-8.4c0,0,6.8-164.8,111.1-181s84.1,183.5,84.1,183.5c-0.2,2.4,0,5.2-1.4,7.1c-1.4,2-1.1,3.6-0.4,5.5"/>
	<path class="st0" d="M179.4,376.3c-0.8-1.7-0.9-3.6-0.8-5.6c0.3-3,0.5-5.9-0.3-8.7c-0.8-3,1.2-4.6,5.1-4.8c2.4-0.2,4.8,0,7.1-0.2
		c3.9-0.2,7.4-1.3,11.3-1.7c3.5-0.4,6.8-1.3,10.1-0.5c0.9,0.3,10.6-0.5,11.3,0.2"/>
	<path class="st0" d="M429.4,328.8c-4.8,0.9-59.3-1.1-64.1-0.8c-5.3,0.3-10.6-0.2-16,0.2c-3.3,0.3-6.8-0.5-10.3-0.3
		c-8.3,0.8-16.5,1.3-24.8,0.9c-10.9-0.7-21.8,0.7-32.6,1.3c-9.4,0.5-19,0.9-28.5,1.3c-5.1,0.3-10,1.3-15,1.2c-0.9,0-2,0.2-3.1-0.2"
		/>
	<path class="st0" d="M498.1,469.8c-0.4-3.3,0.5-9.4,1-12.8c0.4-2.3,0.4-4.4,0-6.8c-0.3-2.1,0-4.4,0.2-6.6c0.3-4.3-0.2-8.7-0.4-12.9
		c0-0.9,0.3-2,0.4-3.1c0.9-4.4,0.9-8.9,1.1-13.4c0.2-4.4,1.2-8.7,0.9-13.2c-0.2-1.7-0.2-3.6-0.2-5.3c0.2-4,0.5-7.8,0.8-11.9
		c0.2-2.5-0.4-4.9-0.3-7.4c0.2-4,0.2-7.8,0.2-11.9c-0.2-6.4,1.7-12.6,0.9-19.1c-10.9,2.1-35.6,0.7-46.6,1.8"/>
	<path class="st0" d="M497.2,468.2"/>
	<path class="st0" d="M456.2,347.5c-2.7-1.8-5.6-0.9-8.3-0.5c-4.4,0.5-8.7,0.2-12.9,0.3c-7.6,0.3-15.3-1.3-22.9-0.5
		c-11.2,1.1-22.3-0.3-33.5,1.2c-2.8,0.4-5.8-0.3-8.5-0.2c-5.6,0.4-11.2,0-16.6,0.4c-3,0.3-5.9,0.5-8.7,0.3
		c-3.6-0.3-7.1-0.3-10.9,0.2c-4,0.4-8,0.2-11.9,0.3c-1.7,0-3.6,0.4-5.3,0.4c-8.4,0-16.7,1.1-25.2,0.8c-3.1-0.2-6,0.7-9,0.4
		c-5.2-0.5-10.4,0.9-15.6,0.8c-7.6-0.2-15.2,0-22.6,0.5c-5.1,0.3-10.3,0.4-15.3,0.9c-2,0.2-3.9,0.7-5.3,2.3
		C223.4,354.8,286.4,421.4,456.2,347.5z"/>
	<path class="st0" d="M486.3,266.9c-0.3,6.6-0.3,13.3-0.5,19.8c-0.5,9-0.2,18.2-2,27.3c-0.8,4.1-0.5,8.5-0.5,12.6
		c0,0.8,0.2,1.6,0.5,2.3c2.4,4.8-0.5,8.5-5.3,9c-5.8,0.7-11.5,0.7-17.3,0.7c-4.6,0-9.3,0.4-13.8-0.3c-4.3-0.7-8.7-0.7-12.9-1.2
		c-1.8-0.3-3.7-1.1-4.9-3"/>
	<path class="st0" d="M466.2,520.2c6.2,0,11.9,1.6,18.1,2.4c2.3,0.3,4.5,0.3,6.6,0.7c2.4,0.4,2.8,1.1,2.7,3.2
		c-0.2,2.8,0.2,5.8-1.3,8.4c-0.2,0.3-0.2,0.5-0.2,0.9c0.7,5.1-0.3,10.1-0.7,15.3c-0.3,2.8-0.5,5.8-0.7,8.5c-0.4,5.6-0.8,11-1.2,16.6
		c-0.2,2.5-0.4,5.1-0.7,7.6"/>
	<path class="st0" d="M209.6,377.1c-2.4,0.8-4.8,0.5-7.1,0.2c-2.4-0.4-4.8,0-7.1-0.4c-4.4-0.8-8.9,0.3-13.4-0.3
		c-2.7-0.3-3.5,0.3-3.7,3.1c-0.4,6.4-1.3,12.8-0.9,19.1c0.2,1.4-0.9,2.7-1.2,4.1c-0.7,3.7-0.9,7.6-1.1,11.3c-0.2,4.1-1.4,8-2,11.9
		c-0.3,2.1-0.3,4.3-0.7,6.2c-0.4,3-1.2,5.9-1.6,8.7c-0.4,2.8-0.4,5.6-0.8,8.3c-0.8,5.2-0.3,10.3-0.5,15.3c0,2.3-0.3,4.4-0.2,6.6
		c0.2,2.5-0.4,5.2-0.5,7.8c-0.3,4.4-2,8.7-1.6,13.2c0.4,5.8-1.1,11.4-1.3,17.2c-0.2,3.1-0.3,6-0.4,9c0,0.5,0.4,1.2,0.7,1.8"/>
	<path class="st0" d="M214.2,364.2c-2.7,0.8-5.5,1.2-8.4,0.5c-5.1-1.1-10.1-1.3-15.3-1.3c-3.9,0-7.8-0.4-11.5,0.3"/>
	<path class="st0" d="M209.9,402.6c-4.4,0.3-8.7-0.8-12.9-1.2c-4.5-0.4-9-0.9-13.7-1.2c-2-0.2-3.7-1.1-5.8-0.9"/>
	<path class="st0" d="M245.7,621c-4.8,0.2-9.6,0-14.4,0.3c-2.5,0.2-4.9-0.4-7.4-0.8c-2-0.4-4.1-0.2-6.2-0.3
		c-6.5-0.4-12.9-0.8-19.5-0.9c-4.8-0.2-9.7,0.2-14.5,0.5c-1.2,0.2-2-0.5-3.1-0.7c-2.4-0.3-4.8,0.5-7.1,0.2c-3.7-0.5-7.4-0.2-11-0.3
		c-1.7,0-3-0.9-4.4-1.4"/>
	<path class="st0" d="M250.1,621.3"/>
	<path class="st0" d="M210.1,428.1c-4.3,1.2-8.4-0.4-12.5-0.8c-3.5-0.4-6.9-0.9-10.4-1.1c-4.6,0-9.2-0.3-13.7-1.8"/>
	<path class="st0" d="M497.6,461.3c-7.4-1.3-15-1.1-22.5-1.8c-4-0.4-8-1.2-11.9-1.8"/>
	<path class="st0" d="M217.2,523.9c-3.7-0.4-7.4-0.4-11-0.8c-5.3-0.7-10.6-1.1-16-1.3c-5.9-0.3-11.7-0.9-17.6-0.9
		c-1.4,0-3,0-4.4-0.2c-2.3-0.4-3.3,0.7-3.5,3c-0.5,6.5-1.1,12.9-1.4,19.5c-0.3,3.1-1.4,6.2,0.2,9.3c5.5,0.3,10.9,1.1,16.3,1.6
		c6.5,0.8,13.2,1.1,19.7,2.7c1.2,0.3,2.4-0.4,3.7-0.4"/>
	<path class="st0" d="M201.5,498.9c-8.4-0.7-16.7-2-25.3-1.8c-3,0-5.9,0.2-8.7-0.4"/>
	<path class="st0" d="M206.5,581.7c-6.4,0.8-12.6-0.8-18.8-1.4c-6.2-0.6-12.6-1.2-19-1.4c-2.4-0.2-4.5-1.1-6.9-0.9"/>
	<path class="st0" d="M492.9,523.6c2.1-2.4,1.4-5.3,1.7-8.1c0.4-3.3,0.4-6.6,0.5-10c0-0.7,0.2-1.3-0.3-1.8c-0.8-1.1-0.2-1.8,0.3-2.8
		c1.2-3,0.8-6.2,1.3-9.3c0.3-1.6,0.3-3.3,0.3-5.1c0-1.3-0.4-2.3-2-2.4c-4.6-0.3-9.3-1.4-13.8-2.5c-2.3-0.5-4.5-0.9-6.9-0.5"/>
	<path class="st0" d="M150,491.6c-2.4,2.3-1.6,5.3-2,8.1c-0.5,3.1-0.3,6.2-0.3,9.4c0,1.2,0.2,2.4,1.8,2.8c1.3,0.4,2.1,1.6,2.8,2.8
		c1.8,3,3.3,6.2,5.6,8.7c0.2,0.2,0,0.4,0,0.7"/>
	<path class="st0" d="M199.6,451.7c-4-0.4-8-1.1-11.9-1.2c-3.6-0.2-7.1-0.4-10.6,0c-2.1,0.3-4.3-0.5-6.5-0.7"/>
	<path class="st0" d="M152.5,458.9c-1.3,1.6-2,3.3-1.8,5.3c0.2,2.5-0.2,4.9-0.5,7.4c-0.4,2.1-0.3,4.1,0.5,6"/>
	<path class="st0" d="M489.1,584.7c-0.2,3.2-0.8,6.2-0.8,9.4c0,4,0,8-0.3,11.9c-0.2,1.8-0.4,3.9-0.5,5.8c-0.2,1.7-2.3,3.1-4.8,3.2
		c-2.3,0.2-4.4,0.7-6.5,1.4c-2.7,0.9-227.7,4.5-230.5,4.5"/>
	<path class="st0" d="M178.9,358.2c-0.5-1.2-1.3-2.3-2.3-3.1c-3.5-2.7-6.2-6-9.7-8.7c-1.6-1.3-3.2-2.3-5.1-2.8"/>
	<path class="st0" d="M502.5,345.4c-0.3-3-1.4-5.5-3.1-7.8c-0.9-1.4-1.6-3.2-2-4.9c-0.4-1.6-1.3-2.7-2.4-3.7
		c-0.5-0.4-1.2-0.7-1.8-0.5c-3,0.5-5.9,1.1-8.5,2.1"/>
	<path class="st0" d="M161,340.3c1.1,3.7-1.6,6.8-1.4,10.4c0,0.5-0.4,1.2-0.2,1.6c1.6,3-0.9,5.2-1.2,7.8c-0.2,1.4-0.5,3,0,4.4
		c0.7,1.8,0,3.6-0.4,5.3c-0.8,4.8-2.7,9.6-1.3,14.5c0.3,0.9-0.2,1.8-0.7,2.5c-1.1,1.2-1.1,2.5-1.2,4c-0.2,3.3-0.8,6.8,0.7,10"/>
	<path class="st0" d="M496.2,484.5c1.1-1.2,1.4-2.8,1.4-4.4c-0.2-3.5,0.7-6.9,0.4-10.4"/>
	<path class="st0" d="M500.6,398.6c-7.1,0.3-14.5,0.8-21.7,0.7"/>
	<path class="st0" d="M164.3,456.9c-1.1,0-1.6-0.5-2.1-1.6c-1.7-3.1-3-6.4-4.9-9.3c-0.9-1.3-1.8-2.1-3.3-2.8"/>
	<path class="st0" d="M182.8,609.2c-5.3-0.7-10.8-1.1-16.3-1.4c-1.3-0.2-2.7-0.7-4-0.9c-1.2-0.2-2.3-0.2-2.5,1.6
		c-0.3,1.4-0.8,3-0.7,4.4c0.2,1.6-0.7,3-1.4,4.1c-0.7,1.1-1.4,0.9-2.3,0c-4.1-4.5-7.6-9.7-11.9-14.1c-0.5-0.5-0.5-1.1-0.7-1.4
		c-0.5-3.6-1.7-7.3,0.8-10.6c0.3-0.3,0.4-0.8,0.3-1.2c-1.4-4.3-0.2-8.4,0.3-12.5c0-0.2,0.3-0.4,0.2-0.7c-1.1-4.5,1.2-9,0-13.7
		c-0.2-0.3-0.2-0.7,0-0.9c2.4-4.6-0.4-9.6,0.7-14.4c0.8-3.9-0.3-7.8,1.3-11.5c0.4-0.9,0.3-2.3-0.3-3.2c-1.4-3.3-0.4-6.8-0.3-10.3
		c0-2.3,0-4.6,0.5-6.9c0.3-1.3,0.4-2.8,1.2-3.9"/>
	<path class="st0" d="M164.5,411.3c-2.4-1.4-3.5-4-4.8-6.4c-0.9-1.7-2.3-3.1-4.1-4c-1.4,1.2-1.8,3-1.8,4.6
		c-0.3,4.6-1.2,9.2,0.2,13.8c0.5,1.8-1.1,3.6-1.1,5.6c-0.3,5.6-1.2,11.2,0.7,16.6c0.2,0.5,0.5,1.1,0.2,1.8
		c-2.3,3.6-1.6,7.8-1.8,11.9c-0.2,1.6,0.4,3.2,2.3,4c0.3,0.2,0.5,0.4,0.7,0.5c2.5,3.1,4.6,6.4,6,10.1"/>
	<path class="st0" d="M160.5,607.2c-0.4-1.4-0.8-3-0.5-4.6c0.3-1.3-0.3-2.7-0.5-4c-0.4-1.8-0.2-4,0.2-6c0.5-3,0.3-5.9,0.4-8.7
		c0-1.8-0.2-3.9,1.2-5.6c0.8-1.1-0.7-1.8-0.4-3c1.1-6.6,1.1-13.3,1.6-19.8c0.2-1.1,0.7-1.8,0.9-2.8"/>
	<path class="st0" d="M160.8,491.4c0.3-0.8-0.3-1.6-0.7-2c-2.4-2.5-3.7-5.8-5.5-8.7c-0.4-0.5-0.7-1.1-1.2-1.6
		c-0.7-0.8-1.4-1.7-2.5-1.3c-1.1,0.4-1.4,1.6-1.6,2.7c-0.3,2.3-0.4,4.6-0.5,6.9c0,1.8,0.7,3.2,2.3,4.4c3.3,2.5,4.6,6.2,6.2,10
		c0.2,0.4,0.3,0.8,0.5,1.2"/>
	<path class="st0" d="M494.4,502.1c-4.8-0.8-9.6-1.7-14.4-2.5"/>
	<path class="st0" d="M501.3,360.4c-5.1,0-10-0.5-15-0.3c-1.4,0.2-3,0.2-4.4,0.5"/>
	<path class="st0" d="M156.9,570c-1.7-0.5-2-2.4-3-3.5c-1.1-1.2-1.7-2.8-2.5-4.4c-1.1-2-2.7-3.3-4.9-4"/>
	<path class="st0" d="M179.4,337.5c-4.4,0-8.7,0-13.2,0.5c-1.6,0.3-3.1-0.2-4.1,1.3"/>
	<path class="st0" d="M168.9,378c-0.5,0-0.9,0-1.4-0.7c-1.3-2-2.8-3.9-3.9-6.2c-0.9-2-2.3-3.5-4.4-3.9"/>
	<path class="st0" d="M162.4,430.5c-1.6-2.1-3.2-4.3-4.4-6.6c-0.8-1.6-1.7-3.2-3.9-3.2"/>
	<path class="st0" d="M165.2,397c-1.8-4.5-4.1-8.7-8.4-11.3"/>
	<path class="st0" d="M155.5,544c-1.6-0.9-2.5-2.5-3.2-4.1c-1.1-2.1-2.5-3.7-5.1-4"/>
	<path class="st0" d="M153.4,584.1c-2-2.3-6.5-5.7-8.7-7.7"/>
	<path class="st0" d="M501.3,372c-4.3-0.3-8.7-0.5-12.9-0.5c-2.1,0-4,1.2-6,0.8"/>
	<path class="st0" d="M168,364.1c-2.3-3.2-4-6.6-7.6-8.5"/>
	<path class="st0" d="M491.9,535.5c-2.1-0.9-4.3-0.9-6.5-0.9c-3,0.2-5.8-0.2-8.5-0.5"/>
	<path class="st0" d="M150.6,597c-1.1-1.6-2.1-3.2-3.3-4.6c-0.7-0.9-1.6-1.6-2.5-2"/>
	<path class="st0" d="M212.8,623.6"/>
</g>
</svg>
