<?xml version="1.0" encoding="utf-8"?>
<!-- Generator: Adobe Illustrator 21.1.0, SVG Export Plug-In . SVG Version: 6.00 Build 0)  -->
<svg version="1.1" id="Calque_1" xmlns="http://www.w3.org/2000/svg" xmlns:xlink="http://www.w3.org/1999/xlink" x="0px" y="0px"
	 viewBox="0 0 623.6 737" style="enable-background:new 0 0 623.6 737;" xml:space="preserve">
<style type="text/css">
	.st0{fill:none;stroke:#000000;stroke-width:4;stroke-linecap:round;stroke-linejoin:round;stroke-miterlimit:10;}
</style>
<g>
	<path class="st0" d="M526.9,362c-2,0.8-3.3,2.7-4.7,4.2c-6.5,6.6-14.5,10.7-22.9,14.1c-4.9,2-9.7,4.5-14.8,6.1
		c-5.2,1.6-10.2,3.7-15.5,5c-4.1,1-8,2.7-12.1,4c-6.6,2-13.2,3.7-19.9,5.3c-2.9,0.7-5.4,2.2-8.1,3.5"/>
	<path class="st0" d="M548.9,450.6c5.8-20.7,3.9-73.7-22-88.6"/>
	<path class="st0" d="M467.4,500.2"/>
	<path class="st0" d="M176.1,343.5c-23.9,5.6-46.7,21.9-51,23.7c-4,1.7-7.1,4.8-10.4,7.5c-3.6,3-7.5,5.7-11.1,8.7
		c-7.7,6.4-15.1,12.9-20.1,21.8c-1.7,3-4.1,5.5-5.4,8.8c-2.4,6-4.6,12-5.4,18.5c-0.6,4.8-1.1,9.4,0.4,13.9c1.8,5.3,4.6,10.1,8,14.5
		c6.2,7.9,14.1,13.6,22.2,19.4c6.3,4.6,12.5,9.2,19.7,12.5c8,3.7,16.1,7.4,24.4,10.6c10,3.9,20.6,5.1,30.9,7.4
		c5.9,1.3,11.9,2.1,17.8,4.1c3.1,1.1,6.5,1.5,9.9,2.1c4.8,0.9,9.4,2.5,14.2,3.4c7.8,1.4,15.7,2.9,23.6,3.9c7.1,0.9,14.2,1,21.2,1.8
		c2.8,0.3,5.7,0,8.6,0.3c4.3,0.4,8.7,0.5,13.1,0.2c6.1-0.3,12.2-0.6,18.2-0.4c5.3,0.1,10.6-0.4,15.8-0.9c8.6-0.8,17.2-1.1,25.8-1.3
		c2.3,0,4.7-0.4,7-0.5c6.9-0.2,13.6-2,20.4-2.7c3.7-0.4,7.3-0.7,11-1.4c3.6-0.6,7-2,10.7-2.1c4.8-0.1,9.5-1.1,14.2-1.7
		c5.9-0.7,11.9-1.9,17.7-3.7c6.2-1.8,12.4-3.5,18.7-4.9c7.3-1.7,68-7.1,102.8-56.6"/>
	<path class="st0" d="M429,404.2c-3.9,0-14.9,55.3-143.8,46.1c-5.7-0.9-10.7-4.1-16.4-4.9c-0.7-0.1-1.7-0.4-2.1-0.1
		c-1.5,1.4-3.5,0.9-5.1,1.6c-6.9,2.9-20.6,9.6-27.4,12.7"/>
	<path class="st0" d="M457.2,332.3c-2.6,7.2-4.6,14.6-6.5,22c-1.7,6.5-2.6,13.2-4.5,19.6c-0.5,1.6-0.5,3.2-0.6,4.8
		c0,1.7,0.7,2.4,2.4,2.4c5.5,0,11-0.4,16.4-1.9c8-2.3,15.8-5.4,23.6-8.4c5.8-2.2,11.8-4.1,17-7.9c4.3-3.3,7.2-7.3,9.6-12.3
		c3.1-6.3,3.6-12.9,4.8-19.4c0.7-3.9-0.9-7.7-3.1-11c-5-7.3-12.5-9.9-20.9-10.8c-4-0.4-7.9-0.8-11.8,0.1
		c-8.7,1.9-17.1,4.6-22.7,12.1c-2.1,2.9-3.8,6.4-3.6,10.4"/>
	<path class="st0" d="M335.7,210.2c6.6-0.1,13.2,0.2,19.9,0.1c5.4,0,10.9,0.5,16.4,1.4c5.8,0.9,11.8,1.2,17.7,1.7
		c4.5,0.4,8.9,1.6,13.4,2.4c6.6,1.1,13,2.8,19.3,4.8c2,0.6,3.6,1.8,5.6,2.5c9.3,3.2,17.8,7.7,24.4,15.3c3.1,3.5,4.7,8.1,7.6,11.7
		c2.8,3.6,3.7,7.8,5.3,11.8c0.1,0.3,0,0.7,0,1.1c0.1,4.4-1.2,8.6-1.9,12.9"/>
	<path class="st0" d="M463.4,275.9c-0.1,2.1,0.1,19.4-0.6,21.7"/>
	<path class="st0" d="M462.8,297.6c3.1-2,8.8-4.5,12.2-5.7c5.1-1.7,10.4-3.3,16-3.5c6.8-0.3,13.5,0.1,20.1,1.8
		c8.7,2.2,15.3,7.1,19.1,15.5c2.5,5.4,2.7,11.2,3.1,16.9c0.4,5.7,0.7,11.5,0,17.2c-0.8,6.9-1.6,13.9-5.8,19.9
		c-0.5,0.6-0.4,1.4-0.5,2.1"/>
	<path class="st0" d="M253,319.4"/>
	<path class="st0" d="M463.4,275.9c-2.9-0.2-5.4,3.9-7.4,5.2c-5.4,3.5-10.9,6.9-16.5,10c-9.7,5.4-19.5,10.7-30,14.2
		c-8.8,2.9-17.6,5.8-26.5,8.5c-9.3,2.9-18.9,4.4-28.3,6.7c-8,1.9-16.1,3.2-24.4,4c-6.2,0.6-12.4,0.7-18.5,1.2
		c-4.3,0.4-8.6-0.1-12.9-0.2c-5-0.2-10-0.9-15-1.2c-3.5-0.2-7-1.5-10.5-1.7"/>
	<path class="st0" d="M253,319.4"/>
	<path class="st0" d="M172.9,256.6c-0.7,0.9-1.5,1.8-2.3,2.6c-5,4.9-4.9,10.9-3.6,16.9c0.5,2.3,0.2,4.8,1.7,7.1
		c1,1.6,2.5,2.2,3.7,3.3c4.4,4.3,8.7,8.9,13.6,12.7c4.5,3.4,41.6,23.4,87.4,23.4"/>
	<path class="st0" d="M198.6,236.2"/>
	<path class="st0" d="M341.1,210.2c-3.9-0.3-44.4,1.1-48,1.8c-3.9,0.8-7.8,0.9-11.6,1.3c-9,0.9-18,1.5-26.8,3.5
		c-20.3,1.6-80,32.9-81.8,39.8"/>
	<path class="st0" d="M436.8,292c-0.5-6.9-3.2-12.9-8.1-17.6c-3.4-3.3-7.9-5.3-12.3-7.3c-6.9-3.1-14-5.4-21.4-7.1
		c-5.3-1.2-10.8-1.4-16.1-2.5c-6-1.3-12.2-1.2-18.2-2"/>
	<path class="st0" d="M360.6,255.4c-25.8-8-79.2,0.7-84.5,1.9c-9.5,2.2-18.8,4.7-28.2,7.3c-40.8,11.3-60.3,32.3-62,34.6"/>
	<path class="st0" d="M457.5,332.3c1.9,0.2,3.7,0.8,5.6,0.3c1.8-0.5,3.6,0.6,5.4,0.8c2.5,0.4,5,0.7,7.5,1c3.5,0.5,6.6,2.3,9.9,3.5
		c6.2,2.3,12.7,4.1,18.5,7.5c3.1,1.8,6.3,3.4,9.7,4.7"/>
	<path class="st0" d="M169.6,285c-0.1,5.7,4.5,43.6,5.2,49.4c0.4,3,0.6,6.1,1.2,9.1c1.1,5.2,3.7,10,6,14.7c2.7,5.6,4.5,11.5,7.3,17
		c2.7,5.5,5.5,11,8.1,16.6c3.3,7,8.9,12.2,13.7,18c4.4,5.3,19.8,14.5,25.2,18.5"/>
	<path class="st0" d="M169.6,285"/>
	<path class="st0" d="M335.7,210.2"/>
	<path class="st0" d="M266.7,444.9c-1-2.5-3.6-2.1-5.4-3.2c-4.4-2.6-8.7-5.6-13.5-7.4c-4.2-1.5-7.4-4.5-11.5-6.1"/>
	<path class="st0" d="M207.2,406c-2.5,2.2-6,1.9-8.9,3.1c-4.9,2-16,7.9-21.2,8.6"/>
	<path class="st0" d="M234.3,429.1c-3.8,2.3-22.9,14.5-27.1,15.8"/>
	<path class="st0" d="M182.5,360.7c-1.8,0.9-14.3,5.5-16.2,6.2"/>
</g>
<path class="st0" d="M185.1,370.4c-1.8,0.9-23.2,8.9-25.1,9.6"/>
<path class="st0" d="M191.4,381.1c-1.8,0.9-23.2,8.9-25.1,9.6"/>
<path class="st0" d="M195.1,391.8c-1.8,0.9-33.1,12.7-35,13.3"/>
<path class="st0" d="M223.7,419.5c-1.8,0.9-23.2,8.9-25.1,9.6"/>
<path class="st0" d="M215.6,292.8c-1.8,0.9-23.2,8.9-25.1,9.6"/>
<path class="st0" d="M228.1,297.6c-1.8,0.9-23.2,8.9-25.1,9.6"/>
<path class="st0" d="M254.4,299.9c-1.8,0.9-34.5,13.2-36.4,13.9"/>
<path class="st0" d="M280.3,304.2c-1.8,0.9-37.9,14.5-39.8,15.2"/>
</svg>
