<?xml version="1.0" encoding="utf-8"?>
<!-- Generator: Adobe Illustrator 21.1.0, SVG Export Plug-In . SVG Version: 6.00 Build 0)  -->
<svg version="1.1" id="Calque_1" xmlns="http://www.w3.org/2000/svg" xmlns:xlink="http://www.w3.org/1999/xlink" x="0px" y="0px"
	 viewBox="0 0 623.6 737" style="enable-background:new 0 0 623.6 737;" xml:space="preserve">
<style type="text/css">
	.st0{fill:none;stroke:#000000;stroke-width:4;stroke-linecap:round;stroke-linejoin:round;stroke-miterlimit:10;}
</style>
<g>
	<path class="st0" d="M315,353.7"/>
	<path class="st0" d="M319.7,342.2"/>
	<path class="st0" d="M322.3,358.1c2.2-4.2,41.8-88.8,45.3-92.2c0.2-0.2,0.3-0.5,0.2-1c-2-1.3-4.7-1.5-7-2.7
		c-3.3-1.7-3.5-1.7-5.8,2.2c-1.5,2.5-39.5,86.5-40.1,89.3"/>
	<path class="st0" d="M540.1,205.3c3.2,4.5,10.2,14,13,18.9c-5.1,3.3-9.9,6.7-15.2,9.2c-9.7,4.5-18.8,10-27.9,15.6
		c-6.5,4-12.9,8.1-19.3,12.4c-6,4-12.2,7.6-18.6,10.9c-2.3,1.2-4.6,2.6-6.5,4.4c-0.6,0.6-1.2,1.1-2,1.2"/>
	<path class="st0" d="M393.3,212c5.2,3.7,11.3,5.8,16.4,9.5c4.6,3.3,9.8,5.6,13.8,9.8c2.7,2.8,6,4.9,8.7,7.8c4.7,5,9.8,9.7,14,15.2
		c0.9,1.1,2.2,1.8,3.2,2.8c3.1,2.8,5.6,6.2,7.5,10c1,2,2.2,3.9,3.5,5.8c2,3,3.2,6.3,4.3,9.7c1.7,4.8,3.8,9.5,4.9,14.5
		c0.1,0.4,0.1,0.9,0.3,1.2c1.9,2.9,2.9,6,2.8,9.5c0,0.6,0.4,1.2,0.7,1.7c2.7,4.6,3.4,9.8,4.6,14.9c0.9,4.3,1.9,8.5,3.1,12.8
		c0.9,3.4,1.2,6.9,1.6,10.5c0.7,6.7,2.1,13.2,3.9,19.7c0.5,1.6,0.3,3.2,0.5,4.8c0.8,4.1,0.9,8.3,0.5,12.4c-0.4,4.2-0.2,8.3-0.4,12.5
		c-0.1,2.3-1.3,4.4-1.8,6.7c-0.9,4.7-3.1,9-4.5,13.5c-1.1,3.5-2.8,6.7-3.7,10.2c-0.3,1.1-0.3,2.2,0,3.2"/>
	<path class="st0" d="M300,96.8c-1.9,4.5-2.8,9.3-4.8,13.8c-1.2,2.6-1.8,5.7-2.4,8.7c-0.4,2.1-1.3,4.1-2.2,6c-2.8,5.8-5,12-8.5,17.5
		c0,0.1,0,0.2,0,0.2c-0.1,5.3-3.9,9.1-5.3,13.9c-1.4,4.7-3.8,9.1-5.3,13.8c-2.8,8.7-6.2,17.1-10.3,25.2c-0.3,0.6-0.6,1.1-0.5,1.7
		c0.5,2.5-1,3.4-3,4.1c-3.2,1.3-6.5,2.5-9.6,4.2c-1.7,0.9-3.7,1-5.2,2.3c-0.4,0.4-1.4,0.1-2-0.9c-6.1-9.1-11-19.1-17.3-28.1
		c-5.7-8.2-10.5-16.9-16.2-25.1c-5-7.1-9.6-14.5-14.3-21.9c-1.1-1.7-2.9-2.8-3.3-5c-4.4,1.5-8.1,3.9-11.7,6.7
		c-1.1,0.8-1.2,1.4-0.8,2.8c2.3,8,3.8,16.2,6.1,24.2c1.1,3.6,1.1,7.8,1.8,11.6c0.6,3.4,1.6,6.8,2,10.3c0.4,3.1,2.1,6.2,0.9,9.5"/>
	<path class="st0" d="M583.5,369.1c0.2,3.8-1,7.3-1.4,11c-0.4,3.3-0.9,6.4-2,9.5c-0.6,1.8,0,3.9-0.5,5.9c-1.5,6.1-2.4,12.2-3.8,18.3
		c-1.2,5.2-2.7,10.4-4.4,15.4c-1.7,4.8-3.6,9.6-5,14.5c-1.5,5.1-3.3,10.2-5.1,15.2c-1.3,3.6-3.8,6.7-5.7,10
		c-0.7,1.3-1.6,2.6-2.5,3.7c-0.8,0.9-1.6,1.1-3,0.4c-6.9-3.7-13.2-8.5-20.4-11.8c-0.2-0.1-0.3-0.5-0.5-0.5c-6.4-0.7-10-6.3-15.4-8.8
		c-3.6-1.7-7.1-3.5-10.5-5.6c-2-1.2-3.8-2.7-5.7-4.1c-4.8-3.3-10-5.8-15-8.7c-5.6-3.3-5.8-3.2-9.2,2.7c-2.8,5-5.2,10.3-7.3,15.7
		c-0.9,2.2-0.1,4.3,2,5.5c1.7,0.9,3,2,3.1,4.2c0.1,1.4,1,2.6,2.2,3.5c7.6,6.4,14.1,13.9,21.4,20.4c6.3,5.7,12.1,11.9,17.5,18.4
		c2.4,2.9,6.1,4.5,8.3,7.7c0.9,1.3,1.5,2.9,3.2,3.5"/>
	<path class="st0" d="M540.1,205.3c-6-9.4-13.4-17.9-20.3-26.6c-2.2-2.8-4.6-5.6-7.8-7.6c-3.4-2.2-6.4-5.2-9.5-7.9
		c-1.7-1.5-3.3-3-5.5-3.7c-1.3-0.5-2.1-1.5-2.8-2.7c-0.8-1.5-2-2.7-3.7-3.6c-4-2.2-7.2-5.6-11-8.2c-5.9-4.1-12.2-7.6-18.7-10.8
		c-5.3-2.6-10.4-5.5-15.2-8.9c-1.5-1-2.2-1.2-3.3,0.5c-4.9,7.4-9.4,15-13.5,22.9c-2.3,4.4-4.5,8.9-7.6,12.8
		c-2.3,2.9-3.6,6.4-5.4,9.5c-1.7,2.9-3.6,5.6-5.3,8.5c-5,8.7-9.9,17.6-14.7,26.4c-1,1.8-1.8,3.6-3,5.3"/>
	<path class="st0" d="M141.4,343.7c1.2,1.3,1.2,2.9,1,4.5c-0.4,2.6-0.3,5.2-0.1,7.7c0.1,0.9,0.3,1.9,0.3,2.8
		c-0.1,5.8,1.4,11.5,1.9,17.2c0.3,3.7,1.7,7,1.9,10.7c0.2,3.3,1.6,6.3,2.5,9.5c2.1,8,5.3,15.6,9.4,22.7c1.3,2.3,2,4.9,3.2,7.3
		c0.9,2,1.9,3.9,3.1,5.7c1.6,2.4,1.4,3-1,4.2c-7,3.6-14.2,7-21.2,10.6c-4.1,2.1-8.6,3.3-12.7,5.6c-7.8,4.2-15.8,8.1-23.3,12.8
		c-5.7,3.6-11.6,7-17.8,9.7c-2.9,1.2-5.7,2.9-8.5,4.4"/>
	<path class="st0" d="M172.9,447.2c-6.4,4.5-13.3,8.4-20.3,11.8c-4.2,2.1-8.2,4.5-12.4,6.5c-3.4,1.7-7.1,2.6-10.5,4.5
		c-6.9,4.1-14.2,7.3-21,11.6c-7,4.5-14.3,8.7-21.9,12.3"/>
	<path class="st0" d="M67.6,247.7c-4,5.8-7.5,11.9-9,18.9c-0.4,1.7-0.4,3.7-2.3,4.7c-0.4,0.2-0.2,0.4-0.2,0.5
		c-0.1,2.8-1.6,5.3-1.9,8c-0.5,5-1.9,9.8-2.6,14.7c-0.6,4.1-1,8.2-1.6,12.2c-1.1,7.1-1.5,14.5-1.2,21.7c0.2,4.9-1,9.8,0.1,14.7
		c0.2,1-0.3,2.1-0.4,3.2c-0.5,8.2,0.8,16.3,1.4,24.4c0.2,2.9,0.7,5.9,1.8,8.8c0.6,1.5,0.4,3.3,0.3,5c-0.3,6.8,0.8,10.7,3.5,16"/>
	<path class="st0" d="M343.3,316.1c3,2.2,4.3,2.7,7,5.2c3.1,2.9,6.1,6,8.4,9.5c1.1,1.6,1.9,3.6,3.2,5.1c4,4.8,5,10.7,5.9,16.5
		c0.3,2.1,0,4.3-0.4,6.5c-0.9,4.9-2.5,9.5-4.1,14.2c-1.1,3.2-2.5,6.5-4.5,9.2c-1.5,2.1-2.2,1.5-3.8,3.7"/>
	<path class="st0" d="M461.1,569.6c-3,2.7-6.9,3.7-10.2,5.8c-5.7,3.4-11.6,6.3-17.5,9.1c-4.7,2.2-9.3,4.5-14,6.5
		c-4.9,2.1-9.7,4.3-14.9,5.7c-3.2,0.8-6.2,2.5-9.2,3.9c-9,4-18.3,6.9-27.7,9.7c-2.3,0.7-4.5,1.4-6.7,2.3c-1.4,0.6-2.7,0.8-4,0"/>
	<path class="st0" d="M190.6,473.3c-0.5-2.9-2.9-4.5-4.5-6.7c-0.5-0.7-1.2-1.2-1.6-2.2c-1.5-3.6-4.3-4.4-7.1-2.2
		c-4,3.2-8.5,5.5-12.7,8.3c-4.6,3-9,6-14,8.2c-2.1,0.9-3.4,2.9-5.3,4.2c-5.8,3.8-11.2,8.1-17.2,11.4c-1.3,0.7-2.4,1.6-3.4,2.4
		c-4.3,3.9-9.8,6.3-13.6,10.8c-2.3,2.7-5.6,4.6-8.4,6.8"/>
	<path class="st0" d="M186.6,476.8c-1-0.6-2.1-0.1-2.7,0.3c-3.7,2.2-8.1,2.9-11.8,5.1c-3.8,2.4-7.9,4.3-11.7,6.8
		c-9.7,6.3-19.8,11.7-29.2,18.4c-6.1,4.3-12.5,8.3-18.7,12.5c-1.1,0.7-1.8,1.8-2.8,2.7"/>
	<path class="st0" d="M191.6,474.3c1.8,3.9,4.9,6.9,7.5,10.2c3,3.9,6.6,7.2,10.6,10.1c3.5,2.6,6.5,6,10.1,8.6c3,2.1,5.2,5.3,8.9,6.6
		c2.3,0.8,4.1,2.8,6.3,4.2c1.9,1.1,1.9,2.8,0.8,4.7c-3.9,6.7-8.5,13.1-13,19.4c-2.1,2.9-4.5,5.6-7,8.2c-2.8,3.1-4.8,6.8-7.4,10
		c-2.7,3.4-6,6.2-8.4,9.9c-3.2,4.9-7.2,9.4-10.3,14.3c-1.9,2.9-3.4,6.1-6,8.5c-0.4,0.3-0.7,1-0.5,1.7"/>
	<path class="st0" d="M332.8,309.6c-7.6-4.4-28,0.9-31,1.4c-1.8,0.3-2.9,1.7-4.2,2.7c-2.6,1.9-5.5,3.5-7.4,6
		c-1.9,2.5-4.7,3.9-6.8,6.1c-3.7,3.8-6.5,8.2-8.9,12.8c-1.3,2.5-3.3,4.6-4.6,7.2c-1.6,3.2-2.8,6.4-3.5,9.8"/>
	<path class="st0" d="M405,510.6c2.7,7.8,9.9,26,13.4,33.5c3.5,7.4,5.9,15.1,8.6,22.7c0.7,2.1,1.7,4,2.7,6c0.9,1.8,1.8,3.4,2.1,5.5
		c0.2,2.2,2.1,3.6,3.2,5.5"/>
	<path class="st0" d="M417.3,439.1c2.5,2.4,4.8,5.1,7.6,7.6c-1.1,2.4-3.2,4.4-5.4,6.1c-0.6,0.5-1.5-0.3-1.9-0.7
		c-3.6-3.8-7.8-6.9-11.8-10.1c-3.7-2.9-7.4-5.9-11.4-8.3c-6-3.6-11.8-7.6-16.7-12.7c-2.6-2.7-6-4.4-8.7-7c-3.4-3.3-6.6-6.9-9.7-10.5
		c-2.5-2.9-5.9-4.7-8.8-7.2c-0.4-0.4-1.1-0.5-1.7,0c-2.5,2-5.3,3.5-7.6,5.9c-3.1,3.3-7.1,5.8-11.1,8.1c-3.6,2.1-7.3,1.5-11,1.5
		c-8.1,0-15.6-3-23.2-5.6c-3.2-1.1-5.7-4-8.8-5.3c-5.1-2.2-8.3-6.2-11.2-10.5c-1.2-1.7-13.4-21.3-9.6-34.7"/>
	<path class="st0" d="M319.7,358.9c3.2-1.8,95.9,76.2,97.5,80.2"/>
	<path class="st0" d="M334.9,371.2"/>
	<path class="st0" d="M193.1,474.1c-0.9,0-1.7,0-2.5-0.6c-2,1.4-4.1,2.7-3.9,5.6c0,0.9-0.6,1.2-1,1.7c-5.7,7.5-11.7,14.9-16.8,22.9
		c-2.1,3.2-4.6,6.2-6.9,9.3c-4,5.2-8.1,10.2-12.1,15.4c-4.5,6-8.6,12.2-13.6,17.8c-0.4,0.4-0.5,1-0.8,1.5"/>
	<path class="st0" d="M220.5,504.8c-5.5,7.4-11.2,14.5-16,22.4c-2.4,3.9-5.8,7-8.7,10.5c-5,5.9-8.2,13-13.4,18.7
		c-3.3,3.7-6.1,7.9-9.1,11.8c-2.1,2.7-4.4,5.5-5.6,8.9"/>
	<path class="st0" d="M553.4,225.2c2.4,4.4,4.5,8.9,6.4,13.5c2.6,6.3,5.4,12.6,8,18.9c2.4,5.8,5.1,11.5,6.5,17.7
		c1.5,6.2,3.1,12.3,3.9,18.7c0.4,3.4,1.9,6.8,2.8,10.3c1,4,1.2,8.2,2.3,12.2c1.2,3.9,2,7.8,2.7,11.7"/>
	<path class="st0" d="M551.1,473.8c0.7,1.3-0.5,2.3-1.1,2.9c-1.8,1.9-3,4.1-4.2,6.3c-1.4,2.7-3.5,4.8-5.3,7.2
		c-3,3.9-5.3,8.2-7.8,12.3c-1.8,2.8-3.6,5.5-5.6,8.1c-1.4,1.9-2.6,3.8-3.9,5.8c-2.7,4.3-5.8,8.2-9.8,11.4c-1.4,1.1-2.7,2.3-3.7,3.8
		c-0.7,1.1-1.5,2.1-2.6,2.7c-1.1,0.6-1.4,1.6-2,2.5c-0.3,0.5-0.1,1.1-0.7,1.5c-2.7,1.6-4.5,4.4-7.3,5.9c-0.6,0.3-1.1,0.6-1.4,1.1
		c-2.8,4.2-7.2,6.8-11.1,9.9c-2.2,1.8-5,2.9-7.4,4.6c-4,2.9-8.1,5.7-12.2,8.5c-1.8,1.3-3.4,1.3-4.4-0.5c-1-1.8-2.5-3.1-3.8-4.7
		c-8-9.5-16.8-18.3-25.3-27.4c-2.8-3-5.1-6.4-7.9-9.3c-3.7-3.9-7.2-7.9-10.8-11.9c-1.4-1.6-2.7-3.4-4.2-5"/>
	<path class="st0" d="M236.9,517.7c2.6-0.1,4.6,1.6,6.4,3c1.9,1.4,3.8,2.9,5.8,4.2c2.4,1.6,2.3,2,0.3,4c-1.5,1.5-2.3,3.6-3.7,5.2
		c-2.2,2.7-4.6,5.2-6.8,7.9c-4.9,6-8.5,12.9-13.9,18.5c-4.3,4.4-7.8,9.3-11.5,14.2c-1.6,2.1-4.1,3.3-5.5,5.7
		c-2.4,4-5.5,7.4-7.6,11.5c-0.5,1-1.4,0.9-2,1.5"/>
	<path class="st0" d="M540.1,205.3c-2.2-0.1-22.2,16.9-23.9,18c-7.3,4.5-14.5,8.9-21.5,13.9c-5,3.6-10.4,6.6-15.6,9.9
		c-3.9,2.4-7.9,4.7-11.5,7.4c-3.1,2.3-6.4,4.1-9.8,6c-1,0.6-2,1.3-3,2"/>
	<path class="st0" d="M333.4,536.9c-0.6,2.8,1.6,4.5,2.7,6.6c2,3.8,2.7,8,4,12.1c0.7,2.2,1.8,4.2,2.1,6.5c0.7,5.6,2.9,10.7,4,16.2
		c1.2,6,3.3,11.7,5.3,17.4c0.8,2.4,1.5,4.9,2.4,7.3c0.3,0.7,0.3,1.4,0.1,2.3c-0.6,2.1,0.6,4.9,2.4,6.2"/>
	<path class="st0" d="M56.5,400.1c-0.6,1.3-0.3,3-0.3,4.5c-0.1,5.1,1.6,10,2.3,15c1,7.2,4.1,13.8,5.4,20.9c0.3,1.3,1.1,2.5,1.6,3.7
		c1.9,4.3,2.8,8.8,4.8,13c1.9,3.8,2.5,8.1,4.4,12c1.6,3.2,2.6,6.6,4.8,9.4c0.7,0.9,0.3,2.1,0.8,3c1.5,3,2.6,6.2,4.5,9
		c0.6,0.9,0.7,1.9,1.1,2.8c2.8,5.5,7.2,9.9,10.5,15c3.4,5.3,8.3,9.2,12.1,14.2c4.4,5.8,10.7,9.8,15.6,15.1
		c3.6,3.9,7.5,7.5,11.6,10.8c4.3,3.4,8.4,7,12.6,10.3c5.5,4.3,10.8,9,14.7,15c1.6,2.5,4,3.9,6.5,4.9c3,1.2,5.5,3,7.9,4.9
		c1.9,1.5,3.9,2.9,5.6,4.6"/>
	<path class="st0" d="M463.9,457.4c-2.6,2.3-3.8,5.7-5.7,8.5c-0.7,1-1.4,2.1-2.3,3c-8.2,8.1-15.6,17.1-24.9,24
		c-3,2.2-6.4,3.7-9.3,6.2c-1.1,0.9-2.3,1.9-3.4,2.9c-2.4,2.3-5.6,3.3-8.3,5.1c-0.4,0.3-0.7,0.8-1.2,1"/>
	<path class="st0" d="M471.1,459.4c1.9-0.1,3.6,0.4,5.2,1.2c7.4,3.9,14.7,8.3,22.5,11.4c7.1,2.8,13.9,6.3,21.4,7.9
		c2,0.4,3.9,1.4,5.7,2.3c2.9,1.4,6.1,1.8,9,2.9c1.3,0.5,2.4,1.4,3.7,1.9"/>
	<path class="st0" d="M95.1,203.8c-3.3,2.1-5.4,5.5-7.4,8.6c-3.7,5.8-7.9,11.4-11.3,17.4c-2.9,5.2-5.7,10.4-8.5,15.7
		c-0.9,1.7-0.5,2.6,1.5,2.9c6.2,1,12.3,2.4,18.4,3.7c5.9,1.2,11.9,0.8,17.8,2.5c3.9,1.1,8.1,0.6,12.2,1.4c3.9,0.8,7.8,1.4,11.7,2
		c7.3,1.1,14.5,2.8,21.7,3.9c5.4,0.8,10.6,2.4,15.9,3.1c0.8,0.1,13.7-3.3,13.7-5.2"/>
	<path class="st0" d="M585,348.9c-3.9-0.1-7.7,0.3-11.5,1.1c-4,0.8-8.3,0.8-12.4,1.1c-7.4,0.6-14.8,1.1-22.2,1.8
		c-2.5,0.2-5,0.9-7.5,1.2c-0.7,0.1-1.7,0.4-2.1-0.7"/>
	<path class="st0" d="M281.8,147.2c2.5,1.5,3.9,4.2,4.8,6.5c1.9,4.7,4.2,9.3,6.4,13.8c2.1,4.4,3.7,9.1,6.1,13.4
		c1.8,3.4,3.6,7,4.7,10.9c0.4,1.5,1.8,2,3.2,2c6.7,0,13.5,0,20.2,0.5c2,0.1,4-0.1,6-0.2c0.5,0,1.1-0.1,1,0.7"/>
	<path class="st0" d="M400.7,510.6c-6.9,3.8-13.7,7.9-20.9,11.1c-9.4,4.2-18.6,8.8-28.7,10.9c-3.6,0.7-6.9,2.5-10.7,2.1
		c-1-0.1-1.5,1-2.7,1.1c-2.3,0.1-4.5,0.7-7,0c-4.5-1.2-8.9,3.2-13.5,2.8c-2.3-0.2-7.1-0.5-9-1.7"/>
	<path class="st0" d="M250.9,528.7c1,2.9,0,5.7-0.5,8.5c-1.1,6.9-3.5,13.4-5,20.2c-1.6,7.5-3.6,14.9-5.9,22.2
		c-1.1,3.5-1.6,7.2-1.6,10.9c0,3.4-0.6,6.7-1.9,9.7c-1.4,3.4-2,6.9-3.4,10.3c-0.5,1.2-1.6,2.3-1.5,3.7"/>
	<path class="st0" d="M197.5,242.4c-2.1-2.9-1.4-6.5-2-9.7c-0.9-5.4-2.4-10.6-3.3-16c-0.8-5.2-1.6-10.5-2.2-15.7
		c-0.2-1.8-0.8-3.5-0.4-5.5c0.2-1.1-0.7-2.6-2.1-3.2c-7-3.2-12.6-8.4-18.7-13c-5.2-4-10.9-7.3-16.5-10.7c-2.7-1.7-5.5-3.5-7.6-6.2
		c-1.5-1.8-4.1-2.1-5.9-3.7c-2.7,1.2-5,2.8-7.1,4.6c-3.6,3.1-7.2,6.1-10.7,9.3c-3.8,3.5-7.4,7.3-10.5,11.5
		c-3.2,4.4-7.1,8.3-10.5,12.4c-1.3,1.5-2.4,3.2-4,4.5c-1.3,1.1-1.5,2.1-0.3,3.5c3.1,3.7,6.2,7.3,9,11.2c4.2,6,8.8,11.6,12.7,17.7
		c4.8,7.5,9.6,14.9,14.8,22.1c0.5,0.7,0.1,1.3,0.2,2"/>
	<path class="st0" d="M333.4,540.4c-1.8,1.7-1.5,4.1-1.7,6.2c-0.3,2.6-0.2,5.3-0.2,8c0,3.1-0.9,6-1.5,9c-0.8,4.3-1.1,8.6-0.9,13
		c0.4,7.3,0,14.5-0.6,21.7c-0.5,5.5-1.5,11.1-0.7,16.7c0.2,1.2-0.9,2.4,0.3,3.5c1.1,1.1,2.4-0.1,3.5,0.1c2.3,0.5,4.4-0.5,6.5-0.9
		c2.7-0.6,5.5-1.1,8.2-1.4c3.3-0.4,6.5-1,9.5-2.7"/>
	<path class="st0" d="M136,259.7c0.2,2.6,1.8,4.6,3.3,6.4c5,6.1,9,12.9,13.7,19.2c1.7,2.2,3,4.7,5.5,6.3c1.3,0.8,0.7,2.2,0.2,3.2
		c-2.4,5-5.3,9.9-7.4,15c-2.6,6.4-4.8,12.9-6.4,19.6c-1,4.1-2.2,8.1-2.6,12.2c-0.1,1-0.7,1.3-1.5,1.8c-4,2.7-8.6,3.9-13,5.7
		c-6.6,2.7-13.5,4.6-20,7.7c-0.8,0.4-1.7,0.6-2.5,0.7c-2.3,0.3-3.9,1.6-5,3.5"/>
	<path class="st0" d="M251.2,526.5c2.1-0.9,4.1,0.1,6,0.8c7.2,2.5,14.5,4.7,21.9,6.3c7.1,1.5,14.3,2.1,21.5,3.2
		c1.5,0.2,2.9,0.8,4.5,0.1c1-0.5,3.7,1.9,4,3.2c0.4,2.6,0.1,5.2,0.3,7.7c0.6,12.7,0.4,25.4,0.5,38.2c0.1,6.1,1.5,12.1,1.5,18.2
		c0,5.1,0.9,10.1,0.7,15.2c0,0.6-0.1,1.2,0.2,1.7"/>
	<path class="st0" d="M234,108.3c3.9-0.6,7.6-1.7,11.3-3.3c2.2-1,5-1.1,7.4-1.7c4.2-1.1,8.5-0.2,12.7-1.2c7.9-1.9,16-3.1,23.7-5.8
		c3.3-1.1,7.1-2.2,10.7,0.1c0.4,0.3,0.8-0.1,1.3-0.2c1.4-0.4,3.1-0.6,4.5-0.2c4.3,1.1,8.7,0.4,13,0.2c4.6-0.2,9.2,0,13.7-0.2
		c1.8-0.1,3.5-0.2,5.2-0.5c2.5-0.6,3.3,0,3.2,2.5c-0.2,6-0.1,12-0.4,18c-0.3,4.7,0.4,9.5-0.4,14.2c-0.9,5.3-0.4,10.7-0.5,16
		c-0.1,3.6,0.6,7.3,0.5,11c-0.1,4.5-0.1,9-0.8,13.5c-0.4,2.2,0.6,4.5,0.3,6.7c-0.5,5.6,1.2,11.2-0.2,16.7"/>
	<path class="st0" d="M49.4,343.4c5.5-0.7,10.1,1.5,15,3.6c4.6,1.9,9.1,3.9,13.9,5.4c1.9,0.6,3.8,1.4,5.5,2.6
		c2.4,1.6,5.4,2.2,7.9,3.7c3.6,2.1,7.8,2.4,11.6,4.2c4.1,1.9,8.5,3.7,13.1,4.5c1.5,0.2,2.7,1,4,1.7c5.7,3.1,11.9,4.7,17.7,7.4
		c1.9,0.9,3.9,2.2,6.2,2.1"/>
	<path class="st0" d="M234,109c-0.4-1.6-1.6-0.7-2.2-0.5c-7.4,2.8-14.9,5.4-22.1,8.4c-3.4,1.4-6.8,3-10,4.9c-2.3,1.3-4.7,2.2-7,3.4
		c-0.8,0.4-1.6,0.9-2.2,1.5"/>
	<path class="st0" d="M340.9,96.3c2.7-1.8,5.7-1.1,8.5-0.9c2.6,0.2,5.2,0.2,7.7,0.3c2.5,0.1,4.7,1.1,7,1.7
		c6.2,1.6,12.3,3.3,18.7,3.7c2.3,0.2,4.5,1.4,6.7,2.1c3.7,1.1,7.5,1.9,11.3,2.8c1.6,0.4,3,1.1,4.4,1.7c3.3,1.5,7,1.9,10,4.1
		c1.2,0.9,2.6,1.2,4,1.5c4.9,1,8,5.2,12.7,6.5c3.4,1,6.8,2.1,10,3.7c0.5,0.3,0.9,0.5,1,1.1"/>
	<path class="st0" d="M94.6,360.4c-0.4,1.3-1.2,2.1-2.4,2.8c-4.7,2.8-9.9,4.1-14.7,6.4c-4.4,2.1-9.2,3.2-13.5,5.5
		c-3.7,2-7.6,3.5-11.5,4.9"/>
	<path class="st0" d="M259.6,103.3c-0.4,1,0,2,0.5,2.7c1.8,2.1,3,4.6,4.2,7c4.2,8.8,9.5,17,14,25.7c0.8,1.6,1.8,3.2,3.5,4"/>
	<path class="st0" d="M176.6,135.5c-4.1,0.2-7.4,2.4-10.7,4.5c-4.6,2.9-9.3,5.6-13.7,8.8c-2.6,1.9-5.8,2.9-7.8,5.6
		c-0.4,0.6-1.1,0.7-1.7,1c-1.6,0.7-2.9,1.7-3.2,3.5"/>
	<path class="st0" d="M586,328.2c0,0.5-12.8,2.2-13.7,2.3c-2.3,0.1-4.7,0.6-7,0.4c-3.9-0.3-7.6,1-11.5,0.8
		c-6.5-0.3-12.9,1.3-19.4,1.5c-6.9,0.2-13.7,1.1-20.5,2.6c-3,0.7-6.1,0.4-9.2,0.6c-5.7,0.4-11.4,0.4-17,1.9c-1.4,0.4-3,0.2-4.5,0.3"
		/>
	<path class="st0" d="M190.1,195.3c0.7,0.1,1.3-0.1,2,0.5c8.1,5.8,15.8,12.2,23.7,18.2c2.5,1.9,5.4,3.2,7.8,5.4
		c1.1,1,3.3,0.5,4.1-0.3c4.2-3.9,9.2-6.8,13.4-10.6c0.1-0.1,0.1-0.2,0.1-0.2"/>
	<path class="st0" d="M317,366.6c1.9,2.8,4.8,4.5,7.3,6.6c7.5,6.3,14.8,12.8,22.1,19.3c1.1,1,2.3,1.8,2.2,3.5"/>
	<path class="st0" d="M185.3,589c3,2.5,6.6,4,9.7,6.2c4,2.8,7.9,5.5,12.2,7.7c3.5,1.8,7.1,3.2,10.7,4.4c4.5,1.5,9.1,2.7,13.5,4.5"/>
	<path class="st0" d="M147.4,392.3c-1.1,0.6-2.3,1.1-3.5,0.5c-1.4-0.8-2.1,0.8-3.3,0.8c-3.6,0.2-7.1,0.9-10.7,1.2
		c-4.9,0.4-9.8,1.4-14.7,1.6c-4.2,0.2-8.5,0.6-12.7,0.8c-4.2,0.2-8.5,0-12.7,0.6c-8.3,1.1-16.7,1.4-25,3.4c-2.7,0.7-5.5,0.3-8.2,0.3
		"/>
	<path class="st0" d="M318.2,99.3c0.1,31.3,0,62.7-0.5,94"/>
	<path class="st0" d="M288.3,622.9c-2.9-1.3-6-1.3-9-1.7c-1.9-0.3-3.6,0.9-5.7,0.6c-5.3-0.7-10.4-2.3-15.5-3.8
		c-4.6-1.4-9.5-2.1-14.2-3.3c-3.7-0.9-7.4-1.4-11-2.7"/>
	<path class="st0" d="M334.2,194.1c2.8-0.8,5.6,0.1,8.2,0.6c4.8,0.9,9.5,2.3,14.2,3.7c2.1,0.6,3.9,2.1,5.9,3.1
		c1.6,0.8,3.2,0.7,4.8,1.1c5.4,1.4,10.4,3.9,15.9,5c3,0.6,6.5,1.3,9,3.8"/>
	<path class="st0" d="M223.7,220c-0.3,0.8-0.7,1.3-1.5,1.8c-8.4,4.9-14.8,12.2-21.9,18.7c-6.7,6.1-13.6,12.2-19.5,19.2
		c-1.5,1.8-21.5,32.9-22.2,35.1"/>
	<path class="st0" d="M585.4,328.8c1.4,3.2,1.3,6.6,1.4,9.9c0.1,3.4,0.6,6.9-0.9,9.7c-0.7,7-1.4,13.8-2,20.5
		c-5.7-0.4-11.1,0.8-16.5,0.8c-2.1,0-4.3,0.5-6.5,0.4c-5.6-0.2-11.2,0.1-16.7,0.6c-5.7,0.5-11.5,0.9-17.2,1.7
		c-2.2,0.3-4.3,0.2-6.5,0.2c-5.1,0-10.2,0.2-15.2,1.7c-3.2,1-6.5,0.9-9.7,0.9c-2.5,0-5,0.5-7.5,0.1"/>
	<path class="st0" d="M290.3,194.6c-3.6-0.8-7.2,0.2-10.7,0.6c-5.1,0.6-9.9,2.1-14.7,3.9c-1.2,0.4-2.5,0.5-3.7,0"/>
	<path class="st0" d="M504.5,356.8c-3.5,0.3-7,0.5-10.5,1.3c-1.7,0.4-3.7-0.5-5.5,0.5"/>
	<path class="st0" d="M288.6,623.4"/>
	<path class="st0" d="M328,618.7c-0.9,0.8-2,1-3.2,1c-2.4,0.1-4.8,0.5-7.3,1.1c-2.9,0.8-6,0.8-9,1.4c-2.9,0.6-5.9,0.7-8.9,0.9
		c-3,0.2-5.8-0.8-8.7-0.8c-0.8,0-1.5-0.1-2.2,0.3"/>
	<path class="st0" d="M173.9,447.9c1.7,2.7,3.5,5.3,5.2,8c0.9,1.5,1.3,3.2,1,5"/>
	<path class="st0" d="M529.2,354.2c-4,0.2-7.8,1.4-11.7,1.5c-3.8,0.1-7.4,1.2-11.2,1c-0.5,0-1.6,0.7-1.5-0.7"/>
	<path class="st0" d="M165.6,434.9c3.3,3.7,5.8,7.9,7.7,12.5"/>
	<path class="st0" d="M586,328.2"/>
	<path class="st0" d="M314.5,361.1c-2.1-2.6-2.3-3.9-0.7-6c1-1.3,3.7-1.7,5.2-0.7c1.7,1.1,1.9,2.4,0.8,4.5c-0.7,1.3-1.7,2.4-3,3.2
		c-0.8,0.5-1.3,0-1.8-0.5"/>
	<path class="st0" d="M278.6,621"/>
	<path class="st0" d="M540.1,205.3"/>
	<path class="st0" d="M356.4,613c-0.2,0.6-0.2,1.2-0.2,1.8"/>
	<path class="st0" d="M522.7,457.1"/>
	<path class="st0" d="M291.1,194.3c2.9,0.8,5.8-0.3,8.7-0.3c1.2,0,2.6,0.2,3.5-1"/>
	<path class="st0" d="M309,539.9"/>
	<path class="st0" d="M314.7,536.2"/>
	<path class="st0" d="M314.7,187.3"/>
</g>
</svg>
