<?xml version="1.0" encoding="utf-8"?>
<!-- Generator: Adobe Illustrator 21.1.0, SVG Export Plug-In . SVG Version: 6.00 Build 0)  -->
<svg version="1.1" id="Calque_1" xmlns="http://www.w3.org/2000/svg" xmlns:xlink="http://www.w3.org/1999/xlink" x="0px" y="0px"
	 viewBox="0 0 623.6 737" style="enable-background:new 0 0 623.6 737;" xml:space="preserve">
<style type="text/css">
	.st0{fill:none;stroke:#000000;stroke-width:4;stroke-linecap:round;stroke-linejoin:round;stroke-miterlimit:10;}
</style>
<g>
	<path class="st0" d="M9.4,414.8c4.5,1.4,8.4,4.1,12.4,6.5c4.2,2.5,8.6,4.6,12.8,7.1c4,2.3,8.3,4.1,12.1,6.6
		c4.4,2.8,9.3,4.7,13.9,7.1c6.7,3.5,13.7,6.4,20.6,9.5c5.5,2.4,10.9,4.9,16.2,7.5c8.7,4.3,17.4,8.5,25.9,13.3
		c3.1,1.7,6.3,3.3,9.7,4.4c3.2,1,6,3,9,4.4c8,3.7,16.2,6.9,24.2,10.4c9.4,4.1,19.2,7.3,28.5,11.7c4.2,2,8.6,3.3,12.9,5.1
		c5,2.1,10,4.3,14.8,6.9c2.8,1.5,5.9,1.6,8.9,2.1c4.2,0.7,8.4,1.4,12.4,2.5c1.6,0.5,3.3,0.5,4.8,0.5c5.5,0,10.8,0.6,16.3,0.8
		c1.8,0.1,3.3,0.9,5,1c5.9,0.6,11.8,0.5,17.7,1.4c6,0.9,12.2,0.2,18.2,1.2c7.9,1.3,16,1.7,23.9,2.2c5.9,0.4,11.9,0.7,17.9,0
		c6.4-0.7,12.9-1.1,19.4-1.1c3.4,0,6.7-0.7,10.1-1.4c3.4-0.7,6.8-1.4,10.3-1.2c2.7,0.1,5.3-0.6,7.9-0.8c6.3-0.6,12.3-2.5,18.4-3.6
		c6.1-1.2,11.7-3.7,16.9-6.9c3.8-2.3,8-3.6,12-5.4c4.4-2,9-3.7,13.4-5.7c6.6-3.1,13-6.8,19.7-9.7c5.8-2.5,11.2-5.8,17-8.2
		c4.8-2,8.9-5.2,13.4-7.3c5.8-2.7,11-6.4,16.9-8.7c2.3-0.9,4.3-2.4,6.4-3.6c6.8-3.9,14.1-7,20.6-11.5c4.3-3,9.2-5,13.4-8.1
		c5.5-4.1,11.6-7.3,17.4-11c7-4.6,13.4-9.9,20.6-14.2c3.2-1.9,5.9-4.7,9.4-6.3c1-0.5,2.1-0.9,3.3-0.7"/>
	<path class="st0" d="M334.8,305.9c4.8,2.3,10,2.2,15.1,2.9c1.1,0.2,2.4-0.3,3.6-0.7c4.3-1.5,8.5-3,12.7-4.9
		c0.5-0.2,1.1-0.4,1.4-0.7c2.4-2.6,4.7-2.5,8-1.1c6.9,2.9,14,5.5,21,8.2c8.9,3.5,17.5,7.5,26.5,10.7c4.2,1.4,8,3.9,12,5.6
		c4.6,2,9.3,3.5,13.8,5.6c6.3,2.8,12.4,6.1,18.7,8.8c8.6,3.6,17.1,7.4,25.5,11.5c7.7,3.7,16,6.3,23.4,11c3,1.9,6.7,2.6,9.9,4
		c7.4,3.3,14.7,7,22.1,10.4c5.5,2.5,10.6,5.7,16,8.1c5.4,2.4,10.6,5.3,16,7.8c3,1.4,5.9,3.2,8.9,4.6c4.3,2,8.4,4.5,12.6,6.6
		c3.7,1.9,7.7,3.6,10.3,7.1"/>
	<path class="st0" d="M322.8,332.2c-1.7,0-3.2,0.7-4.5,1.7c-7.7,5.8-16.1,10.5-24.3,15.4c-5.5,3.3-11.4,5.1-17.1,7.8
		c-4.1,2-8.1,4.2-12.4,5.8c-2.4,0.9-5,0.9-7.5,1.5c-8.2,2-16.3,4.4-24.4,6.8c-7.6,2.3-15.1,4.7-22.7,6.7c-3.3,0.9-6.7,1.1-10.1,1.6
		c-3.6,0.5-7.2,1.3-10.7,2.1c-3,0.7-6.2,0.7-9.1,1.7c-5.9,2.1-11.9,3.7-18,5.1c-6.3,1.5-12.5,3.7-18.9,4.4
		c-5.5,0.6-10.8,2.8-16.3,2.9c-6.3,0.2-12.4,1.9-18.7,2.2c-5.1,0.2-10.3,1.5-15.3,2.8c-3.3,0.9-6.7,1.3-10.1,1.7
		c-3.6,0.4-7.1,1.6-10.8,1.6c-5.5,0-10.9,1.2-16.2,2c-5,0.8-10.1,1.8-15.1,2.8c-5.8,1-11.5,2.4-17.2,3.8c-2.6,0.6-5.2,1.4-7.9,1.7
		c-0.7,0.1-1.4,0.3-1.9,0.9"/>
	<path class="st0" d="M238.1,498.3c-3.1-3-22.9-17.9-26.6-19.9c-8.2-4.4-16.6-8.2-24.7-12.9c-3.7-2.1-7.6-3.8-11.4-5.7
		c-4.9-2.4-9.6-5.1-14.2-8c-3.8-2.4-7.7-4.4-11.9-6.1c-3.4-1.3-6.6-3.1-9.8-4.8c-5.2-2.7-10.6-5-15.8-7.6c-4.4-2.2-8.9-4.2-13.4-6.3
		c-3.7-1.7-7.8-2.5-11.5-4.3c-5.4-2.7-11.3-4.4-16.4-8c-2.7-1.9-5.6-3.7-9-4.4"/>
	<path class="st0" d="M415.9,241.3c-1,2.3-2,4.6-3.6,6.7c-0.7,1-1.2,2.1-0.2,3.4c0.6-0.2,1.3-0.2,1.9-0.7c3.5-2.9,7.7-4.8,11.4-7.3
		c7.2-4.8,13.8-10.4,18.8-17.6c2.7-4,5.8-7.7,7.6-12.2c0.4-1,0.7-2,0.8-3.1c0.3-3.8,1.6-7.5,1-11.5c-0.2-1.5-0.5-3.1-1-4.5
		c-0.8-2.7-1.5-5.5-2.3-8.2c-2.3-7.4-6.2-13.6-13.6-17c-4.2-1.9-8.3-4.3-12.7-5.6c-3.3-1-6.7-2-10.2-2.7c-2.3-0.5-4.5-1.8-7-2.1
		c-4.5-0.6-8.5,0.5-12.2,2.9c-4.8,3-8.9,6.9-12.9,10.8c-2.4,2.4-5.1,3.1-8.4,3.1c-4,0-8-0.8-12-0.5c-1.7,0.1-3.3-0.6-5-0.8
		c-6.9-0.7-13.8-2-20.8-1.9c-0.3,0-0.6-0.1-1-0.2"/>
	<path class="st0" d="M343.4,294.9c2.4-1.2,3.5-3.7,5.5-5.3c0.2-0.1,0.3-0.5,0.2-0.7c-0.3-4.1,3.3-5.8,5.4-8.3
		c2-2.3,3.7-4.2,3.7-7.3c0-2.2-0.8-3.7-2.8-4.8c-2.9-1.6-5.6-3.3-9.1-3.6c-3.4-0.4-6.4,0.7-9.3,2.1c-2.4,1.1-2.9,4.1-4.3,6.1
		c-0.2,0.3-0.3,0.7-0.1,1.2c1.2,3.5,3.2,6.6,3.9,10.3c0.1,0.7,0.7,1.3,1.4,1.4c2.5,0.5,4.8,2.6,7.7,1.5c0.9-0.3,2.1-0.3,3.1,0
		c1.6,0.4,2.9-0.1,4.3-0.5c2.9-0.8,5.1-2.5,7.5-4.2c2.1-1.5,5.1-1.7,7.3-3.5c1.9,0.9,4.4-1.1,6,1.2"/>
	<path class="st0" d="M268.3,244.6c1.5,0.4,2.4,1.3,2.9,2.9c1.6,4.4,3.9,8.5,6.4,12.5c0.2,0.4,0.6,0.8,0.7,1.2
		c1.6,5.1,5,9.1,7.6,13.6c2.1,3.7,5,6.8,6.9,10.7c1.3,2.6,3.8,4.7,5.6,7.2c0.9,1.2,1.9,2.5,2.4,3.7c1.4,3.2,4.1,5.2,6.1,7.9
		c1.3,1.7,3.5,1.5,4.5,0.8c3.8-2.6,8.4-4.9,8.2-10.6c2.2-3.9-0.7-6.6-2.5-9.3c-1.2-1.9-2.9-3.6-5.4-4.2c-0.7-0.2-1.4-0.3-1.9-0.1
		c-3.6,1.4-8.1,1.3-10.1,5.7c-0.7,1.5-2.2,1.9-3.6,2.4"/>
	<path class="st0" d="M311.8,219.5c1.6,1.6,1.8,3.8,1.8,5.7c0.1,4.9,1.3,9.7,0.8,14.6c-0.3,3.1-0.3,6.3,0.2,9.3
		c0.5,3.4,0.7,6.9,1.3,10.3c0.2,1.2,0.5,2.6-0.7,3.6"/>
	<path class="st0" d="M326.9,139.1c0.8-4.8,0.6-9.6-0.4-14.4c-0.3-1.7-1.5-1.9-2.7-2.1c-0.9-0.1-1.8-0.1-2.6,0
		c-3.8,0.3-4.2,0.2-3.1,3.8c0.4,1.3,0.2,2.7,0.1,4.1c-0.2,3.2-0.2,6.4,0.7,9.6"/>
	<path class="st0" d="M50,412.6c2.6,0.1,4.6,1.6,6.9,2.5c5.3,2,10.4,4.7,15.6,7.1c5.2,2.3,140.6,73.2,145.5,76.1
		c0.5,0.3-128.9-68.1-128.2-68"/>
	<path class="st0" d="M262,401.4c4.1,2.4,111.3,73.1,115.4,75.5c4.1,2.4,8.4,4.4,12.4,7c3.7,2.3,6.7,5.4,10,8.1
		c1.2,1,2.2,2.2,3.8,2.6"/>
	<path class="st0" d="M401.8,429.3c2.9,1.1,5.4,2.9,8.1,4.3c5.7,3,11.1,6.6,16.8,9.7c4.6,2.6,8.7,5.7,12.9,8.9"/>
	<path class="st0" d="M310.6,170.2c-4.2-1-8.5-0.9-12.7,0c-0.3,0.1-0.6,0.2-1,0.2c-7.1-0.3-10.4,4.3-13,10c-1.2,2.7-2.3,5.5-3.1,8.2
		c-0.8,3-1.7,6-2.6,9c-2.3,7.3-4.6,14.7-7,22c-0.3,0.9-0.7,1.8-1.4,2.4"/>
	<path class="st0" d="M300.3,397.8c-7.2-4.2-14.2-8.6-21.1-13.4c-3.8-2.6-7.7-5.1-11.5-7.7c-0.8-0.5-1.5-0.7-2.4-0.7"/>
	<path class="st0" d="M280.5,188.9c-3,0-5.8,0.8-8.4,2.4c-4.1,2.6-5.8,6.5-5.5,11.2c0.2,3.4-0.6,6.7,0,10.1c0.5,2.8,0.5,5.8,1.4,8.3
		c1.3,3.8,0.6,7.2,0.1,10.8c-0.5,3.6-1.7,7.2,0.1,10.8c0.3,0.6,0.2,1.4-0.2,2.1c-1.7,3.3-0.6,7.1-1.5,10.5
		c-0.9,3.7-0.1,7.5-0.8,11.3c-0.6,3.2,0.2,6.7,1.7,9.5c2.1,3.9,4.6,7.6,8.7,10c1.7,1,3.4,1.1,5.1,1.5c4,1,7.9,0.2,11.7-1.4"/>
	<path class="st0" d="M297.5,365.7c5.7,1.6,10.5,4.7,15.1,8.4c6.1,4.9,12.5,9.4,19.4,13.2"/>
	<path class="st0" d="M295.1,230.8c1,0.4,1.7,1.4,2.9,1.4c0.8,0,1.3,0.6,1.7,1.2c2.4,4.1,4.4,8.3,4.9,13.1c0.2,2.6,0.8,5.1,1,7.7
		c0.1,2.2,2,3.5,3.7,4.9c2.6,2,6.1,3.2,7.5,6.6c0.7,1.6,1.6,2.9,3.1,3.9c1,0.7,1.4,2,1.9,3.1c1.8,3.6,3.8,7,4.8,11
		c1.1,4.5,1.4,9-0.1,13.4c-0.6,1.7-2.7,2.4-3.8,3.9c-1.8,2.5-4.2,4-6.9,5.3c-1.4,0.6-2.8,0.9-3.8-0.7"/>
	<path class="st0" d="M333.8,188.6c0.4-1.1,0.6-2.1,0.3-3.4c-0.6-2.7,0-5.6-0.8-8.4c-0.4-1.3,1.1-3.3,0.8-4.5
		c-1.2-4.5,0.2-8.8,0.2-13.2c-0.1-5.6-1.6-10.5-3.1-15.6c-0.6-1.9-2-2.8-3.4-3.8c-1.2-0.8-2.7-1-4-0.1c-0.2,0.1-0.5,0-0.7,0
		c-2.7-0.4-4.9,0.5-6.7,2.4c-2.1,2.2-3.2,4.7-3.9,7.6c-1.4,6.6-1.7,13.4-1.5,20.1c0.3,8.9-0.6,17.9-0.1,26.8c0,0.6,0.3,1.5,0,1.9
		c-2.6,3.5-0.4,7-0.4,10.6c0,1.6,0.6,3.2,0.6,4.8c0,2.5,0.5,4.9-1.3,7.3c-1.1,1.5-0.7,3.9-1.8,5.7c-1.9,3.3-5,5-8.6,6"/>
	<path class="st0" d="M287.2,289.6c-0.6,3.1,0.4,5.8,1.6,8.6c1.2,2.6,2.6,4.9,4.3,7.2c2.5,3.2,5.8,5.2,9.6,5.3c2.7,0.1,5.7,0,8.4-1
		c1.3-0.5,2.2-1.3,2.2-2.9"/>
	<path class="st0" d="M297.5,489.2c4.1,2.1,7.6,5,11.5,7.4c6.2,3.9,12,8.4,18.4,12c0.3,0.2,0.5,0.5,0.7,0.7"/>
	<path class="st0" d="M360.1,498.3c-2,0.3-3.1-1.4-4.5-2.3c-3.5-2-6.7-4.5-10.2-6.5c-4.9-2.9-9.3-6.6-14.5-8.9"/>
	<path class="st0" d="M377.4,443.7c4.4,2,8.3,4.7,12.4,7.2c5.1,3,10.1,6.2,15.1,9.3"/>
	<path class="st0" d="M409,220.9c-0.9,0.2-0.9,1-1.2,1.7c-1.4,2.9-3,5.6-5.9,7.5c-3.3,2.2-5,5.7-6,9.5c-0.4,1.6-0.6,3.1-0.6,4.8
		c0,2.1-1.8,4-3,5.7c-2.9,4-5,8.4-8,12.3c-4.1,5.2-7.9,10.6-13.7,14.1c-1.1,0.7-2,1.4-2.4,2.7"/>
	<path class="st0" d="M179.3,409c4.4,2.2,101.1,67,105,69.9c4.2,3.1,8.2,6.5,12.7,9.1"/>
	<path class="st0" d="M358.2,222.4c-3.5-1.1-5.7-3.8-8.4-6c-3.6-3-6.2-7.1-9.3-10.5c-0.8-0.9-1.5-2-2.9-1.9"/>
	<path class="st0" d="M369,210.2c0,0.6,0,1-0.7,1.5c-3.8,2.5-7.1,5.6-9.3,9.6c-1.7,3.1-3.2,6.3-5.1,9.3c-2,3-3.8,6.1-6.1,8.9
		c-3.8,4.5-7.9,8.9-11,13.9c-2.4,3.9-4.5,8.1-5.6,12.6c-0.7,2.8-2.2,5.2-2.8,8.1c-0.6,3.1,0.1,5.5,1.9,7.6c1.5,1.8,3.3,3.7,6.2,3.2"
		/>
	<path class="st0" d="M390.5,421.9c-2.7-1.2-4.9-3.2-7.4-4.6c-4.7-2.5-8.8-6-13.6-8.4"/>
	<path class="st0" d="M336.2,208.5c1.2,0.2,1.9,1.2,2.6,1.9c4.6,4.6,9,9.3,14.1,13.4c1,0.8,1.9,1.9,3.3,1.9"/>
	<path class="st0" d="M312,468.3c5.3,3.8,10.9,7.2,16.5,10.5c0.7,0.4,1.3,0.9,1.9,1.5"/>
	<path class="st0" d="M447.7,486.1c-3.4-1.1-5.8-3.7-8.8-5.3c-3.3-1.8-6.4-3.8-9.6-5.7"/>
	<path class="st0" d="M349.6,368.8c-3.3-0.9-6.5-1.9-9.6,0.7c-1.6,1.3-3.6,1-5.5,1.4c-0.8,0.2-1.6,0-2.1,0.8
		c0.7,3.3,1.1,3.6,4.3,2.4c1.7-0.7,3,0.3,4.3,1c2.8,1.6,5.2,1.6,7.4-0.6c1.3-1.3,3.1-1.1,4.6-1.9c2-1.1,2.8,0.7,4.1,1.5
		c2.9,1.7,5.7,3.6,8.6,5.2c2.4,1.3,4.9,1.2,7.4,0.3"/>
	<path class="st0" d="M352.5,226.7c-2.9-0.3-4.9-2.2-6.9-4.1c-2.5-2.4-4.8-4.9-7.4-7.2c-1.6-1.4-2.5-1.5-3.4-0.2
		c-1,1.4-0.3,2.2,0.9,3.2c2.4,1.9,4.5,4.1,6.6,6.3c2.8,3.1,5.7,6.3,9.7,8"/>
	<path class="st0" d="M350.1,309.2c-0.6,2.6-2.7,3.8-4.8,5.1c-2.1,1.3-4.5,2.2-6.5,3.8c-1.1,0.9-2.5,0.9-3.8,0.2
		c-1.7-0.9-3.2-0.7-4.5,0.5c-1,0.9-1.9,2-3.4,2.1"/>
	<path class="st0" d="M407,238.6c-0.5,0.1-1,0.2-1.2,0.7c-2.1,4.8-4.8,9.2-7.2,13.9c-0.3,0.6-0.5,1.2-0.5,1.8"/>
	<path class="st0" d="M352.5,399.2c4.6,2.2,9,4.8,13.4,7.5c1,0.6,2.2,1.1,3.1,1.9"/>
	<path class="st0" d="M334.1,189.4c0.4,3.9-0.8,7.6-0.5,11.5c0.3,3.7,0.4,7.3,0.5,11c0,1.1-1.5,48.7-1.4,49.7"/>
	<path class="st0" d="M324,366.9c-2.9,0-3.8,0.4-5.6,2.5c0.8,1.7,1.8,3.3,3.4,4.5c1.6,1.2,3.1,2,5.3,0.8c1.6-0.9,3.7-0.2,5.5-0.8"/>
	<path class="st0" d="M364.9,233.4c4.3,1.7,8.3,4,12.4,6c0.8,0.4,1.5,0.7,2.4,0.7"/>
	<path class="st0" d="M455.9,464.3c4.2,2.2,7.9,5.2,12,7.7c1.1,0.7,2.2,1,3.4,1.4"/>
	<path class="st0" d="M332.6,318.3c-0.3,4.4-0.5,8.7-1.6,13.1c-0.8,3.3-0.8,6.9-1,10.4c-0.1,1.7-0.6,3.1-2,4.1"/>
	<path class="st0" d="M331.4,317.6c-3.1-2.2-6.1-2.2-9.1-0.3c-1.5,0.9-1.6,2.3-1.4,3.6c0.4,2.1,0.5,4.2,0.9,6.2
		c1,4.5,2.3,9,2.9,13.6c0.2,1.1,0.5,2.4,1.4,3.1c2,1.6,1.9,3.9,2.1,6c0.4,3.7,0.4,7.5,0.8,11.2c0.3,2.2-0.2,4.4,0.9,6.5"/>
	<path class="st0" d="M225,410.4c-3.5-2.9-7.1-5.8-11.2-8c-0.9-0.5-1.9-0.4-2.7-1.1"/>
	<path class="st0" d="M441,453.8c4.7,2.9,9.3,5.9,13.6,9.3"/>
	<path class="st0" d="M312.3,405.9c3.3,1.8,6.5,3.5,9.4,5.9c0.9,0.8,54.7,31,55.7,31.9"/>
	<path class="st0" d="M313.7,358.5c2.7,1.3,5.2,2.7,7.4,4.8c0.3,0.3,0.6,0.7,1,0.7c2.4,0.3,2.4,2.1,2.4,3.9"/>
	<path class="st0" d="M372.3,299.9c0.1-0.5,0.3-0.9,0.7-1.2c3.5-2.3,4.6-6.2,6.4-9.6c1.5-2.8-1.6-7.7-4.3-8.5
		c-0.4-0.1-1.2-0.4-1.5,0.4"/>
	<path class="st0" d="M337.7,286.3c-0.7,1.1-0.9,2.2-0.8,3.6c0.2,5.4,0.2,10.7-0.9,16"/>
	<path class="st0" d="M417.1,468.1c1-0.5,1.5,0.4,2.1,0.7c3.2,1.9,6.4,3.8,9.6,5.7"/>
	<path class="st0" d="M364.2,365.5c0.1,0.8,0.8,1.5,0.3,2.4c-1.2,1.9-0.2,3.3,1.2,4.5c1.8,1.7,3.5,3.3,5.3,5c0.6,0.5,1.3,1,1.2,1.9"
		/>
	<path class="st0" d="M409.9,243.7c-1.3,3.3-4,6-4.8,9.6c-0.3,1.1-1.4,1.6-2.2,1.6c-3.9,0.1-7.8,1.5-11.7,0.8
		c-0.6-0.1-0.9-0.5-1.4-0.7"/>
	<path class="st0" d="M373.1,281.2c-1.7,1.4-3.4,2.7-4.1,5c-1.2,3.8-0.4,6.5,3.2,8.9"/>
	<path class="st0" d="M126.1,409c3.5,0.8,133.1,82.6,135.9,84.8"/>
	<path class="st0" d="M289.8,263.8c-3.3-0.1-6.1,1.7-9.3,1.9"/>
	<path class="st0" d="M373.5,365c-2.5,0-5,0.3-7.4-0.5c-1-0.3-1.7,1.2-2.6,0.3"/>
	<path class="st0" d="M370.2,230c4.2,0.2,7.4,2.5,10,5.5"/>
	<path class="st0" d="M319.9,304.4c1.1,1.5,0.5,3.2,0.7,4.8c0.3,2.7,0.1,5.5,1.2,8.1"/>
	<path class="st0" d="M355.8,286.5c0.1,0.5,0.1,1.1-0.3,1.4c-2.2,2.3-3.8,5.2-6.9,6.5"/>
	<path class="st0" d="M311.8,404.9c-2.7-1.1-4.9-3.1-7.4-4.6c-0.4-0.2-0.7-0.5-1.2-0.4"/>
	<path class="st0" d="M288.6,256.8c-2.6,1-5.2,1.6-7.9,2.2"/>
	<path class="st0" d="M343.9,288.2c0,2.3-3.7,4.5-6.2,5.7"/>
	<path class="st0" d="M401.5,237.5c-1.5,2.2-2.4,4.9-4.8,6.5c-0.4,0.3-0.8,0.4-1.2,0.4"/>
	<path class="st0" d="M336.5,306.8c-0.9,1.7-0.4,3.5-0.4,5.3c0,2.1-0.2,4-1.7,5.5"/>
	<path class="st0" d="M354.4,372.2c0-1.6-0.6-2.8-2.2-3.1c-1.6-0.3-2.5,1.3-3.5,2.1c-0.9,0.7-0.7,1.8,0.2,2.6"/>
	<path class="st0" d="M255.8,431.7c2.2,1.4,40.4,25.4,42.6,26.8"/>
	<path class="st0" d="M405.4,460.7c3.4,2.2,7.2,3.8,10.3,6.5"/>
	<path class="st0" d="M332.9,177.2c-2.6,1.1-3,4-4.5,6"/>
	<path class="st0" d="M299.4,459.5c2,1.3,3.8,2.9,6,4.1"/>
	<path class="st0" d="M364,282c-0.4,2.7-2.2,4.3-4.3,5.7"/>
	<path class="st0" d="M334.8,189.1c-1.9-0.5-3.8-1.3-3.9,1.9c0,0.6-1.3,0.9-1.1,1.9"/>
	<path class="st0" d="M291.2,227.2c1.5,0.2,2.4,1.4,3.3,2.4c0.2,0.2,0.8,1.1-0.2,1.4"/>
	<path class="st0" d="M331,144.4c-1.7,0.6-1.7,2.9-3.3,3.6"/>
	<path class="st0" d="M206.5,398.2c1.4,0.9,2.7,1.8,4.1,2.6"/>
	<path class="st0" d="M411.6,251.3c-1.6,1.9-3.7,2.8-6.2,2.3"/>
	<path class="st0" d="M331.4,324.8c-1.9,0.1-2.4,1.9-3.6,2.9"/>
	<path class="st0" d="M332.6,150.4c-1.4,0.2-1.7,1.6-2.6,2.4"/>
	<path class="st0" d="M276.2,235.3c-2.7,0-5.4,1-8.1,0.2"/>
	<path class="st0" d="M397.2,426.2c1.1,0.8,2.2,1.5,3.6,1.7"/>
	<path class="st0" d="M347.5,396.1c-1.3-0.1-1.8-1.7-3.1-1.7"/>
	<path class="st0" d="M330.5,331.5c-1.2,0.1-1.8,1.3-2.9,1.7"/>
	<path class="st0" d="M391,255.9"/>
	<path class="st0" d="M310.9,207.3c1,0.1,1.9,0.2,2.9,0.2"/>
	<path class="st0" d="M225.4,410.9c1,0.6,1.9,1.3,2.9,1.9"/>
	<path class="st0" d="M403,255.2"/>
	<path class="st0" d="M392.4,252.5"/>
	<path class="st0" d="M341.5,393c0.6,0.5,1.4,0,1.9,0.5"/>
	<path class="st0" d="M336.7,390.1c0.8,0,1.1,1,1.9,1"/>
</g>
</svg>
