<?xml version="1.0" encoding="utf-8"?>
<!-- Generator: Adobe Illustrator 21.1.0, SVG Export Plug-In . SVG Version: 6.00 Build 0)  -->
<svg version="1.1" id="Calque_1" xmlns="http://www.w3.org/2000/svg" xmlns:xlink="http://www.w3.org/1999/xlink" x="0px" y="0px"
	 viewBox="0 0 623.6 737" style="enable-background:new 0 0 623.6 737;" xml:space="preserve">
<style type="text/css">
	.st0{fill:none;stroke:#000000;stroke-width:4;stroke-linecap:round;stroke-linejoin:round;stroke-miterlimit:10;}
</style>
<g>
	<path class="st0" d="M391.7,132.2c-127.2-10.4-183.1,22.6-187.6,23.6c-5.9,1.4-11.6,3.4-17,6.4c-3,1.7-6.3,3-9.5,4.4"/>
	<path class="st0" d="M564.9,264c-37.4-72.6-150.8-128-160.8-129.7c-4.1-0.7-8.2-1.3-12.3-2.1"/>
	<path class="st0" d="M177.6,166.6C44,247.3,36.8,396.7,36.8,401c0,1.5,0,3.1-0.3,4.6c-0.5,3.4,0.5,6.7,0.7,10
		c0.4,5.3,0.4,10.6,1.1,15.9c0.9,7.6,1.7,15.1,3.3,22.6c0.6,2.9,0.9,6,1.4,9c1.1,7.6,2.4,15.1,4.8,22.4c1.2,3.7,1.7,7.6,2.8,11.3
		c1.2,3.8,3.1,7.3,4.5,11c1.9,5,4.8,9.5,6.8,14.4c1.8,4.3,3.7,8.5,5.9,12.6c5.1,9.5,10.5,18.8,17.2,27.3c1.7,2.2,3.1,4.6,4.7,6.9
		c4.5,6.4,10.5,11.5,16.3,16.6c7.2,6.3,14.5,12.6,23,17.4c6,3.3,11.7,7,17.8,10.2c3.9,2,7.5,4.7,11.5,6.4c8.2,3.5,16.4,6.9,24.9,9.6
		c9.7,3,19.6,5.5,29.3,8.7c5.9,2,12.2,2.5,18.2,3.9c9.2,2,18.4,3.5,27.5,5.9c3.6,0.9,7.3,1.4,11.1,1.8c6,0.7,11.8,1.9,17.7,2.8
		c6.4,1.1,12.9,1.9,19.3,1.2c7.6-0.8,15.3-1,22.9-1.8c2.7-0.3,5.5-0.2,8.2-0.3c2.3-0.1,4.5-0.5,6.7-1.1c3-0.9,6.2-1,9.3-1.2
		c5.2-0.4,10.1-1.8,14.9-3.8c5.1-2.2,10.2-4.2,15.4-6c5.2-1.7,10.3-4,15.7-5.3c4.4-1.1,8.5-3.1,12.9-4.4c7.7-2.2,14.6-6,21.7-9.6
		c4-2.1,8.3-4.1,12.7-5.8c5.8-2.3,11-6.1,16.5-9.1c7.4-3.9,14-9,21-13.5c3.8-2.4,7.1-5.5,10.5-8.5c5.3-4.5,10.6-9,16.3-13
		c3.6-2.5,6.3-5.9,9.2-9.1c4.7-5.1,9.5-10.1,13.8-15.4c4.5-5.6,9.5-10.9,13.2-17.2c2-3.4,3.5-7.1,5.5-10.5c3.7-6.3,6.5-13,9.2-19.8
		c1.7-4.4,3.3-8.8,4.4-13.3c2.2-8.8,3.3-17.7,5.5-26.5c1.6-6.6,2.6-13.3,4.3-19.8c1.8-6.8,2.6-13.8,3.9-20.6
		c1.8-9.5,3.7-19,5.7-28.5c1.5-7,1.9-13.9,1.6-21.1c-0.3-6-1.1-11.8-1.8-17.7c-0.8-5.9-1.5-11.9-2.6-17.8c-0.7-3.5-0.7-7.2-1.2-10.8
		c-0.7-4.5-2.2-8.7-3.2-13.1c-0.5-2.5-1.1-5-1.8-7.4c-2-6.9-4.3-13.7-6.1-20.6c-1.2-4.7-2.6-9.2-3.9-13.9c-0.3-1.2-1.1-2.1-1.6-3"/>
	<path class="st0" d="M519.9,324.9c-0.5,0,0.3-4.5,0.3-5.4c0-2.3-0.4-4.6-0.3-6.9c0.2-5.7-0.8-11.4-1.9-17c-0.9-4.7-2.7-9.2-4-13.8
		c-1.2-4.3-3.7-8.2-5.5-12.4c-2.2-5-5.2-9.5-7.2-14.6c-0.5-1.2-1.3-2.3-2.5-3.1c-1.6-1-2.7-2.6-3.6-4.1c-3.9-6.8-9.5-12-15-17.4
		c-3.1-3.1-5.5-6.9-9-9.5c-3.4-2.5-5.9-6-9.5-8.3c-6.4-4.2-12.3-9.2-19-13.1c-1.4-0.8-2.9-1.6-4.4-2.2c-6.8-2.8-13.3-6-19.8-9.5
		c-4.5-2.4-9.5-4.1-14.1-6.6c-2.9-1.5-5.7-3.3-8.8-4.2c-3.8-1.1-7.7-2.6-11.8-2.4c-3.5,0.2-6.9-0.7-10.3-1.1
		c-5.8-0.7-11.7-1.2-17.5-2.1c-7.5-1.1-15-1.3-22.6-1.4c-5.2-0.1-10.3-0.2-15.4,0.3c-2.7,0.3-5.5,0.6-8.2,1.1
		c-2.3,0.5-4.8-0.2-7.2,0.3c-5.2,1-10.5,1.2-15.7,2.4c-5.5,1.2-10.6,3.7-16.1,4.9c-4.4,1-8.8,2-13.1,3.4c-3.2,1-6.3,2.6-9.5,3.6
		c-7.4,2.2-14.4,5.4-21.8,7.5c-4.6,1.4-9.3,3-13.4,5.7c-1.8,1.2-4.1,1.1-6.1,2.1c-6.9,3.2-14,5.9-20.6,9.8c-1.5,0.9-3.2,1.8-4.9,2.3
		c-1.4,0.4-2.4,1.3-3.3,2.2c-4.5,4.5-9.3,8.7-14.4,12.5c-5.9,4.4-11.7,9-15.8,15c-3.3,4.9-8.1,8.3-11.2,13.3
		c-2.3,3.6-5.3,6.6-7.9,9.8c-4.6,5.7-9.1,11.4-12.2,18.1c-1.3,2.8-3.1,5.4-4.9,8c-2,2.8-2.8,6.2-4.7,9c-1.6,2.4-2.6,5-3.7,7.5
		c-1.1,2.5-2.3,5.1-2.3,7.9c0,1.4-1,2.2-1.4,3.3c-3.5,8.8-5.2,18.1-7.4,27.3c-0.4,1.8-1,3.6-1.5,5.4"/>
	<path class="st0" d="M163,389.4c-1.1,10.2-0.8,20.4-1.7,30.6c-0.5,5.3,0.4,10.4,1.1,15.4c0.5,3.7,2.7,7.2,3.9,10.8
		c1.8,5.3,5,10.1,6.3,15.6c0.5,2.2,1.7,4.3,2.5,6.4c2.9,8.2,6.5,16.1,11.2,23.3c3.1,4.7,5,10.6,10.4,13.8c1.5,0.9,1.7,2.9,3,4.2
		c3.9,3.7,8.7,6.1,13.2,8.9c9.7,6,20.7,9.1,31.4,12.8c7.4,2.6,15.2,4.3,22.8,6.1c4.9,1.2,9.9,1.4,14.7,2.7
		c7.5,2.1,15.2,2.6,22.9,3.4c3.3,0.4,6.7,1.3,10,0.9c5.4-0.7,10.8-0.1,16.2-0.6c3.7-0.3,33.8-4.6,37-6.8"/>
	<path class="st0" d="M367.8,536.9c5.1-1.5,10.2-2.8,15.4-4c2.9-0.7,5.9-2,8.5-3.6c3.6-2.3,7.6-3.6,11.1-5.9c4.2-2.7,9.5-4,13-7.3
		c4.1-4,9.2-7,12.9-11.6c2.1-2.5,4.7-4.8,6.4-7.4c2.5-3.6,6-6.7,7.1-11.2c0.4-1.6,8.6-16.7,9.5-18"/>
	<path class="st0" d="M88.5,369.1c-0.6,5.8-1.5,11.5-2.6,17.3c-0.5,2.8-0.7,5.9-0.7,8.9c0,3.4-0.3,6.9-0.5,10.3
		c-0.3,6.2-0.1,12.4,1.6,18.5c0.9,3.2,1.9,6.5,1.4,10c-0.4,2.8,0.7,5.5,1.1,8.2c0.7,4.7,1.5,9.5,2.6,14.1c1.1,5,2.4,10,4,14.9
		c2.7,8.3,6,16.3,9.7,24.2c2.4,5.1,5.5,9.9,7.9,15.1c1.1,2.2,3,4.1,4.3,6.2c3.4,5.8,6.7,11.8,10.8,17.2c4.8,6.4,9.7,12.6,15.9,17.8
		c2.5,2.1,4.5,4.7,7.2,6.7c4.1,3,8,6.5,12.1,9.4c4.5,3.2,9.4,6,13.5,9.7c4.1,3.6,8.9,6.1,13.4,9c3.7,2.4,8.1,3.2,11.8,5.4
		c6.9,4,14.8,5.1,22.1,7.6c4.1,1.4,8.3,2.5,12.6,3.5c0.8,0.2,1.9,0.6,2.6,0.6c4.8-0.5,9.3,1,13.9,1.8c6.4,1.1,12.8,2,19.3,1.5
		c8.3-0.6,16.7,0.5,24.9-1.1c6.8-1.3,13.5-2.1,20.3-1.9c2.7,0.1,5.5,0.6,8.2,0.9c4.3,0.4,8.7,0.4,12.8-0.7
		c7.1-1.9,14.2-3.8,21.4-5.4c5.1-1.2,10.4-1.7,15.4-3.5c4.8-1.7,9.9-2.9,14.6-4.7c4.1-1.6,7.9-3.9,12.1-5.3
		c5.2-1.8,10.5-3.4,15.7-5.4c1.5-0.6,3-1.4,4.3-2.2c4.7-2.7,9.9-4.2,14.7-6.6c3.1-1.6,6.2-3.1,9.2-4.6c5.3-2.7,9.5-7.2,14.9-9.8
		c2.7-1.3,5.5-2.5,8-4.3c2.5-1.8,4.9-3.6,6.9-6c1-1.2,39-45.8,40.6-71.7"/>
	<path class="st0" d="M167.9,329c1.4-4.5,6.5-18.2,8.3-22.6c2-5,5.7-8.9,8.7-13.3c3-4.4,6.4-8.4,9.9-12.4c5.9-6.6,12-13,18.5-19
		c3.4-3.1,7.2-5.5,11-8c2.6-1.7,4.9-3.7,7.4-5.5c4-2.9,8.4-5.1,12.9-7.2c2.1-1,22-9.2,29-9.2"/>
	<path class="st0" d="M499.6,321.3"/>
	<path class="st0" d="M273.7,231.9c2.1-1.6,4.8-1.3,6.8-2.3c3-1.3,5.9-0.8,8.8-1.3c5.7-0.9,11.5-1.4,17.2-2.3c2.9-0.5,6-0.6,9-0.7
		c5.2-0.2,10-2,15.1-2.4c4.4-0.3,8.8-0.2,13.1,0.3c4.3,0.5,8.6,0.3,12.9,1.4c5.8,1.5,11.9,2,17.5,4.2c8.7,3.4,16.9,7.6,24.5,13.2
		c6.1,4.4,12,9.1,18.1,13.5c4.2,3,7.4,7.2,10.8,11c1.3,1.5,2.7,2.9,4.2,4.3c2.2,1.9,3.9,4.6,5.2,7.4c1.4,3.2,3.5,5.9,4.8,9.2
		c2.8,7.6,5.4,15.2,5.7,23.4c0.1,3.4,1.5,12.9,1.7,15.7"/>
	<path class="st0" d="M494.5,304.6c-2.9,0.5-5.8,0.2-8.7,0.2c-3.3,0-6.7,0-10,0.2c-5.7,0.3-11.3-0.2-17-0.8
		c-3.7-0.4-7.5,0.1-11.3,0.2"/>
	<path class="st0" d="M516.6,474.8c0.7-3.8,2.3-7.4,2.7-11.3c0.5-4.9,1.1-9.8,1.8-14.6c0.3-2.1-0.2-4.1,0.1-6.2
		c0.3-2.5-0.1-5,0.3-7.5c0.5-2.9-0.8-4.3-3.8-4.3"/>
	<path class="st0" d="M486.8,296.1c-5.6,0.9-11.1,0.5-16.7,0.1c-3.1-0.3-6.3-0.4-9.5-0.1c-3.7,0.3-7.4,0.1-11.1-0.7
		c-1.4-0.3-2.8-0.1-4.1,0.5"/>
	<path class="st0" d="M451.1,327c6,0.5,26.7,0.2,32.6,0.2c10.9,0,21.8,1,32.6,1.7c2.6,0.2,4.1-1.4,3.6-3.9"/>
	<path class="st0" d="M449.3,326.5c0.4,0.8,1.2,0.7,1.8,0.5"/>
	<path class="st0" d="M458.8,445.2c1.5,0.5,3.1,0.8,4.6,0.2c2.4-0.8,4.8,0.2,7.2,0.1c4.6-0.2,9.3-0.3,13.9,0c4.1,0.2,8.2,1,12.3,1.5
		c0.4,0,0.9-0.2,1.3-0.2"/>
	<path class="st0" d="M498.1,314.9c-4.8,0.3-9.6-0.3-14.4-0.8c-6.9-0.7-13.7-0.6-20.6-0.7c-5,0-9.9-0.6-14.9,0"/>
	<path class="st0" d="M496,438.5c-3.8,0.2-7.5-0.4-11.3,0.4c-2.1,0.4-4.2-0.4-6.4-0.3c-4.3,0.2-8.6,0.4-12.8,0.9
		c-1.6,0.2-3.1,0.1-4.6-0.3"/>
	<path class="st0" d="M483.7,468.3c-10.7-1.4-21.4-0.9-32.1-0.2c-0.2-1.4,0.4-4.8,1-6.2c2.2-4.7,3.3-9.8,4.9-14.7
		c0.7-2.2,1.6-4.3,2.5-6.4c0.3-0.8,0.6-1.6,0.6-2.5c0.1-2.6,1.8-4.2,4.3-4.4c6.2-0.3,46.5-2.8,52.7-3.1"/>
	<path class="st0" d="M454.2,460.1c1.7,0.7,3.4,0.1,5.1,0.2c8.1,0.6,16.3,0.7,24.4,0.6c0.9,0,1.7-0.2,2.6,0.2"/>
	<path class="st0" d="M448.4,476.6c7.1,0.2,18.5-0.1,25.6,0"/>
	<path class="st0" d="M442.1,487.1c3.1,0.7,6.2,0.2,9.3,0.4c5.5,0.3,11,0.4,16.4,0.9"/>
	<path class="st0" d="M459.5,274.6c-6.9,0.5-13.8,0.4-20.6-1.2c-1.4-0.3-3-0.1-4.4,0.7"/>
	<path class="st0" d="M464.7,285.6c-3.6,0.9-7.4,0.3-11,0.5c-4,0.3-8.1-1.3-12.1,0"/>
	<path class="st0" d="M456.7,451.6c0.6,0,1.1,0.4,1.8,0.3c5.6-0.8,11.1,0.3,16.7,0.3c5.9,0.1,11.8,0.7,17.7,0.7"/>
	<path class="st0" d="M435.9,497.4c1.4,0.8,2.7-0.1,4.1,0c4.3,0.2,8.6,0.2,12.8,0.3"/>
	<path class="st0" d="M167.9,329c-1.9,6-2.3,12.2-2.3,18.5c0,2-0.6,3.8-0.9,5.6c-0.5,3.8,0.3,7.6-0.5,11.3
		c-0.8,3.6-0.4,7.2-0.5,10.8"/>
	<path class="st0" d="M426.1,507.6c1.1,1.1,2.5,1,3.9,1c4,0,8.1,0.1,12.1-0.3"/>
	<path class="st0" d="M437.5,254.6c-3.7,0.9-13.1,0.3-16.7,0c-1-0.1-1.7,0-2.3,0.6"/>
	<path class="st0" d="M90.5,352.4c-0.6,3.9-1.4,14.9-2,18.8"/>
	<path class="st0" d="M416.6,516.1c2.3,1.7,5,0.2,7.5,0.6c1.2,0.2,2.7,0,4.1-0.1"/>
	<path class="st0" d="M163.8,375.6c-1.3,3.2-0.1,10.6-0.8,13.9"/>
</g>
<path class="st0" d="M443.8,265.3c-3.7,0.9-13.1,0.3-16.7,0"/>
</svg>
