<?xml version="1.0" encoding="utf-8"?>
<!-- Generator: Adobe Illustrator 21.1.0, SVG Export Plug-In . SVG Version: 6.00 Build 0)  -->
<svg version="1.1" id="Calque_1" xmlns="http://www.w3.org/2000/svg" xmlns:xlink="http://www.w3.org/1999/xlink" x="0px" y="0px"
	 viewBox="0 0 623.6 737" style="enable-background:new 0 0 623.6 737;" xml:space="preserve">
<style type="text/css">
	.st0{fill:none;stroke:#000000;stroke-width:4;stroke-linecap:round;stroke-linejoin:round;stroke-miterlimit:10;}
</style>
<g>
	<path class="st0" d="M338.4,307.3c-0.8-1.4-2.1-0.8-3-0.4c-5.6,2.1-11.4,3.1-17.2,4.1c-4.1,0.7-8.1,2-12.3,2.4
		c-2.1,0.2-4.2,1.2-6.2,1.9c-6.7,2.2-13.7,3.3-20.7,4.1c-5.8,0.7-11.3,2.5-16.9,3.5c-6.7,1.1-12.9,4.2-19.7,4.6
		c-4.2,0.2-7.8,2.4-11.8,2.8c-6.5,0.6-12.7,2.9-19.2,3.6c-4.7,0.5-9.3,1.9-14,2.5c-6.2,0.9-12.1,2.6-18.3,3.4
		c-3.2,0.4-6.3,1.7-9.5,2.4c-5.4,1.1-10.9,2.2-16.3,3.6c-4.2,1.1-8.5,2.3-12.8,3c-5.6,0.8-11.1,2.5-16.7,3.1
		c-3.6,0.4-6.9,1.6-10.4,2c-5,0.7-9.9,1.8-14.8,2.6c-6.2,1-12.4,1.9-18.6,2.9c-5.8,0.9-11,3.4-16.7,4.3c-6.7,1-13.2,3-19.7,4.9
		c-2.5,0.7-5,1.4-7.4,2.3c-6.4,2.5-10.4,7.4-12.4,13.7c-1.7,5.3-1.9,11,0.7,16.2c2.2,4.4,5.7,7.8,10.4,9.8c2.8,1.2,5.6,1.2,8.6,1
		c5.2-0.4,10.5,0.1,15.8-0.6c2.7-0.3,5.3-1.1,7.9-1.6c6.8-1.2,13.3-3.8,19.9-5.7c3.2-0.9,6.5-2,9.5-3.6c3.2-1.7,6.9-2.5,10.2-4
		c8-3.6,16.7-5.6,24.6-9.4c6.1-3,12.9-4.2,19.5-6.1c3.6-1,7.1-2.2,10.7-3.2c3.7-1.1,7.5-1.7,11.4-2c2.4-0.2,4.8-1.2,7.2-1.8
		c4.6-1.2,9.3-1.7,13.9-3c5.6-1.6,11.2-3.3,16.7-5.1c4-1.3,8.4-1.6,12.2-3.2c4.8-1.9,9.9-3,14.7-4.8c8.4-3.1,16.4-7.3,24.9-10.1
		c2.4-0.8,5.1-1.3,7.2-2.9c0.2-0.2,0.5-0.7,0.2-0.5c0,0-0.1-0.1-0.2-0.2"/>
	<path class="st0" d="M322.6,411c2.6,3.9,6.9,4,10.9,4.6c5.6,0.9,11.2,1.9,16.7,3.4c2.7,0.7,5.4,1.3,8.1,1.8c4.6,0.9,9.1,2.5,13.7,3
		c3,0.3,6,0.6,9,0.9c3.6,0.4,7.1,1.3,10.7,2c3.9,0.8,7.9,0.6,11.8,1.4c8.1,1.6,16.3,2.1,24.4,3.5c2.1,0.4,4.3,0.6,6.5,0.7
		c9.4,0.2,18.8,1.5,28.3,0.9c3.9-0.2,7.7-0.6,11.6-0.4c5.5,0.3,11-0.7,16.5-0.6c4.7,0.1,9.4-0.7,14.2-1.3c3-0.4,6,0.4,9,0.2
		c6.2-0.4,12.4-0.5,18.6-1c3.6-0.3,7.1-1.7,10.7-2.4c6.2-1.2,11.3-4.6,16.7-7.5c3.2-1.7,5.2-4.7,7.2-7.6c0.7-1,0.7-1.8,0-2.6
		c-2-2-4.1-3.7-6.9-4.7c-5.4-1.9-10.8-3.3-16.5-3.7c-6.2-0.4-12.4-1.5-18.6-2.7c-0.4-0.1-0.8,0-1.2,0c-2.6,0-5.3,0.1-7.9-0.7
		c-2.4-0.7-5-0.2-7.4-0.7c-2.2-0.4-4.4-1.1-6.7-1"/>
	<path class="st0" d="M511.2,360.5c-2.4,0.8-4.9,0.6-7.4,0.5c-3.5-0.2-7,0.5-10.4,0.1c-5-0.6-10.1-0.1-15.1-0.4
		c-3.4-0.2-6.7,0.7-10,1.2c-0.5,0.1-0.9,0.3-1.4,0.2c-5.3-0.5-10.5,0.4-15.8,1c-8.1,1-16.2,1.7-24.2,3.4c-5.3,1.1-10.5,2.5-15.7,4
		c-1.7,0.5-3.2,1.2-4.9,1.8c-1.1,0.4-1.7,1-1.7,2.3c0,1.2-0.7,2.2-1.8,3.1c-1.7,1.3-3.5,2.5-4.7,4.4c-1.1,1.8-0.9,3.6,0.5,5.1
		c4.8-3.7,10.4-5.4,16.2-6.5c4.3-0.8,8.6-2.1,13-2.4c6.7-0.4,13.3-1.9,19.9-2.9c4.8-0.7,9.6-1,14.4-1.6c3-0.4,6-1.1,9-1.5
		c1.6-0.2,3.3-0.1,4.9-0.2c5.6-0.6,11.1-0.4,16.7,0.3c7,0.9,14,1.6,20.9,3.5c1,0.3,2-0.7,3,0"/>
	<path class="st0" d="M573.2,484.8c1.3-2.4,0.9-5.6-1.4-7.2c-1.4-0.9-2.6-2.2-4.4-2.6c-1.9-0.5-1.3-2.5-1.5-3.7
		c-1-4.3-1.4-8.7-2.3-13c-0.3-1.7-0.2-3.4-0.8-5.1"/>
	<path class="st0" d="M444.6,495.6c-4,0.1-25.9-0.3-29.7-1.7c-3.9-1.4-8-2.2-12-3.1c-4.7-1-9.5-1.6-14.2-3c-5.4-1.7-11-2.4-16.5-3.8
		c-4.5-1.2-9-2.7-13.5-4.1c-3.3-1-6.6-1.6-10-2.3c-4.6-0.9-9-2.1-13.5-3.6c-4.1-1.4-8-2.9-11.8-4.9c-0.6-0.3-1.3-0.4-2.1-0.4
		c-4.6,0-5,1.4-4.4,6.4c0.5,4.4,3.6,6.5,7,8.6c4.4,2.7,9.4,3.8,14.4,4.8c6.2,1.3,12.5,2.4,18.6,4.2c7,2.1,14.2,3.7,21.2,5.9
		c3.3,1,6.7,1.8,10.2,2.2c5.7,0.8,11,2.9,16.7,3.7c6.7,0.9,13.2,2.5,19.9,2.8c1.2,0.1,2.5,0.3,3.7,0.7c3.5,1.1,6.9,1,10.5,0.5
		c4.8-0.7,9.7-0.5,14.6-0.7c7.4-0.4,14.9,0.3,22.3-0.3c2.9-0.2,5.9-0.5,8.8-0.7c3.1-0.1,6.2-0.4,9.3-0.1c4.8,0.3,9.5-0.8,14.2-1.6
		c3.7-0.6,7.4-2.1,11.1-2c4.1,0.1,41.5-6.3,53.8-18.2"/>
	<path class="st0" d="M554.8,484.1c-5.4,0.9-31.2,10-36.6,11.1c-5.9,1.2-11.8,2.2-17.8,2.3c-3.9,0-7.7,0.2-11.6,0.6
		c-2.7,0.3-5.4-0.5-8.1-0.6c-1.6,0-3.1,0.1-4.6,0.1c-8-0.1-15.9-0.7-23.9-1.5c-2.5-0.2-5-0.1-7.4-0.5"/>
	<path class="st0" d="M566.9,475.3c-0.6,1.3-1.7,2-3,2.6c-3.3,1.6-6.1,4-9.1,6.1"/>
	<path class="st0" d="M492.9,195c-0.6,0-1.1,0.5-1.6,0.2c-4-1.6-8.2-0.9-12.3-1.7c-3.2-0.6-6.3-0.7-9.5-0.7
		c-5.3,0.1-10.7-0.1-16,0.2c-8.1,0.5-16,2.3-23.9,4.3c-5.9,1.5-11.7,3-17.7,3.9c-5.5,0.8-10.9,2.2-16.4,2.9c-5,0.6-9.7,2.1-14.4,3.8
		c-1.2,0.5-2.5,1.1-3.5,2"/>
	<path class="st0" d="M567.8,412.5c1.3,0.4,1.9,1.6,2.3,2.7c1.3,3.1,2.5,6.3,3.5,9.5c0.7,2.3,0.9,4.8,1.2,7.2
		c0.4,2.8,0.8,5.6,1.2,8.4c0.3,2.7-1.8,7-4.2,8.1c-2.8,1.2-5.3,3.1-8.1,4.2c-0.5,0.2-0.9,0.6-1.6,0.6c-4.3-0.6-8.1,1.8-12.3,2
		c-2.6,0.1-5.3,0.4-7.9,0.4c-5.3-0.1-10.5,0.6-15.8,0.7c-2.5,0-5.1,0.2-7.7,0.3c-5.5,0.2-11-0.2-16.5-0.5c-4.1-0.3-8.2,0-12.3-0.3
		c-5.1-0.4-10.2-0.6-15.3-1.2c-4.6-0.5-9.3-1-13.9-0.4c-0.2,0-0.5,0-0.7,0c-9.5-0.4-19,0.9-28.5,0.3c-4.7-0.3-9.4-0.6-14.1-0.7
		c-4.3-0.1-8.7-0.4-13-0.6c-5.6-0.2-11.2-1-16.7-1.7c-3.1-0.4-6.4-0.7-9.5-1.2c-5.2-0.8-10.5-1.7-15.6-3.3c-6.4-2-13-3.4-19.7-4
		c-3.5-0.3-6.9-1.6-10.2-2.7c-4.7-1.5-9.4-2.9-13.9-4.9"/>
	<path class="st0" d="M501.5,229.8c4,4,2.4,8.2,0.9,12.3c-0.9,2.5-2.3,4.8-3.1,7.3c-1,3.5-1.7,7.1-2.1,10.8
		c-0.9,8.7,0.6,17.3,0.4,26c-0.1,3.3,1.5,6.5,2.5,9.7c0.5,1.6,0,2.5-1.4,2.8c-1.4,0.3-2.9,0.5-4.4,0.5c-6.1,0.3-12.1,1.4-18.1,2.4
		c-4.5,0.7-8.9,1.5-13.4,2c-4.4,0.5-8.8,0.6-13.3,1.4c-3.6,0.7-7.4,1.2-11.1,1.3c-5.2,0.1-10.3,0.7-15.3,1.9
		c-3.4,0.8-6.9,0.7-10.2,1.5c-3.8,0.9-7.5,2-11.1,3.3c-1.9,0.7-3.8,1.3-5.8,1.8c-1.6,0.4-2.9,1-3.9,2.3"/>
	<path class="st0" d="M501.5,229.8"/>
	<path class="st0" d="M476.2,224.5c0.9,0.8,15.8-1.3,25.3,5.3"/>
	<path class="st0" d="M397.5,386.7c-2.3,1.3-4.7,1.5-7.4,1.3c-4.4-0.4-8.8-0.1-13.2,0.3c-5.4,0.5-10.8,1.3-16.2,1.8
		c-5.1,0.5-10,2.1-14.8,3.8c-7,2.5-13.6,5.9-19.7,10.2c-1.7,1.2-3.3,2.9-3.5,5.3c0,0.6-0.2,1.1-0.7,1.6c-1.9,1.9-2.6,4.5-2.9,7
		c-0.4,2.5-0.9,4.9-1.3,7.4c-0.5,3.2-0.4,6.4,0.2,9.5"/>
	<path class="st0" d="M511.4,386c-2-0.4-4-0.6-6-0.5c-5.4,0.2-10.8-0.4-16.2-0.4c-3.6,0-7.1-0.3-10.7-0.2c-3.8,0.1-7.6,0.6-11.4,1.1
		c-2.5,0.4-5,0-7.4,0.4c-6.7,0.9-13.5,1.4-20.1,2.7c-8.1,1.6-16.5,2.2-24.2,5.9c-2.2,1.1-4.9,1.1-6.7,3"/>
	<path class="st0" d="M498.9,249.3c-3.3-0.6-6.6-0.5-10-0.5c-1.9,0-3.9-0.1-5.8-0.5c-2.6-0.5-5.3-0.3-7.9-0.3c-2,0-3.9-0.5-5.8-0.4
		c-4.4,0.3-8.8,0.5-13.2,1c-6.3,0.7-12.5,1.7-18.8,2.5c-4.5,0.6-8.8,1.7-13.2,2.8c-3.7,0.9-7.4,1.4-11.1,2.1
		c-3.7,0.7-7.5,1.5-11.1,2.6c-2.3,0.7-4.7,1.2-7,1.8c-2.1,0.5-4.2,1.4-6.3,2"/>
	<path class="st0" d="M496.5,176.8c1.6,2.4,3.8,10,2,12.7c-0.3,0.4-0.6,0.9-0.6,1.2c-0.3,4.1-3.4,6.1-6.3,8.1
		c-3.6,2.4-6.7,5.2-9,8.8c-1.3,2.1-3,2.8-5.6,2.9c-5.1,0.3-10.2,1.1-15.3,2.1c-4.2,0.8-8.5,1.4-12.7,2c-6.1,0.9-12.2,1.3-18.4,2.2
		c-3.2,0.4-6.5,0.4-9.7,0.9c-5.6,0.8-11,1.9-16.7,2.1c-4.9,0.2-9.7,1.1-13.9,3.9"/>
	<path class="st0" d="M382.9,280.2c-0.6-0.2-1.4-0.3-1.8-0.7c-1.8-1.7-3.3-0.6-4.6,0.5c-1.2,0.9-2.1,2.1-3.1,3c-2.8-1-3.1-0.5-4.2,2
		c-1.3,3-1.6,6.2-2.2,9.3c-0.4,2.2,0,4.5,0.7,6.5c1.9,4.9,3.8,9.9,7.3,14c2.2,2.6,5.1,4.4,7.3,7c0.6,0.6,1,1.3,1.4,2"/>
	<path class="st0" d="M500.3,298.3c1.4,1.6,1.3,3.7,1.8,5.6c1,3.6,2.7,6.8,5.2,9.5c2.3,2.5,3.7,5.4,4.6,8.6c0.6,2.1-1,4.3-3.5,4.6
		c-1.5,0.2-3,0.6-4.4,1c-4,1.1-6.5,4.2-8.3,7.6c-2.4,4.5-0.1,10.9,4.3,13.2c3.6,1.8,6.1,5,9.3,7.5c0.3,0.2,0.4,0.7,0.5,1.1
		c0.5,2,1.7,3.4,3.4,4.7c4.5,3.3,5.7,9,4.4,13.2c-0.1,0.3-0.7,0.7-0.6,0.9c1.4,4.4-2.3,6.4-4.3,9c-3.1,4.2-6.8,7.8-11.5,10.3
		c0,0,0,0.3-0.2,0.4"/>
	<path class="st0" d="M389.9,274.4c-3.6,1-5.8,3.5-7,7c-0.5,1.6-1.5,3.1-2.2,4.6c-2.3,4.7-2,9.5-0.7,14.2c0.7,2.5,2.4,4.8,3.6,7.2
		c1.9,3.5,4.2,6.8,7,9.7c0.6,0.6,1.7,0.7,1.9,1.9c0,0.4-0.2,0.8,0.2,1.2c-1.9,1.5-1.2,3.8-1.6,5.8c-0.4,2.1-1.4,3.8-2.6,5.6
		c-2,3,0,7.5,3.7,7.6c3.6,0.1,6.6,1.6,9.8,2.8c2.3,0.9,4.5,2.2,6.7,3.3"/>
	<path class="st0" d="M377.8,252.1c0.3,0,2.6,3.7,2.8,3.9c2,2.8,3.9,5.6,5.6,8.6c1.9,3.1,2.5,6.9,4.7,9.8c0.7,0.9,1.6,2.4,0.8,3.9
		c-0.2,0.3-0.1,0.4,0,0.7c1,5.1,1.8,10.2,2.5,15.3c0.3,2.3,0.1,4.5,0.4,6.7c0.5,4.2-0.8,8.2-1.4,12.3c-0.1,0.7-0.2,1.5,0.4,2.1"/>
	<path class="st0" d="M374.3,185.3c-2.5,3.4-6,11.7-5.5,15.8c0.2,1.4,1.6,2.2,2.5,3.2c2.8,3.1,5.8,6,8.1,9.5
		c0.1,0.2,0.3,0.4,0.5,0.5c4.3,2.1,6,6.8,9.8,9.5c0.1,0.1,0.2,0.1,0.2,0.2c1.2,3.4,4.8,5.4,5.4,9.3c0.2,1,1.4,1.8,1.7,2.8
		c0.7,2.4,0,3.4-2.5,4.9c-2.8,1.7-6,2.5-9.1,3.5c-2.9,1-5.3,2.8-7.4,4.9c-0.7,0.7-1.2,1.7-0.3,2.8"/>
	<path class="st0" d="M501.9,396.6c-4.6,3.7-30.6,5.9-33.9,7.3c-1.2,0.5-2.8,0.6-4.1,0.7c-3.8,0.2-7.3,1.7-11.1,1.5
		c-2.5-0.1-4.9,0.8-7.4,1.2c-6.9,1.1-13.7-0.4-20.4-1.5c-4.1-0.7-8.1-2.1-11.8-4.1c-2.8-1.5-5.6-3-7.6-5.4c-1.9-2.2-4.3-4.1-5.9-6.7
		c-0.5-0.8-0.9-1.4-0.9-2.3"/>
	<path class="st0" d="M369.2,283.2c-3.6-1.5-7.7,0.6-9.1,4.2c-1.4,3.6-2.4,7.2-2.5,11.2c-0.3,5.9,1,11.5,4,16.4
		c2.6,4.3,6.2,7.9,10.4,10.7c0.8,0.5,1.2,1.3,1.2,2.3"/>
	<path class="st0" d="M500.3,328.9c-2.6-1.1-5.1,0.1-7.6,0.4c-5,0.6-9.9,1.7-14.9,2.4c-2.7,0.4-5.3,1-7.9,1.6
		c-3.5,0.7-7.1,1.3-10.7,1.9c-9.4,1.5-18.9,3.2-28.3,4.7c-5.3,0.8-10.5,1.8-15.8,2.9c-1.2,0.2-2.2,0.7-3.5,0.8
		c-2.7,0.3-3.8,2.9-2.8,5.5c1.3,3.3,1.7,6.8,1.5,10.2c-0.1,2.5-1.6,4.5-4.1,5.6c-1.5,0.6-2.8,1.5-3.9,2.6c-1.9,1.8-1.8,3.9,2.3,5.8"
		/>
	<path class="st0" d="M391,321.9c-3.1,0-5.8,1.2-8.4,2.8c-3.6,2.1-7.4,4.4-11.6,3.6c-3.1-0.6-5.2,0.8-7.7,1.6
		c-1.2,0.4-2,0.6-3.1-0.3c-1.5-1.1-3.3-1.9-4.9-3c-1.1-0.7-2.1-1.1-3.7-0.6c-1.9,0.6-4.1,0.3-6.2,0.4c-3.8,0.2-7.4,1.7-11.1,2.3
		c-3.5,0.5-6.9,1.4-10.4,2.1c-2.8,0.5-5.8,1.4-8.6,2.1c-4.3,1.1-8.6,2.3-13,3c-2.4,0.4-4.8,1.2-7.2,1.8c-1.1,0.3-1.9,0.2-3.1-0.4
		c-1.7-0.9-3.7-1.3-5.7-1.5c-0.9-0.1-1.9,0-2.8-0.2"/>
	<path class="st0" d="M292.2,338.2c-4.1,1-8.2,2.1-12.3,3c-3,0.7-5.8,1.8-8.6,3.1c-0.5,0.2-1,0.1-1.4,0.2"/>
	<path class="st0" d="M360.2,285.5c-0.6,0-1.3-0.1-1.9,0.4c-5,4.2-9.2,9-12.8,14.4c-1.6,2.4-0.9,4.9-0.3,7.2c0.8,3.4,1.2,6.9,3,10.1
		c1.2,2.1,2.5,4,3.8,6c0.4,0.6,0.9,1.1,0.9,1.9"/>
	<path class="st0" d="M473.6,224.7c-2.8,0.3-62.1,9.3-65,9.5c-3.8,0.3-7.5,1.2-11.4,1.5"/>
	<path class="st0" d="M479.4,210.8c0,0.2,0.1,0.4,0,0.5c-2.3,3.4-2,7.5-3.4,11.2c-0.5,1.4-1.3,2.1-2.4,2.2"/>
	<path class="st0" d="M396.4,260.5"/>
	<path class="st0" d="M325.4,438.4c-1,3.4-1.4,7-2.3,10.4c-0.7,2.7-1.3,5.2-1.2,7.9c0.1,3,0.5,6,0.6,9c0.1,0.8-0.1,1.7-0.2,2.6"/>
	<path class="st0" d="M390.8,262.1"/>
	<path class="st0" d="M400.8,259.8"/>
	<path class="st0" d="M388.9,182.7"/>
	<path class="st0" d="M405.4,260.7"/>
	<path class="st0" d="M408.4,259.5"/>
	<path class="st0" d="M351.4,323.1c-0.9,0.6-1.7,0.3-2.6,0c-4-1.5-8.1-2.8-12.3-3.9"/>
	<path class="st0" d="M342.5,326.4c-2.9-2.7-6.6-3.1-10.2-3.9c-0.9-0.2-1.8-0.4-2.8-0.5"/>
	<path class="st0" d="M456.5,336.3c3.9,3.3,8.6,5.4,13,7.9"/>
	<path class="st0" d="M441.1,338.4c0.2,1,0.9,1.6,1.8,2.1c3.2,1.9,6.6,3.3,10,4.8"/>
	<path class="st0" d="M431.2,341.9c4.5,1.6,8.2,4.6,12.5,6.5"/>
	<path class="st0" d="M469,334c1.1,1.9,3,2.9,4.6,4.2c2.3,1.8,5,3,7.2,4.9"/>
	<path class="st0" d="M308.9,334.2c0.1-1.5-1-2-2.1-2.3c-3-0.9-6.1-1.8-9.3-1.9"/>
	<path class="st0" d="M412.8,343.7c0.1,2.2,2.3,2.3,3.5,3.2c2.2,1.5,4.7,2.5,7.1,3.8"/>
	<path class="st0" d="M323.1,329.8c-3.6-1.6-7.4-1.9-11.1-2.8"/>
	<path class="st0" d="M395.7,181.8"/>
	<path class="st0" d="M331.6,327.3c-3-2.5-6.6-3.5-10.4-3.5"/>
	<path class="st0" d="M446.7,338.9c3.4,1.9,6.8,3.6,10.4,4.9"/>
	<path class="st0" d="M422.4,343.5c3.4,0.7,6.4,2.1,9,4.4"/>
	<path class="st0" d="M418.6,354.2c-2.1-0.7-4-1.9-6-2.7c-0.8-0.3-1.4-1.4-2.5-0.7"/>
	<path class="st0" d="M260.9,341.2c2.6,1.4,5.7,1.4,8.4,2.6"/>
	<path class="st0" d="M484.3,331.2c2.1,2.7,4.7,4.9,7.7,6.7"/>
	<path class="st0" d="M476.2,332.6c2,2.8,5.3,4.1,7.9,6.3"/>
	<path class="st0" d="M496.5,176.8c-74.4-21.2-120.8,7.7-122.2,8.5"/>
	<path class="st0" d="M553.4,485.7"/>
	<path class="st0" d="M344.2,303.8c-2.3,0.4-3.8,2.1-5.8,3"/>
	<path class="st0" d="M425.6,233.6"/>
	<path class="st0" d="M492.4,329.8c0.3,2,2.4,2.6,3.2,4.2"/>
	<path class="st0" d="M469,225.9"/>
	<path class="st0" d="M323.8,449.8"/>
</g>
<path class="st0" d="M506.5,397.1c-2,3.2-12.3,20.2-14.5,22.1"/>
<path class="st0" d="M460,405.2c-1.1,1.1-8.8,9.8-13.7,15"/>
<path class="st0" d="M491.4,401.6c-1.4,1.3-9.1,14.9-10.6,15.9"/>
<path class="st0" d="M482.1,401.6c-1.4,1.3-12.9,14.9-14.4,15.9"/>
<path class="st0" d="M467.3,404c-2,3.2-6.6,11.7-8.9,13.5"/>
<path class="st0" d="M446.5,406.5c-2,3.2-8.8,14.9-11,16.7"/>
</svg>
