<?xml version="1.0" encoding="utf-8"?>
<!-- Generator: Adobe Illustrator 21.1.0, SVG Export Plug-In . SVG Version: 6.00 Build 0)  -->
<svg version="1.1" id="Calque_1" xmlns="http://www.w3.org/2000/svg" xmlns:xlink="http://www.w3.org/1999/xlink" x="0px" y="0px"
	 viewBox="0 0 623.6 737" style="enable-background:new 0 0 623.6 737;" xml:space="preserve">
<style type="text/css">
	.st0{fill:none;stroke:#000000;stroke-width:4;stroke-linecap:round;stroke-linejoin:round;stroke-miterlimit:10;}
</style>
<g>
	<path class="st0" d="M88.5,351.5c-6.3,0.8-16.6,1.1-22.7,3.5c-6.8,2.6-13.3,5.9-19.2,10.2c-4.6,3.4-9.3,6.8-13.2,10.9
		c-3.5,3.7-6.2,8.2-7.7,13.2c-2.1,6.7-5.9,12.9-7,19.9c-1.9,11.4-2.8,22.7-0.1,34.3c1.3,5.4,1.8,11,3.5,16.4
		c2.4,7.5,6.8,13.8,11.8,19.4c3.6,4,7.5,7.9,11.4,11.6c6.8,6.5,15,10.8,23.7,14.5c9.3,3.9,19.1,5.4,28.7,7.9
		c7.4,2,15.2,1.6,22.7,2.9c5,0.9,9.5,0.2,14-1.5c0.2-0.1,0.5,0,0.7,0c6.4,0.9,15.9-2.7,22.2-2.9"/>
	<path class="st0" d="M453.1,263.4c-43.3-61.4-97.4-73.5-99.3-74.3c-2.9-1.2-5.9-2.3-9.1-2.5c-4.7-0.3-9.2-1.7-14-1.4
		c-11.4,0.8-22.8,1.1-33.9,4.5c-5.9,1.8-11,5.2-16.4,8.1c-12.2,6.6-23.3,14.7-33.1,24.5c-2.7,2.7-5.4,5.5-7.5,8.5
		c-1.5,2.1-2.1,5.1-3.7,7.5c-1.3,2-2.3,2.3-4.6,1.5c-3-1.1-6.2-1.4-9.4-2"/>
	<path class="st0" d="M461.1,288.9c-0.6-7.4-1.2-14.8-6-20.9c-1.1-1.4-1.3-3.1-2-4.6"/>
	<path class="st0" d="M222.2,237.8c-71.2-4.1-101.1,29.8-103.8,31.8c-11.6,8.7-19.2,20.2-24.7,33.3c-2.6,6.2-3.9,12.9-6.2,19.3
		c-2.6,7.4-1.7,15.1,0.5,22.7c0.6,2,0,4.4,0.4,6.6"/>
	<path class="st0" d="M151,246.4"/>
	<path class="st0" d="M449.2,290.8c-3.5,0.5-18.5,5.4-22,5.9c-1.6,0.3-2.6,0.1-3.5-1.2c-3.3-4.7-6.9-9.2-12-11.7
		c-3.6-1.8-6.8-4.4-10.7-5.7c-2.3-0.8-4.6-2-6.3-3.9c-5.1-5.5-11.7-8-18.8-9.9c-7.7-2-15.7-3.2-23.4-5c-8.3-2-16.6-1.2-24.9-1.9
		c-10.9-0.9-21,2.7-31.1,5.7c-7.1,2.1-13.6,5.6-19.3,10.7c-3.8,3.4-8.3,6.1-12.2,9.4c-6.3,5.3-11.4,11.5-16,18.2
		c-3.9,5.6-9,10.5-11.8,16.8c-1.9,4.3-5.4,7.5-7.1,11.8c-1.5,3.7-3.1,7.3-3.8,11.2c-1,5.4-2.1,10.7-3.2,16.1c-0.2,0.7-0.7,1.4-1,2.1
		"/>
	<path class="st0" d="M418.6,321.4c-7.4-7.1-12.4-15.8-16.5-25.1c-2.2-4.9-6.5-8.2-10.8-11.2c-6-4.1-12.2-7.6-19.5-9.3
		c-4.3-1-8.7-1.8-12.9-3c-5.2-1.5-10.9-1.2-15.9-4c-2.8-1.5-6.6-0.8-10-0.2c-6.6,1.1-13.4,1-19.9,2.8c-4.3,1.2-8.6,2.6-12.9,3.8
		c-9.4,2.7-15.7,10-23.4,15.3c-7,4.8-12,11.6-17.4,17.9c-4,4.7-6.5,10.5-8.8,16.3c-3.4,8.5-5.9,17.4-8.4,26.2
		c-1,3.4-2.5,6.6-3.2,10.1c-1.1,5.8-3,14.3-3.1,20.1"/>
	<path class="st0" d="M220.5,359.1c-8.1-2.1-15.7-1.5-23.1,2.8c-15.4,8.9-27.6,21.2-36.8,36.1c-4.9,8-8.3,16.9-11.8,25.7
		c-2.2,5.5-1.6,11.7-4.4,17c-0.3,12.5-2.1,25,0.2,37.6c1.6,9,9,25.2,12.5,33.4"/>
	<path class="st0" d="M200.6,385.7c-9.8,2-27.7,19.6-28.7,22c-1.1,2.6-3.2,4.4-4.9,6.6c-4.5,5.8-6.5,12.7-8.3,19.6
		c-2,7.2-1.8,14.5-1.2,22c0.6,7.9,2.6,15.5,5.4,22.6c4.6,11.8,8.4,24,18.4,33c5.9,5.4,11.4,11.1,19,14.1c6.6,2.6,13.1,5.3,19.9,7.2
		c5.5,1.5,11.4,1,17.1,0.1c10-1.6,19.9-4,30-4.6c4.8-0.3,9.5-1.4,14.3-2c2.3-0.2,4.9-0.6,7-0.2c7,1.2,14-0.3,21,0.1
		c3.6,0.2,7.2-1.1,10.8-1.5c2.9-0.3,10.7-0.3,13.6-0.6"/>
	<path class="st0" d="M235.8,381.3c-3.9-3.2-8.8-3.5-13.2-2.8c-7.6,1.2-15.4,2.5-22,7.2"/>
	<path class="st0" d="M454.5,519.8c4.5-1.8,9.3-1.7,14-2.5c7.6-1.2,15.1-0.7,22.7-1.1c6.4-0.3,12.8-0.5,19.2-0.8
		c9.4-0.5,18.9-0.3,28.3-1.8c7.5-1.2,15.1-1.8,22.7-2.3c6.3-0.5,12.1-2.6,17-7.7c3.5-3.6,7.6-6.7,10.6-10.7
		c7.1-9.6,13.8-19.5,16.4-31.4c1.5-6.7,1.9-13.4,1.1-20.3c-0.5-4.4-0.1-8.8-0.6-13.3c-0.9-7.7-4.1-14.3-8.2-20.6
		c-3.8-5.7-8.2-10.7-14.6-13.7c-5.1-2.4-10.2-4.3-15.8-5.1c-3.3-0.5-6.4-1.7-9.8-1.9c-3.9-0.1-7.3,2-11.2,1.8
		c-1-1.2-1.2-2.5-1.1-4.2c0.2-5.4-0.9-10.8-1.3-16.1c-0.4-6.2-3.2-11.7-3.6-17.8c-0.3-3.9-2-7.9-4.6-10.7
		c-5.1-5.6-9.7-11.6-14.8-17.3c-4.1-4.6-9.7-6.8-14.9-9.5c-3.4-1.8-6-4.5-9.2-6.3c-4.6-2.6-9.3-3.7-14.4-4.5c-3.1-0.5-6.3-1-9.4-1.5
		c-7.3-1.3-14.5-1.3-21.7,0.9c-0.9,0.3-1.9,0.6-2.8,0.7c-12.3,0.7-20,8.5-26.9,17.5c-0.6,0.7-1.2,1.4-1.8,2.1"/>
	<path class="st0" d="M454.5,519.8c-8,2-18.5,1.2-26.5,3.2c-10.3,2.6-20.7,2-31.1,2.2c-9.4,0.2-18.9-0.2-28.3,0.3
		c-4.8,0.3-9.8,0-14.7-0.1c-2-0.1-4,0.2-5.9,0.3c-4.8,0.4-9.3-0.8-14-1.4"/>
	<path class="st0" d="M462.1,289.1c-4.2,1.4-8.6,1.2-12.9,1.7"/>
	<path class="st0" d="M190.8,394.4"/>
</g>
</svg>
