<?xml version="1.0" encoding="utf-8"?>
<!-- Generator: Adobe Illustrator 21.1.0, SVG Export Plug-In . SVG Version: 6.00 Build 0)  -->
<svg version="1.1" id="Calque_1" xmlns="http://www.w3.org/2000/svg" xmlns:xlink="http://www.w3.org/1999/xlink" x="0px" y="0px"
	 viewBox="0 0 623.6 737" style="enable-background:new 0 0 623.6 737;" xml:space="preserve">
<style type="text/css">
	.st0{fill:none;stroke:#020203;stroke-width:4;stroke-linecap:round;stroke-linejoin:round;stroke-miterlimit:10;}
</style>
<g>
	<path class="st0" d="M381.6,91.7c-3.8-1.9-5.7-4.7-5.9-9.2c-0.3-7.5,1.8-13.5,8.3-17.9c1.8-1.1,3.7-1.5,5.5-2.3
		c1.3-0.5,2.4,0.6,3.4,2.3c2.6,3.9,3.3,8.3,4.3,12.7c0.5,2.1,1.1,3.9,2.3,6.2c1.6-2.9,3.8-4.4,4.8-7.3c0.9-2.6,3.4-4.6,6.6-5.3
		c5.4-1.3,10.8-2.9,16-4.7c6-2.1,12.2-2.3,18.1-1c5.1,1,10.5,3.3,14.7,6.6c4.1,3.4,8.6,3.3,13,2.4c3.8-0.7,6.7,0.4,9.9,1.6
		c1.1,0.4,2.1,1,3.4,1.3c5.4,1.4,6.6,1.1,7-4.2c0.5-5.5,0.4-11.1-0.3-16.7c-1.6-11.9-8-21.1-15.2-30c-1.3-1.5-2.9-2.6-4.5-3.8
		c-9.1-6.2-17.9-12.8-29-15.5c-7-1.6-13.9-1.1-20.9-0.7c-5.8,0.4-11.5,1.8-17,3.3c-4.9,1.4-8.6,4.9-11.5,8.9
		c-1.8,2.4-3.9,4.2-5.7,6.6c-4.1,5.6-7,11.8-9.4,18.2c-1.8,4.6-5.6,7.5-8.3,11.2c-3.6,5.1-8.6,8.8-13.3,12.7
		c-0.6,0.5-1.3,0.9-2.1,0.9c-5,0.1-9,2.9-13.4,4.8c-4.4,1.9-9.2,2.4-13.7,3.9c-5.1,1.6-10.2,3.3-15.4,4.5c-2.4,0.6-4.9,2.1-6.7,3.8
		c-1.8,1.6-3.1,1-4.9,0.6c-1.9-0.5-3.4-1.8-5.4-2.1c-4.3-0.9-7.3,1.8-10.5,3.6c-4.2,2.3-7.8,5.5-10.9,9.2c-2.3,2.8-5.2,4.8-8.3,6.5
		c-9.3,5-17.1,11.4-23.4,20.1c-3.4,4.9-8.5,8.6-11.8,13.8c-1.5,2.3-2.6,4.4-2.4,7.3c0,1.6-0.9,3.3-1.4,4.9c-1.8-0.5-1.5-1.4-0.9-2.4
		"/>
	<path class="st0" d="M498.8,326.8c1.8,5.8,2.1,11.4,0.5,17.4c-1.8,7.1-3.7,14.3-5.3,21.5c-0.9,4.2-2.4,8.1-5.3,11.1
		c-2.6,2.6-2.3,5-1.3,7.6c1.9,4.8,1.8,9.6-0.1,14.4c-1.5,3.9-3.4,7.5-5.1,11.3c-6.8,15.2-15.5,29.3-24.8,43.2
		c-3.9,5.8-7,12.2-10.5,18.2c-4.3,7.5-11.3,12.7-17.7,18.5c-5.8,5.2-11.7,10.3-16.7,16.4c-5.9,7-12.2,13.8-18.1,20.9
		c-6.7,8.1-14.2,15.7-18.8,25.3c-3.1,6.3-5.5,12.8-5.9,20.1c-0.3,5.2,0.6,10.3,0,15.4c-0.5,4.4,0.7,7.8,3.1,11.3
		c2.1,3.1,3.4,6.5,4.8,9.9c0.4,1,0.5,2.3,0.2,3.8c-1.1,4.4,0,8.3,2.6,11.9c2.8,3.9,5.2,8.1,7.5,12.2c1.9,3.4,1.8,12.3-1.9,15.1
		c-2.6,2.1-4.3,2.3-6.8-0.1c-0.2-0.2-0.4-0.5-0.7-0.7c-6.5-4.9-6.2-5.2-11.7,1c-0.7-0.2-1.3-0.7-2.1-0.6
		c-11.8,0.5-19.5-6.5-27.1-14.3c-3.6-3.7-3.8-7.6-3.9-12c-0.5-11.5-5-20.4-16-25.3c-5.3-2.3-8.3-9-6.5-14.7
		c1.8-5.3,4.4-10.2,9.1-13.8c1.9-1.5,3.7-3.4,5.1-5.4c8.6-12,15.7-24.9,23.3-37.5c1.8-2.9,3.3-5.8,5.1-8.6c2.9-4.5,3.6-9.6,3.9-14.7
		c0.2-1.8,0.7-3.6,0.8-5.4c0-0.6,0.4-1.8,1.6-1.3"/>
	<path class="st0" d="M307.8,124.9c-6.8-0.7-13.3,1.3-19.4,3.6c-5.7,2.1-9.2,7-12.2,12.5c-4.8,9.1-6.1,18.2-4.5,28.5
		c2.1,12.7,5.5,25.1,11.4,36.4c4.6,8.9,8.9,18.2,16.5,25.4c1.1,1,2.3,1.8,3.8,2.4c1.5,0.6,2.9,1.5,3.4,3.4c1.3,5.1,4.9,8.8,8,12.5
		c2.6,3.1,4.7,6.7,7,10.1c1.6,2.3,3.1,4.8,5.2,6.7c7,6.5,12.8,13.8,19.5,20.5"/>
	<path class="st0" d="M218.3,318.6c6.7-2.9,13.9-3.9,21.2-3.4c2.1,0.1,4.2,0.1,6.1-0.4c3.9-1,7.5,0.5,11.3,0.8
		c9.8,0.8,19.4,2.6,28.8,6c9.7,3.7,19.5,6.8,29.4,9.9c6,1.9,12,3.8,17.4,7.3c5.9,3.9,10.9,8.8,15.8,13.9c2.9,2.9,2.3,6.8,2.9,10.3
		c2.1,10.1-1.1,19-7.3,27c-1.1,1.5-2.1,3.4-2.8,5.1c-2.8,6.8-6.7,13.2-8.8,20.2c-1.1,3.8-2.3,7.5-2.6,11.5c-0.2,2.9,1.6,3.4,2.9,4.4
		c8.9,6.5,13,16,15.5,26.1c1.8,7.8,2.9,15.5,6.3,22.9c1.3,2.6,2.4,4.9,4.9,6.5"/>
	<path class="st0" d="M161.6,440.2c-9.4,3.4-13.2,11.1-15.8,19.8c-0.3,0.9-0.8,1.8-1.3,2.8c-1.1,2.8-2.6,5.4-3.3,8.5
		c-1.3,6-5.2,10.7-7.8,16c-1.9,3.9-2.8,8.1-2.4,12.7c0.3,4.3,1.8,8.6,0.8,13c-0.5,2.3-0.1,4.9,1,7.1c3.1,6.5,2.1,12.7-1,18.8
		c-2.1,4.4-2.3,9.3-3.1,14c-1,5.1-0.4,10,0.6,15.1c0.3,1.5-0.3,3.4-0.9,5.1c-1.6,4.2-3.3,8.3-4.8,12.7c-1.8,5-5.2,9-7.5,13.7
		c-4.7,9-5.1,18.2-1.3,27.3c2.6,6.2,5,12.5,5.8,19.2c0.2,1.9-1.3,3.1-1.3,4.8c-0.5,7-3.3,13-7.1,18.9c-3.4,5.3-5.7,11.3-9.1,16.6
		c-3.9,6.5-5.9,13.7-9.6,20.1c-0.6,1.1-0.5,1.9-0.2,2.4c3.1,4.7,1.3,9.4,0.1,14.3c1.3,0.4,2.6,0.3,4.4-0.1c7.1-1.5,13.5-5.1,20.4-7
		c6.3-1.8,12.5-4.6,18.9-5.9c4.5-0.9,9.1-1.9,13.7-2.1c4.5-0.2,8.3-2.4,12.7-2.9c7.5-0.9,14.3-4.2,21.8-4.8c3.6-0.2,7-1.9,10.6-2.3
		c10.4-1,20.1-5.5,30.4-6.5c9.3-0.9,18.6-2.9,28.1-2.1c4.4,0.3,8.6-1.4,13-1c6,0.5,12,0.1,18.1,0.4c3.1,0.1,6-0.3,8.9-0.9
		c2.6-0.5,3.9-3.4,4.5-6.3"/>
	<path class="st0" d="M381.2,545.1c5.7,8.3,10.7,17,10.6,27.6c0,2.9-1.3,5.9,0,8.9c0.2,0.5,0.1,1.3,0.4,1.8
		c3.4,4.7,2.6,9.6,0.3,14.4c-1.5,3.1-1.4,5.9,0.4,8.9c4.4,7.3,7,15.7,11.7,22.9c2.3,3.4,3.9,7,6.8,9.9c1.8,1.8,2.9,4.2,3.7,6.5
		c1.5,5.2,4.8,9.2,8,13.3c3.4,4.2,5.5,8.6,4.7,14.1c-0.4,2.9,0.7,5.1,2.8,6.8c2.1,1.8,3.1,3.8,3.4,6.5c0.4,3.1,1.9,6,3.4,8.9
		c0.5,1.1,1.3,2.1,1,3.4c-1.4,1.1-3.3,0.8-4.7,0.6c-10.8-2.1-21.8-3.1-32.8-4.3c-7.5-0.8-15.3-1.1-22.9-1.8
		c-8.8-0.9-17.4-2.4-26.3-2.1c-2.9,0.1-5.9-0.2-8.9,0.1c-4.8,0.5-9.8,0.3-14.7-0.2c-7.3-0.8-14.6-1.6-21.8-1.9
		c-3.8-0.2-7.5-0.3-11.2-0.7"/>
	<path class="st0" d="M286.3,559.8c-0.1-1-1.3-2.1,0-3.1c2.1,0.1,1.4,1.8,1.3,2.8c-1,4.8-0.6,9.6-0.3,14.4c0.2,3.6,0.8,7,1.1,10.6
		c0.5,6.3,0.5,13,4.1,18.4c4.2,6.3,7,13.4,11.8,19.2c1.9,2.3,3.9,4.8,6.5,6.5c5.4,3.6,7.6,9.1,10.1,14.5c0.7,1.6,1.8,2.9,3.1,3.7
		c4.4,2.6,6.6,5.6,6.5,11.3c-0.2,4.5,1.8,9.2,3.3,13.5c1,2.9,0.1,4.6-1.5,6.5c-0.8,1-1.8,1.8-2.8,2.8c-0.3,0.3-0.9,1-1,1
		c-3.9-2.8-7,2.9-11,0.8c-1.8-0.9-3.4,1.3-5.1,2.3c-3.7,2.1-7.3,2.9-11.3,0.5c-1.3-0.7-1.3-2.3-2.6-2.6"/>
	<path class="st0" d="M243.2,422c1,2.1-0.7,3.4-1.4,4.8c-2.8,5.5-5.9,10.9-7.8,16.9c-2.9,9-4.9,18.2-3.4,27.6c0.4,2.9,0,5.7,0.4,8.6
		c1.8,12.3,4.6,24.4,8.3,36.2c2.4,7.8,3.9,16,5,24.2c0.8,7,1.8,14.2,2.4,21.2c0.8,9.6-0.2,19.2-4.4,28c-2.1,4.5-3.3,9.3-4.2,14.1
		c-0.4,2.3,0.3,5,0.4,7.5c0.2,9.2,3.4,17.4,7.6,25.3c3.3,6.1,4.9,12.7,7.5,19.2c2.1,5.2,6,9,10.2,11.7c4.7,3.1,8.3,7.3,12.7,10.5
		c4.5,3.1,8.3,7.1,13.4,9.5"/>
	<path class="st0" d="M329.2,428.9c-2.9,2.1-2.6,5.4-3.1,8.3c-1.4,6.1-2.4,12.2-3.4,18.5c-0.5,2.8-1.3,5.4-2.4,7.8
		c-3.9,7.8-6.5,16.3-10.9,23.9c-4.7,8.1-8.1,16.7-13,24.6c-6.1,9.8-8.8,20.6-9.2,32.2c-0.1,2.3,0.8,4.6-0.3,6.8"/>
	<path class="st0" d="M442,133.5c2.1,2.3,5,2.3,7.5,2.6c4.6,0.5,8.1,2.3,11.3,5.5c6.2,6.2,12,12.7,15.9,20.6
		c3.1,6.5,4.9,13.5,6.7,20.5c0.9,3.4,0.4,7.5-0.3,11.2c-0.9,4.3-0.7,8.6-1.6,13c-0.5,2.6-2.1,5-3.1,7.5c-3.6,9.1-4.9,18.8-7.8,28.1
		c-2.3,7.3-3.8,14.7-6.2,21.8c-3.1,9.1-6.5,18.1-11.5,26.3c-0.6,1-1.3,2.1-2.1,3.1c-1.5,1.5-2.1,3.4-1.5,5.1c1.3,3.9,0.5,8.1,1,11.9
		c0.4,3.6,0.7,7,0.5,10.6c-0.1,2.3-0.6,3.9-2.9,5.6c-3.6,2.6-7.3,5.4-9.5,9.7c-2.6,5-7,8.9-11,12.7c-3.8,3.7-8.1,7.3-8.6,13.2
		c0.7,0.8,1.6,0.6,2.1,0.4c3.4-1.8,7.3-1.6,10.9-2.8c3.4-1,5.1-4.2,7.8-6.1"/>
	<path class="st0" d="M448.9,298.1c-3.4,4.2-6.6,8.6-10.2,12.7c-8.1,9.6-16.2,18.8-28.1,24c-5.1,2.3-9.7,1.5-14-1.1
		c-7.8-4.8-13.5-11.7-19.5-18.4c-1.8-2.1-3.8-4.1-5.8-5.8c-4.7-3.9-8.6-8.6-13-13c-2.9-2.9-3.9-2.3-5.8,1.3c-1.8,3.4-2.1,7.3-3.6,11
		c-1.1,3.1-2.8,5.4-5.2,7.5c-3.9,3.6-7.5,7.5-11.4,11.1c-1.1,1-0.8,2.1-1.8,3.3c4.1,1,7.5,0.5,11-0.8c8-2.9,16.5-3.8,24.6-6.2
		c4.5-1.4,9.3-2.4,13.4-5"/>
	<path class="st0" d="M226.2,148.4c-1,2.8-2.6,5.4-2.3,8.6c0,0.1,0,0.2,0,0.3c0,1.8,2.6,3.8-0.6,5.6c-1.8,1-2.4,3.4-4.1,5.1
		c-7.1,6.6-12.2,14.9-18.1,22.6c-1.8,2.3-2.1,5.5-3.4,8.1c-2.6,6-6.6,11.4-8,18.1c-2.1,10.6-4.9,21.2-3.7,32.2
		c0.6,5.7,1,11.3-0.9,16.7c-2.3,6.3-4.6,12.7-9.4,17.9c-5.4,5.9-10.2,12.2-12.8,20c-1.5,4.4-4.2,8.6-6.1,13
		c-0.9,2.1-0.9,3.9-1.1,5.9c-0.8,6.2-4.5,11-7.6,16c-3.6,5.6-5.4,11.8-7.1,18.2c-0.4,1.5-1,3.1-1.8,4.5c-1.8,3.8-1.8,8-2.3,11.9
		c-0.6,3.4-0.4,7.1-1.3,10.6c-0.2,0.8,0.1,1.8,0.2,2.8c0.6,8.3,3.7,16,5.9,23.9c0.9,3.1,0.6,6.2,1.6,9.3c1.8,5.3,5.3,9.3,9.6,12.5
		c3.1,2.3,6.3,4.7,8.9,7.8c1.3,1.6,3.4,1.5,5.1,1.6c7.5,0.4,15.1-0.2,22.6-1.5c3.3-0.6,5-3.4,7.5-5.2c5.7-4.1,10.7-9.2,16.4-13.3"/>
	<path class="st0" d="M468.7,254.1c3.1,5.8,5.6,11.7,6.2,18.5c0.2,2.6,1,5.2,3.4,6.8c6.1,4.5,8.6,11,10.3,18.1
		c0.8,3.4,2.3,6.7,3.9,10c2.3,4.9,3.7,10.2,5.1,15.3c0.3,1,1.3,2.1,0.8,3.4"/>
	<path class="st0" d="M422.2,397.5c-3.4,4.4-8,7.3-12.2,10.6c-3.9,2.9-8.3,4.7-12.7,6.6c-6.6,2.9-11.9,7-16.4,12.7
		c-6.5,8.3-11.7,17.2-14.7,27.3c-1.9,6.1-3.4,12.3-4.2,18.8c-0.5,4.3-1.9,8.8-2.3,13c-0.3,3.9-1.5,8.1-0.3,12.2"/>
	<path class="st0" d="M445.5,182.6c0,0.3-0.1,0.8,0,1c3.3,3.8,0.8,7.3-0.3,10.9c-3.1,10.2-9.2,18.7-14.3,27.8
		c-2.1,3.6-3.4,7.5-5.5,11.2c-1.3,2.6-2.9,4.9-5.2,6.5c-8.1,5.1-14.3,11.8-17.7,20.9c-0.2,0.5-0.9,0.9-1.3,1.4"/>
	<path class="st0" d="M385.7,167.2c2.1,1.3,4.4,2.6,6.5,4.1c1.4,0.9,2.9,1.1,4.5,1c4.4-0.3,8.6,0.4,12.3,3.1
		c4.7,3.3,10.2,3.4,15.7,3.4c3.9,0,7.8,0.3,11.7-0.2c2.8-0.4,5.5,1,7.8,2.6c1.5,1,3.1,1.8,5.1,1.8"/>
	<path class="st0" d="M363.5,171c-0.4,7-0.8,14.1,3.9,20.2c0.7,0.8,1.3,1.5,2.1,1.9c10.6,5.3,16.9,14.3,21.6,24.9
		c2.3,5.2,3.4,10.7,5.7,15.8"/>
	<path class="st0" d="M475.9,358.9c-3.8,10.5-5.8,21.5-11.9,31.1c-2.3,3.4-5.9,4.8-8.9,7.1c-3.4,2.8-7.5,4.1-11.7,4.4
		c-2.1,0.1-3.7,1.1-5.4,1.6c-2.8,0.8-5.5,0.3-8.3,0.6c-1.3-2.1-0.4-3.8,0.8-5.5c0.7-1,2.3-1.5,2.4-3.1"/>
	<path class="st0" d="M373.4,237.3c-4.3-2.1-8.6-4.4-13-6.5c-5.2-2.4-10.7-3.1-16.4-2.1c-3.9,0.7-7.8,0.6-11.3,3.4
		c-4.1,3.3-6.5,7.5-8.1,12.3c-0.2,0.6,0.4,1.5,0.6,2.3"/>
	<path class="st0" d="M441.7,350c-2.3,6.2-1.3,13-3.9,19.2c-1.5,3.7-3.3,6.7-6.3,9.2c-3.9,3.1-7,6.8-8.3,11.9
		c-0.5,1.9,0,3.4,1.1,4.4c1.1,1,2.6,1.6,4.4,0.5c1.3-0.9,2.6-1.8,4.9-0.6c1.6,0.9,3.4-1.6,5-2.6"/>
	<path class="st0" d="M387.1,420c-2.6-1.6-4.9,0.3-7.1,0.8c-13,2.9-25.8,6.5-39.3,6.2c-3.6-0.1-7-0.2-10.6-0.3"/>
	<path class="st0" d="M380.2,95.1c-4.1,11.2-1.3,21.2,5,30.8c2.9,4.5,5.2,9.5,7.5,14.3c0.9,1.9,1.9,1.9,3.4,1.3
		c6.1-2.3,12.5-1.8,18.8-1.6c2.9,0,5.2-1.5,7.8-2.1c4.4-1,9-0.4,13.4-2.1c1.5-0.6,3.3-0.5,4.8-1.3"/>
	<path class="st0" d="M341.9,204.5c-2.6,0.5-3.9,2.6-5.8,4.1c-5.1,4.3-10.9,7-17.4,8.6c-3.7,1-7.1,2.6-10.9,1.9
		c-4.1-0.8-9,0.6-11.9-3.7"/>
	<path class="st0" d="M278.8,380.4c-8.9,12.5-18.6,24.3-29.3,35.3c-2.9,2.9-5.5,6-9.3,7.8"/>
	<path class="st0" d="M457.8,96.5c-2.3,9-4.7,18.1-7.3,27"/>
	<path class="st0" d="M209,293.6c7.3,5.9,15.6,10.2,24.3,13.5c4.9,1.8,9.6,4.1,14.3,6.2"/>
	<path class="st0" d="M485.8,368.4c-3.6,13.2-10.9,23.7-21.4,32.2c-6.5,5.2-13.9,7.8-21.6,9.8c-1.9,0.5-3.7-0.8-3.8-3.1
		c0-1.3,0.2-2.6,0.3-3.8"/>
	<path class="st0" d="M442,126.9"/>
	<path class="st0" d="M449.3,94.5"/>
	<path class="st0" d="M393.1,141.9c-2.6,1.6-5.7,2.4-8.6,3.4c-4.1,1.3-6.8,3.9-9.5,7c-0.9,1-1.3,2.9-0.3,4.4
		c0.8-0.1,1.5,0.5,2.6,0.1c4.7-1.6,9.8-0.3,14.7-0.8c4.6-0.5,9.4,1.1,14,2.4c6.5,1.8,13.3-1,15.4-6.5"/>
	<path class="st0" d="M486.8,383.5c-2.9,0.4-3.3,3.4-4.3,5.2c-3.9,7.3-11.3,10.2-17.4,14.9c-0.8,0.6-2.4,0.2-3.7-0.3"/>
	<path class="st0" d="M402,229.4c-2.4,1-3.9,3.3-5.3,5.3c-0.9,1.3-0.2,3.8,0.2,5.7c1.1,4.5,1.8,9,3.3,13.4c0.5,1.8-0.7,4.1-0.1,5.7
		c1.1,3.4-0.2,6.2-0.8,9.3"/>
	<path class="st0" d="M422.2,149.8c-0.2,0.6-0.5,1.1-0.7,1.8c-0.6-0.1-1.3-0.4-2.1-0.3c-7,0.3-14.1-1.1-21.2-0.7
		c-3.8,0.2-7.3,1-10.6,2.8c-3.9,2.1-3.9,2.4-2.4,6.5c0.5,1.4,1.1,3.1,0.5,4.8c-0.4,1.3,0.2,2.9-1.8,2.9c-1.9,0-3.8-0.6-4.7-2.3
		c-0.7-1.4-0.8-2.9,0.3-4.4c1.1-1.4,2.9-1.8,4.5-2.8"/>
	<path class="st0" d="M489.6,78.8c-2.3,4.5-3.7,9.2-3.1,14.4c0.2,2.1-0.5,3.7-2.6,4.9c-2.1,1.1-4.8,2.1-5.6,5
		c-0.3,0.9-1.4,1.8-2.6,1.8c-3.1-0.4-5.2,1.3-7.5,2.8"/>
	<path class="st0" d="M460.8,97.2c-2.3,7.5-5.1,15-7,22.6c-0.8,3.1-0.5,6.7,0.7,10"/>
	<path class="st0" d="M454.4,123.1"/>
	<path class="st0" d="M462.5,99.2"/>
	<path class="st0" d="M454.4,96.8c-2.6,7.8-5,15.5-7.5,23.3"/>
	<path class="st0" d="M451.6,96.2c-1.5,5-2.9,10-4.5,15c-0.7,2.4-0.8,5-1.4,7.5c-0.3,1.1,1.9,1.8,0.4,3.1"/>
	<path class="st0" d="M446.9,93.7c-2.3,7-4.2,14.3-5.7,21.5c-0.5,2.3-0.6,4.6-1.1,6.8"/>
	<path class="st0" d="M402.4,227c-0.1,0.6-0.5,1.3-0.3,1.8c2.6,5.6,3.3,11.9,5,17.9c0.3,1.3,1.3,1.8,1.6,2.9"/>
	<path class="st0" d="M467,357.2c-3.1,1.1-4.1,4.4-5.3,7c-2.6,5.3-5.7,9.9-10.3,13.7c-4.4,3.7-7.8,8.3-11,13.2
		c-0.2,0.3-0.4,0.8-1,0.7c-1-1.8-1-1.8,1.3-2.8"/>
	<path class="st0" d="M185.9,426.9c-5.8,4.4-11.4,9.1-16.7,14"/>
	<path class="st0" d="M218.3,422.5c-4.9,5.4-10.5,10.1-16.2,14.5c-2.6,1.9-6.2,2.6-9.8,1.8"/>
	<path class="st0" d="M427.4,99.9"/>
	<path class="st0" d="M465.3,101.6c-1.8,5.1-3.9,10.2-4.1,15.7"/>
	<path class="st0" d="M237.1,426.5c0.9-2.9,0.9-2.9,3.7-2.3c-2.3,2.9-5.7,3.1-8.5,4.7c-4.1,2.3-9.1,1.6-13,4.7
		c-1.6,1.3-4.8,2.1-7,2.1c-3.1,0-5.7,2.3-8.9,1.3"/>
	<path class="st0" d="M175.3,427.2c-4.8,3.1-9.1,6.7-13.4,10.6"/>
	<path class="st0" d="M468,103.6c-0.5,0.8-1,1.8-0.6,2.8c2.1,4.6-1.1,8.1-3.9,9.7c-4.6,2.6-5.6,6.3-6.6,10.5
		c-0.2,0.6-0.1,1.3-0.7,1.8c-2.4,1.9-3.1,4.9-4.5,7.5"/>
	<path class="st0" d="M454.7,375.7c0.4,0.2,0.4,0.6,0.3,1c-0.6,3.4-5.8,8-8.9,7.8"/>
	<path class="st0" d="M232.7,420.3c-2.6,2.6-5.2,5-7.8,7.5c-0.8,0.7-1.8,1.4-1.3,2.8"/>
	<path class="st0" d="M225.9,423.8c-1.5,2.3-3.8,3.9-5.8,5.8c-1.3,1.1-2.6,2.1-2.8,4.1"/>
	<path class="st0" d="M227.5,149.1c-1.4,3.1-0.8,6.8-2.8,9.9"/>
	<path class="st0" d="M452.9,123.4"/>
	<path class="st0" d="M423.5,93c-1.1,3.1-1.3,6.3-1.8,9.6"/>
	<path class="st0" d="M221.3,424.1c-3.4,2.4-5.8,6.1-9.2,8.6"/>
	<path class="st0" d="M188.2,432.7c-2.1,1.8-4.4,3.4-6.5,5.2c-0.8,0.7-1.9,1.3-1.8,2.8"/>
	<path class="st0" d="M426.3,95.8c-1.6,2.8-0.8,6.1-2.3,8.9"/>
	<path class="st0" d="M347.1,287.5c2.3,2.8,5.8,3.9,7.8,6.8"/>
	<path class="st0" d="M242.9,417.6c-3.1,1.3-4.8,4.5-7.8,5.8"/>
	<path class="st0" d="M441,93.7c-0.9,4.3-1.6,8.6-3.1,12.7"/>
	<path class="st0" d="M438,97.9c-1.1,3.9-2.3,7.8-3.4,11.7"/>
	<path class="st0" d="M444.8,123.1"/>
	<path class="st0" d="M430.1,98.9c2.1,1.8,0.3,3.9,0.3,5.8c0,0.9-0.6,1.8-0.9,2.8"/>
	<path class="st0" d="M434.9,95.8c-1.1,3.6-1.3,7.5-2.8,10.9"/>
	<path class="st0" d="M436.2,89c0.2,2.1-0.8,3.9-1.3,5.8"/>
	<path class="st0" d="M445.5,119.7"/>
	<path class="st0" d="M197.8,423.8c-1.3,1.8-3.7,2.1-4.8,4.1"/>
	<path class="st0" d="M430.1,84.9c-0.4,1.8-0.3,3.9-1.8,5.5"/>
	<path class="st0" d="M444.5,305.3c1.5,1.3,3.4,1,5.1,1"/>
	<path class="st0" d="M286.3,551.5c-1.1,1.6-0.7,3.4-0.3,5.1"/>
	<path class="st0" d="M287,551.5c1.1,1.6,0.7,3.4,0.3,5.1"/>
	<path class="st0" d="M421.9,88.3c6.5,2.1,11.7,6.5,17.7,9.6"/>
	<path class="st0" d="M423.5,90c-1.1,0.9,0.1,1.6,0.4,2.1c1.8,2.3,3.4,4.6,5.7,6.2"/>
	<path class="st0" d="M228.5,142.9c-2.1,1.3-2.3,1.8-0.3,3.4"/>
	<path class="st0" d="M441.3,129.3"/>
	<path class="st0" d="M432.6,94.5c-0.4,1.3-0.9,2.8-1.3,4.1"/>
	<path class="st0" d="M444.1,100.6c-1.4-0.4-2.1-2.3-3.8-2.3"/>
	<path class="st0" d="M428.1,86.2c-0.7,1.1-1,2.4-1.3,3.8"/>
	<path class="st0" d="M436.2,105.1c3.3,1.8,1.3,4.3,0.7,6.5"/>
	<path class="st0" d="M439,92.4c0,1.3-0.5,2.3-1,3.4"/>
	<path class="st0" d="M286.3,546.4c-1.4,0.5-1.3,1.3-0.7,2.3"/>
	<path class="st0" d="M427.1,90.7c-0.4,0.9-0.5,2.1-1.3,2.8"/>
	<path class="st0" d="M438,390.3c-2.1,0.7-3.9,1.8-5.5,3.4"/>
	<path class="st0" d="M243.6,419c-0.5,0.7-0.3,1.6-0.3,2.3"/>
</g>
</svg>
