<?xml version="1.0" encoding="utf-8"?>
<!-- Generator: Adobe Illustrator 21.1.0, SVG Export Plug-In . SVG Version: 6.00 Build 0)  -->
<svg version="1.1" id="Calque_1" xmlns="http://www.w3.org/2000/svg" xmlns:xlink="http://www.w3.org/1999/xlink" x="0px" y="0px"
	 viewBox="0 0 623.6 737" style="enable-background:new 0 0 623.6 737;" xml:space="preserve">
<style type="text/css">
	.st0{fill:none;stroke:#000000;stroke-width:4;stroke-linecap:round;stroke-linejoin:round;stroke-miterlimit:10;}
</style>
<g>
	<path class="st0" d="M6.7,305.4c-1.3,1.8-0.3,3.6,0.1,5.3c0.7,3.1,1.1,6.4,3.8,8.6c1.2,1,2.5,2,3.7,3.1c4.4,3.8,9.9,5.4,15.3,7.3
		c4.3,1.5,8.7,3.2,13.2,3.8c4.1,0.5,8,1.5,12,2.1c5.5,0.8,10.9,2.2,16.3,3.1c4.9,0.8,9.6,2,14.4,3c3.4,0.7,6.7,1.8,10,2.9
		c5.3,1.8,10.9,2.3,16.3,3.1c5.2,0.8,10.2,2.4,15.3,3.5c5.8,1.2,11.5,2.8,17.3,4c3.3,0.6,6.5,1.9,9.8,2.6c5.5,1.2,10.6,3.1,15.9,4.9
		c6.9,2.3,13.7,4.8,20.3,7.6c3.5,1.5,6.8,3.5,10.4,5.1c8,3.5,16,7.2,24,10.6c4.8,2.1,9.1,5.2,13.9,7.4c7.3,3.5,14.1,7.9,21,11.9
		c3,1.7,5.7,4.1,8.9,5.3c2.9,1.1,4.2,3.5,5.7,5.9c2.5,4,5.7,7.4,9.2,10.6c2.2,2,4.3,4.2,6.4,6.2c3.3,3.2,7.3,5.5,11.1,8.1
		c1.8,1.2,3.7,2.2,5.4,3.6c1.3,1.1,3,1.7,4.8,2.2c2.6,0.7,5,2,7.4,3.3c3.1,1.7,6.3,3.1,9.7,4c2.1,0.5,4.1,1.4,6.1,2.2
		c0.3,0.1,0.4,0.4,0.4,0.6"/>
	<path class="st0" d="M30.9,312.9c4.8-1,9.4,0.2,14.1,0.9c2.1,0.3,4.1,1,6.1,1.1c2.1,0.1,4.2,0.7,6.3,0.5c3.4-0.2,6.7,0.7,10,1.3
		c2.9,0.5,5.9,0.9,8.8,1.6c0.6,0.2,1.4,0.1,1.8,0.7"/>
	<path class="st0" d="M168,174.3c-0.2,0-0.4-0.1-0.6,0c-3.9,1.8-8.2,2-12.1,4c-2.3,1.2-5,2-7.5,3c-4.6,1.9-9,4.2-13.3,6.7
		c-5.9,3.4-11.5,7.5-17.5,10.8c-2.7,1.5-4.8,4-7.2,6c-6.6,5.5-13.6,10.5-20,16.2c-5.9,5.2-11.8,10.6-18.5,14.9
		c-5.5,3.5-10.2,8-15.2,12.1c-2.2,1.7-5,2.5-7.3,4.1c-3.9,2.8-8.2,4.9-12.3,7.3c-7.9,4.6-14.9,10.3-21.3,16.8
		c-3.5,3.6-6.9,7.6-9.2,12.2c-1.3,2.5-1.8,5.5-0.8,8.3c0.5,1.4,0,2.7,0.1,4.1c0.2,3.1,1.9,4.9,4.4,6.3c2.3,1.3,18.8,4.8,21.2,5.9"/>
	<path class="st0" d="M354.1,185.5c-1.9-1.5-4.2-1.9-6.3-2.5c-5.2-1.7-10.3-3.5-15.6-4.8c-4.6-1.1-9.2-2.1-13.9-2.6
		c-4.9-0.5-9.8-0.5-14.7-1.5c-1.3-0.3-2.7,0.4-4.1,0.4c-6.9-0.2-13.9,0.4-20.8,0.9c-2.4,0.2-4.8,0.1-7.1-0.1
		c-5.4-0.3-10.9,0.8-16.3,0.1c-5.2-0.6-10.5-0.5-15.7-0.6c-6.3-0.1-12.5-0.2-18.7-1.2c-3.2-0.5-6.4-0.5-9.6-0.9
		c-7.1-0.8-14.3,0.2-21.4-0.2c-4.6-0.2-9.2,0.1-13.9-0.1c-2.4-0.1-4.8,0.6-7.1,1.2"/>
	<path class="st0" d="M555.8,397.2c2.5-1.1,4.9-0.3,7.3,0.4c4.8,1.4,9.7,2.7,14.4,4.3c4.5,1.5,9,3.1,13.6,4.1c1.5,0.3,3,1.2,4.3,2
		c2.5,1.6,3.1,4.5,3.6,7.1c0.6,3,2.1,5.4,4.2,7.3c1.3,1.1,2,2.4,2.5,3.9c0.2,0.5,0.3,0.8,0.6,1.2c1.1,1.5,0.8,2.3-1,3.2
		c-3.9,2-8,3-12.2,4.1c-3.8,1-7.6,1.1-11.4,0.7c-7.1-0.7-14.3-0.8-21.4-2.2c-3.4-0.7-6.8-1.8-10.2-2.3c-3.1-0.5-6-1.4-9.2-1.5
		c-2,0-4-0.6-6.1-0.4c-1.6,0.1-3.1,0.4-4.5,1.3c-0.3,0.2-0.4,0.5-0.8,0.4c-2.6-0.3-4.3,1.2-6.1,2.6c-1.3,1-2.7,2.1-4.7,1.9
		c-0.7-0.1-1.5,0.5-2.2,1c-2.3,1.5-4.6,2.8-7.3,3.5c-4.1,1-7.2,4.1-11,5.6c-6.8,2.7-12.7,7.1-19.5,9.8c-6.9,2.7-14,4.8-21.2,6.4
		c-4.1,0.9-8,2.5-12.2,2.9c-5.2,0.4-10.2,2.1-15.5,2.3c-4.1,0.2-8.3,0.4-12.4,0.3c-3.2-0.1-6.5,0.3-9.8,0.3
		c-3.5-0.1-6.9-0.2-10.4-0.6c-3.9-0.5-8-0.4-12,0.1c-2.9,0.4-6,0.1-8.9-0.2c-2-0.2-4.1,0.2-6.1-0.5c-0.7-0.2-1.2,0.4-1.8,0.6"/>
	<path class="st0" d="M399.9,307.4c-2,2.3-4.4,4.2-6.7,6.1c-5.8,4.7-11.6,9.6-17.5,14.2c-4.4,3.4-9.1,6.5-13.6,9.8
		c-3.3,2.4-6.5,4.9-9.8,7.3c-4.9,3.7-9.7,7.6-14.9,11c-5.4,3.6-10.1,8.1-15.3,12c-4.2,3.1-8.1,6.7-12.2,9.9
		c-6.7,5.2-12.9,11.1-19.5,16.4c-3.9,3.2-7.8,6.4-11.5,9.9c-2.3,2.1-4.7,4.1-7.1,6.1c-0.5,0.4-0.5,0.9-0.8,1.3"/>
	<path class="st0" d="M498.2,374c6-0.8,11.5,0.7,16.7,3.7c0.3,0.2,0.5,0.5,0.8,0.6c5.5,1.8,7.8,6.4,8.4,11.4
		c0.7,5.6,0.2,11.5-4,15.8c-3,3.1-7,5-11.3,6.3c-5.2,1.4-10.4,1.8-15.7,1.9c-4.6,0.1-9.4-0.1-13.8-1.1c-6.2-1.4-12.4-3.3-17.2-8.2
		c-4.3-4.5-4.6-9.5-3-14.9c0.5-1.8,1.6-3.4,2.2-5.1c1.2-3.1,3.8-4.8,6.9-5.7c0.9-0.3,1.9-0.4,2.6-1c2.9-2.2,6.4-2.4,9.8-3
		c1.8-0.3,3.4-1.1,5.3-1.3c0.7-0.1,1.7-0.3,2.5-0.2c1.9,0.3,3.8,0.1,5.7,0.2c1.7,0.1,3.1,0,4.6,1.7c2.3,2.7,5.6,4.5,8.8,6.2
		c1,0.6,2,1.2,3.1,1.8"/>
	<path class="st0" d="M455.7,313.8c1.9,0.3,3.6-0.5,5.3-1.1c1.3-0.4,2.5-0.9,3.9-0.8c1.3,0.1,1.2-1.4,2.2-1.9c2.7-1.6,4.9-4,6.5-6.7
		c1.5-2.4,2.6-4.9,3.7-7.5c1.7-4.1,2.8-8.4,3.1-12.8c0.3-4.7,0-9.4-0.6-14c-0.6-4.4-2.4-8.5-4.9-12.2c-3.2-4.9-7.6-8.8-12.5-11.9
		c-4.2-2.7-9.2-3.4-14-4.4c-2.1-0.4-4.2-0.8-6.3-0.9c-4.8-0.3-9.7-0.5-14.5,1.1c-1.5,0.5-3,0.6-4.5,1c-0.3,0.1-0.7-0.1-1,0
		c-4.8,2.5-10.3,3.5-15,6c-4.2,2.2-8.2,5.6-9.5,10.3c-1.2,4.7-3.3,9.2-3.7,14.2c-0.2,2.4-0.9,4.8-1,7.3c-0.1,1.7,0.4,3.4,0.5,5.1
		c0.1,1.3,0.4,2.5-0.2,3.7"/>
	<path class="st0" d="M577.7,567.7c-3.4-1.1-7-1.7-10.3-3c-5.5-2.3-10.7-5-15.1-9.2c-2.8-2.6-4.8-5.9-7.5-8.6
		c-0.5-0.5-0.9-0.9-1-1.6c-0.6-3.2-2.3-6-3.5-8.9c-2.4-6-2.1-11.7,0.1-17.6c1.1-3,2.5-5.8,4.9-7.9c2.3-2,4.9-3.8,7.5-5.3
		c1.3-0.7,3.1-0.7,4.6-0.7c2.3,0,4.6-0.3,6.7-1.1c2-0.7,3.7,0.2,5.5,0.8c7.2,2.8,14.4,5.4,21.2,9.1c4.5,2.5,8.2,5.6,11,10
		c1.3,2,2.2,4.3,3.1,6.4c1.2,2.8,2.9,5.5,3.3,8.7c0.1,0.7,0.4,1.6,0.3,2.2c-0.6,2.8,0,5.7-0.8,8.6c-1.2,4.4-3.2,8.3-6.3,11.6
		c-1.3,1.3-2.5,2.6-4,3.7c-2,1.4-4.3,1.7-6.5,2.2c-3.3,0.8-6.6,1.2-10,1.4c-1,0.1-1.9,0-2.6-0.8"/>
	<path class="st0" d="M354.8,186.1c-0.2,0.2,1,0.5-0.1,0.6c-1.8,0.3-3.5,0.1-5.3-0.4c-1.7-0.5-3.3-1.4-5.1-1.2
		c-2.2,0.2-4.5-1-6.5-0.1c-3.7,1.6-7.9,1.6-11.2,3.8c-4.1,2.7-8.8,4.3-12.8,7.1c-2.7,1.9-5.6,3.6-8.1,5.7c-3.5,3.1-6.7,6.5-9.6,10.1
		c-1.6,2-3,4.3-4.7,6.3c-2.7,3.2-4.3,7-5.9,10.8c-1.1,2.5-2.2,5.1-3.5,7.5c-1,1.8-1.3,3.8-1.8,5.7c-0.7,2.4-1.6,4.8-2.6,7.1
		c-1.8,4.2-2.5,8.7-3.1,13.1c-1.3,8.9-4.2,17.2-6.4,25.9c-1.5,5.9-3,11.8-4.8,17.7c-2.1,7.1-3,14.5-5.2,21.6c-0.9,2.8-0.9,6-1.3,8.9
		c-0.5,3.5-1.5,7-1.8,10.6c0,0.4-0.4,0.8-0.6,1.2"/>
	<path class="st0" d="M346.1,511.3c-0.8,0.9-2.1,0.8-3.1,1.2c-4.4,1.9-7,5.5-9.7,9.3c-2.2,3.3-2.5,6.5-2.2,10.3
		c0.3,4.7,2.1,8.6,5.2,12c1.9,2.2,3.9,4.4,6.1,6.3c1.8,1.5,4.2,2.1,6.5,2.7c3.8,1,7.5,2.2,11.4,2.8c5.7,0.9,11.4,0.9,17.1,0.2
		c3.3-0.4,6.3-2,9.3-3.3c1.4-0.6,2.9-1.4,4.3-2"/>
	<path class="st0" d="M380.5,489.9c-1.1-2.3-0.9-4.8-1.8-7.1c-1.1-2.9-2.5-5.6-4.5-7.9c-2-2.3-3.7-4.9-5.7-7.2
		c-1.3-1.5-3-2.5-4.7-2.9c-5-1.1-10-2.3-14.9-3.9c-1.4-0.5-2.9-0.4-4.3-0.7c-2.1-0.5-4.4-0.8-6.3-2c-2.5-1.6-5.1-0.2-7.5,0.1
		c-5.1,0.7-9.7,3.1-14.2,5.5c-2.7,1.5-4.9,4-7,6.4c-1.3,1.5-3,2.8-3.2,5.3c-0.3,3.8-1.1,7.7,0.1,11.4c1.6,4.9,4.8,8.8,9.2,11.6
		c2.9,1.9,5.8,3.9,8.7,5.8c2.4,1.6,5.1,2.2,7.7,3.1c4.7,1.6,9.6,2.5,14.5,3.2c2.2,0.3,4.7-0.4,7.1-0.5c1.6,0,3.3-0.2,4.9-0.4
		c1.4-0.2,2.8-0.7,4.1-1.1c3.6-1.1,6.2-3.6,9.3-5.4"/>
	<path class="st0" d="M455.7,313.8c-14.9,4.1-27.8,2.9-33.2,1.8c-1.5-0.3-2.8-1.1-4.3-1.6c-3.6-1.2-7.1-2.8-10.4-4.7
		c-3.7-2.2-6.4-5.6-8.8-9.1c-0.9-1.4-2-2.6-3-3.9c-1-1.2-1.6-2.6-1.9-4.2c-0.6-3.8-3.8-5.6-6.2-8c-1.9-2-4.2-3.7-6.5-5.3
		c-3.7-2.7-8-4.1-12.4-5.3c-2.8-0.7-5.4-2.4-8.3-2.5c-4.4-0.1-8.8-1.5-13.2-1.2c-1,0.1-2,0.1-2.8-0.6c-0.3-0.3-0.6-0.2-0.8-0.2
		c-4,0.9-8.2,0.4-11.9,3c-4.9,3.4-9,7.3-10.7,13.1c-1,3.5-1.4,7.1,0.8,10.4"/>
	<path class="st0" d="M455.2,313.7"/>
	<path class="st0" d="M355.3,186.9c4.1,0.9,8.2,2.1,12,4c4.2,2.1,8.2,4.6,11.9,7.4c3.2,2.4,5.5,5.6,7.2,9.3c2,4.4,4.3,8.6,6,13.1
		c1.4,3.6,2.9,7.1,3.6,11c0.2,1.3,0.7,2.6,1.2,3.9c1.1,3.2,0.8,6.5,0.6,9.8c-0.1,1.1-0.7,1.8-1.5,2.4c-2.3,1.7-4.6,3.1-7.5,3.8
		c-4.7,1.2-9.5,2.3-13.9,4.5c-4.9,2.5-10.3,3.7-15.5,5.3c-2,0.6-4.1,1.2-5.9,2.4c-2.7,1.9-5.9,3-8.8,4.7"/>
	<path class="st0" d="M428.2,526.1c0.5-1,1.4-1.4,2.4-1.7c1.5-0.4,2.9-1.2,3.9-2.6c2.7-3.6,4.7-7.3,4.8-12c0-2.8,0-5.5-0.6-8.1
		c-0.4-1.8-1.2-3.4-2.4-4.9c-3.4-4.5-7.5-7.9-12.9-9.8c-3.4-1.1-6.8-2.4-10.2-3.1c-3.6-0.8-7.4-1-11.2,0.2c-3.1,1-6.3,1.7-9.5,1.7
		c-0.6,0-1.1,0.3-1.6,0.6"/>
	<path class="st0" d="M465.8,311.7c0.4,0.4,0.8,0.6,1.4,0.6c3.8-0.2,7.6,0.7,11.4,1.1c1.1,0.1,1.9-0.5,2.9-0.3
		c4.8,0.6,9.6,0.9,14.5,1.6c6.4,0.9,12.3,3.3,18.3,5.2c3.9,1.2,7.4,3.3,10.6,5.9c3.1,2.4,6.3,4.8,9.5,7c4.7,3.3,8.7,7.3,12.7,11.4
		c5.4,5.5,9.1,12.2,11.6,19.5c0.9,2.5,1.4,5.1,1.1,7.9c-0.3,2.6-0.5,5.3-0.4,7.9c0.1,2.5-0.9,5-1.3,7.5c-0.5,3.1-1.2,6.1-3.1,8.8
		c-0.1,0.2,0,0.5,0,0.8"/>
	<path class="st0" d="M321.7,296c-1.8,0.7-2.9,2.7-4.7,3.2c-3.7,1.1-6.1,3.9-8.9,6.2c-1.5,1.3-2.7,3-4.2,4.4c-4.2,4-7.5,8.7-11,13.2
		c-2,2.6-5.1,4.3-7.9,6.1c-5.1,3.4-9.8,7.4-15,10.6c-3.5,2.2-7,4.5-10.4,6.9c-1.3,0.9-2.4,2.3-4.3,2.6c0.9,1,0.9,2.1,1.2,3.2
		c0.6,2.9,1.6,5.7,2.2,8.6c0.6,2.9,0.9,5.9,1.4,8.8c0.7,3.9,0.9,8,2.8,11.6c1.2,2.3,1.4,5,2.2,7.5c1.5,4.3,2,8.9,3.3,13.2
		c0.8,2.7,2.3,5.2,3.1,7.9"/>
	<path class="st0" d="M351,233.9c-1.8,0.7-3.5-0.2-5.3-0.3c-6-0.3-12.1-0.3-18.1-0.1c-2.8,0.1-5.6,0.1-8.4,0.3
		c-6.6,0.4-13.2,0.9-19.7,1.4c-1,0.1-2,0.5-3.1,0.8"/>
	<path class="st0" d="M345.7,245.7c-1-0.5-2,0-3.1,0c-4.7,0-9.4-0.3-14,0.1c-9.6,0.7-19.1,0.6-28.7,1c-2.2,0.1-4.5-0.2-6.7,0.2"/>
	<path class="st0" d="M335.9,259.6c-6.6,0.6-13.3,0.1-19.9,0.5c-5,0.3-10.1,0.9-15.1,1.4c-5.1,0.6-10.1,1.5-15.1,2.6"/>
	<path class="st0" d="M354.7,222.5c-1.2-1.1-2.9-1-4.3-1.2c-7.6-0.8-15.3-1.1-23-0.6c-5,0.3-10,0.9-15.1,1.3c-1.7,0.1-3.5-0.3-5.3,0
		"/>
	<path class="st0" d="M457.9,550.6c-6.9-22.1-32.5-24.1-35.2-23.9c-2,0.1-3.9,0.3-5.9,0.7c-2.7,0.4-5.3-0.7-7.9-0.8
		c-3.5-0.2-7-0.7-10.4-1.4c-1.3-0.3-2.3-0.4-3.5-1.2c-2-1.3-3.9-2.7-6.1-3.7c-1-0.5-2.2-1-2.6-2.4c-0.4-1.3-1.8-1-2.9-1"/>
	<path class="st0" d="M397,525.5c0.2,1.3,1,2.4,1.5,3.7c1.3,3.9,0,7.5-0.7,11.2c-0.6,3-2,5.7-4.3,7.9c-0.8,0.7-2.1,1.3-2.1,2.3
		c0,1.2,0,2.6,0.6,3.6c2.4,4,4.5,8,9.2,10.4c3.6,1.8,7.3,3.4,10.9,5.1c2.3,1.1,4.9,0.9,7.3,1.7c3.2,1,6.6,1.2,9.8,1.1
		c4.9-0.2,27.3,3.7,28.7-21.8"/>
	<path class="st0" d="M322,295.9c3.2,5.8,7.2,11.2,13,14.7c2.4,1.5,4.7,3.3,7.5,3.9c4.3,1,20.2,5.3,24.4,4.1"/>
	<path class="st0" d="M255.1,349c-1.9-1.6-4.3-1.4-6.5-2c-4.7-1.3-9.7-1.2-14.4-2.5c-2.5-0.7-4.9-1.6-7.5-1.4
		c-1.6,0.1-3.3,0.1-4.9,0.1c-2.3-0.1-4.6-0.4-6.7-1.1c-1.1-0.4-2.2-0.5-3.3-0.3c-2,0.2-4,0.2-5.9-0.6c-2.7-1.1-5.6-1-8.4-1.4
		c-3.6-0.5-7.1-1.3-10.6-2.1"/>
	<path class="st0" d="M351.4,206.5c-1.1,0.4-2.2-0.1-3.3-0.2c-4.8-0.6-9.6-0.5-14.5-0.2c-5,0.3-9.9,0.7-14.9,0.8
		c-2.5,0-4.9,0.3-7.3,0.8"/>
	<path class="st0" d="M314.8,274.7c-6.4,0.9-12.9,1.5-19.4,2.4c-3.5,0.5-7,1-10.6,1.3c-1.7,0.1-3.4-0.5-5.1,0"/>
	<path class="st0" d="M555.8,397.8c0-0.4-0.1-0.7-0.5-1.1c-0.8,0.2-1.4,0.9-1.7,1.5c-2.9,5.5-7.4,9.7-11,14.7
		c-4.3,5.9-9.4,11.1-14.3,16.5c-0.3,0.4-0.6,0.7-0.6,1.2"/>
	<path class="st0" d="M205.8,341c-0.6,0.1-110.9-19.8-111.6-19.9c-3.9-0.4-7.7-1.6-11.6-2.1c-1.4-0.2-2.7-0.3-4.1,0"/>
	<path class="st0" d="M293.6,292.8c-5.5-0.3-10.7,1.2-15.9,2.6"/>
	<path class="st0" d="M390.5,486.6c-0.5-0.6-1.3-0.2-1.8,0c-2.6,1.1-5.1,2.3-7.7,3.2c-1.4,0.5-1.3,1.6-0.2,2.6"/>
	<path class="st0" d="M396,296.9c-1.2,1.1-0.6,2.6-0.8,3.9c-0.6,4.5-2.3,8-6.6,10c-2.4,1.2-4.7,2.7-7.2,3.8c-1.4,0.6-2.1,2-3.4,2.7
		c-3.3,1.9-6.9,1.5-10.4,1.1"/>
	<path class="st0" d="M461.4,385.8c4.2,4.2,9.1,7.6,13.6,11.4"/>
	<path class="st0" d="M313.3,466.5c4.2,1.8,11.8,5.8,15.7,8.2c0.3,0.2,0.8,0.4,0.6,1"/>
	<path class="st0" d="M362.6,509.2c1.8,1.1,3.9,0.7,5.9,1c2.1,0.2,4.1,0.7,6.1,1.4c3.9,1.3,6.5,4,9.3,6.6c0.7,0.7,1.5,1.1,2.4,0.6"
		/>
	<path class="st0" d="M571.5,551.2c0.2,0.3,7.7,14.8,7.7,15"/>
	<path class="st0" d="M486,373.8c1.5,1.8,3.7,2.6,5.5,3.9c2.5,1.8,5.4,3,7.1,5.7"/>
	<path class="st0" d="M467.5,381.6c4.3,2.8,8.6,5.6,12.8,8.3"/>
	<path class="st0" d="M476.2,377.3c4.3,2.2,8.3,5,12.4,7.5"/>
	<path class="st0" d="M321.5,461.2c3.8,1.2,10.8,5.3,14.1,7.6c0.5,0.3,1,0.8,1.6,0.8"/>
	<path class="st0" d="M317.4,480.2c-1.3-1.5-3.3-1.6-4.9-2.5c-1.4-0.7-2.9-1.5-4.1-2.6"/>
	<path class="st0" d="M338.4,543.4c2.9,0.8,5.6,2,8.5,2.7"/>
	<path class="st0" d="M334.3,534.3c3.3,0.9,18.6,3.1,21.5,4.9"/>
	<path class="st0" d="M333.4,521.8c2.6,1.2,15.7,5.5,18,7.6"/>
	<path class="st0" d="M513.7,377.5c0.1,0.6-0.3,1.2,0.4,1.6c2.1,1.2,3.8,3,5.9,4.3c0.7,0.5,1,0,1.5-0.1"/>
	<path class="st0" d="M589.1,548.3c2.8,2.6,7.1,12.1,9.9,14.7"/>
	<path class="st0" d="M339.1,516.7c1.3,1.2,16.8,2.3,18.6,2.8"/>
	<path class="st0" d="M379.9,492.5c-1,1.2-2,2.5-2.4,4.1c-0.3,1-1.2,1.5-1.8,2.2c-0.1,0.1-0.3,0.3-0.4,0.4c-3.2,2.7-3.4,4.1-1.2,7.5
		c1,1.5,2.4,2.9,2.2,4.9"/>
	<path class="st0" d="M389.9,251.7c2.2,2.3,4.1,4.9,7.1,6.3"/>
	<path class="st0" d="M372,296.9c1.1,1.3,13.4,12.8,14.7,13.8"/>
	<path class="st0" d="M189.3,364.5"/>
	<path class="st0" d="M578.2,567"/>
	<path class="st0" d="M534.9,333.5"/>
	<path class="st0" d="M465,312.3"/>
	<path class="st0" d="M440.8,317.8"/>
</g>
<path class="st0" d="M374.1,500.7c1.3,1.2,16.8,2.3,18.6,2.8"/>
<path class="st0" d="M379.9,492.5c1.3,1.2,16.8,2.3,18.6,2.8"/>
<path class="st0" d="M394.3,486.1c1.3,1.2,16.8,2.3,18.6,2.8"/>
<path class="st0" d="M393.5,548.3c1.3,1.2,16.8,2.3,18.6,2.8"/>
<path class="st0" d="M398.5,537.8c1.3,1.2,16.8,2.3,18.6,2.8"/>
<path class="st0" d="M400.8,530.7c1.3,1.2,28,0.9,29.8,1.4"/>
<path class="st0" d="M558,546.8c0.2,0.3,7.7,14.8,7.7,15"/>
<path class="st0" d="M599,536.2c0.2,0.3,7.7,14.8,7.7,15"/>
<path class="st0" d="M354.6,303.8c1.1,1.3,13.4,12.8,14.7,13.8"/>
<path class="st0" d="M333.9,300.5c1.1,1.3,13.4,12.8,14.7,13.8"/>
</svg>
