<?xml version="1.0" encoding="utf-8"?>
<!-- Generator: Adobe Illustrator 21.1.0, SVG Export Plug-In . SVG Version: 6.00 Build 0)  -->
<svg version="1.1" id="Calque_1" xmlns="http://www.w3.org/2000/svg" xmlns:xlink="http://www.w3.org/1999/xlink" x="0px" y="0px"
	 viewBox="0 0 623.6 737" style="enable-background:new 0 0 623.6 737;" xml:space="preserve">
<style type="text/css">
	.st0{fill:none;stroke:#000000;stroke-width:4;stroke-linecap:round;stroke-linejoin:round;stroke-miterlimit:10;}
</style>
<g>
	<path class="st0" d="M436.8,260.8c-0.9-2.1-0.5-4.3-0.5-6.5c-0.2-8.2-0.4-16.5,1-24.5c1.5-8.3,0.7-16.7,1.8-24.9
		c0.8-5.6-1.8-9-6.2-11.6c-15.2-9.3-30.7-18.1-46.9-25.4c-7.6-3.4-14.5-7.8-21.9-11.3c-6.8-3.2-12.8-8.1-20.3-10.2
		c-0.9-0.2-1.8-0.6-2.6-0.5c-6.5,0.9-13.1,1.5-19.7,2.3c-8.3,1-16.6,2.3-24.9,3.5c-11.7,1.8-23.2,4.5-34.6,7.6
		c-6.8,1.9-13.9,2.7-20.6,4.7c-9.4,2.8-19.2,3.9-28.8,6.3c-3.2,0.8-6.7-0.2-10,0.7c-4.7,1.3-9.5,2.6-14.2,3.9
		c-1.7,0.5-2.8,1.4-2.9,3.2"/>
	<path class="st0" d="M605.7,374.5c-4.6,2.2-117.9,56-122.7,57.6c-4.2,1.4-8.1,3.6-12,5.7c-7.8,4.2-16,7.7-23.6,12.2
		c-1.6,0.9-3.2,1.8-4.8,2.6c-11.5,6.2-23,12.3-34.6,18.4c-5.4,2.9-10.4,6.2-15.8,9.2c-8.6,4.7-17.6,8.8-26.3,13.3
		c-10.7,5.5-21.5,11-32.3,16.6c-6.2,3.2-12.8,5.8-19,9.2c-3.9,2.1-7.7,4.4-11.7,6.3c-6.5,3.1-13.2,6-20,8.6
		c-5,1.9-10.1,3.9-14.9,6.3c-1.3,0.6-2.7,1.2-4.2,1"/>
	<path class="st0" d="M605.7,374.5"/>
	<path class="st0" d="M435.5,196.5c-2.8,1.8-6,1.3-9,1.6c-8.8,0.6-17.2,3.2-25.8,4.3c-5.7,0.7-11.5,1.1-17.1,2.4
		c-5.3,1.2-10.7,0.5-15.9,2.1c-1.4,0.4-2.8-0.3-4.2-0.3c-8.3-0.2-16.6,0.6-24.9,0.8c-9.4,0.2-18.7,2-28.1,2.9
		c-7.6,0.8-14.9,3-22.6,3.1c-2.1,0-4.2,0.9-6.1,1.9c-2.1,1.2-4,2-6.2,0c-0.4-0.4-1.4-0.6-2.2-0.7"/>
	<path class="st0" d="M163.9,531.5c0.1-4.2,3.2-6.8,5.2-10c8.3-13.2,17-26.1,23.7-40.3c4-8.5,8.6-16.7,13.2-24.9
		c2.9-5.2,4.5-10.8,5.8-16.5c0.8-3.9,1.8-7.9,1.6-12c-0.1-3.8-1.2-5.7-4.9-6.7c-4.6-1.3-9.4-2.1-14.2-2c-1.6,0-2.9,0.8-3.8,1.7
		c-5.8,6-12.1,11.7-15.7,19.4c-1.9,4.1-3.6,8.7-3.7,13.5"/>
	<path class="st0" d="M260.8,377.1c-4.6-4.9-9.5-9.4-15.5-12.6c-5-2.6-9.3-6.1-13.3-10c-3.2-3.2-7.1-5.7-11-8.1
		c-5.2-3.3-9.3-7.8-14.2-11.4c-7.1-5.2-14.6-9.9-21.7-15.1c-1.6-1.2-3.2-2.5-4.7-3.7c-1.9-1.6-3.4-1.3-5.6-1c-9,1.1-17,5.4-25.5,7.8
		c-4.8,1.4-9.8,2.2-14.5,4.2c-5.1,2.2-10.6,3.2-15.8,5.3c-4.6,1.9-9.3,3.2-14.2,3.5c-4.4,0.3-8.5,1.9-12.9,2.4
		c-5.5,0.6-11,2-16.5,2.8c-7.2,1.1-14.2,3.3-21.3,4.8c-5.9,1.3-11.7,3.3-17.5,5.1c-0.9,0.3-1.6,0.7-2.2,1.3"/>
	<path class="st0" d="M598.2,299.9c-4.6,1.9-9.5,2.8-14.4,3.4c-4.3,0.5-8.5,1.8-12.6,3c-3.6,1.1-7.3,1.6-11,2.1
		c-7.3,1-14.5,2.7-21.6,4.6c-11.4,3-22.9,5.8-34.2,9.2c-6.8,2.1-13.6,3.8-20.4,5.7c-13.1,3.7-26.1,7.7-39.1,11.5
		c-1.7,0.5-3.4,0.9-5.2,1.3c-3.5,1-4.2,0.4-4.2-3.2c0-7.4-0.2-14.9,0.3-22.3c0.7-9.9-0.4-19.8-0.3-29.7c0.1-7.2,0.4-14.4,0.6-21.6
		c0-1,0.5-1.7,0.7-2.6"/>
	<path class="st0" d="M264.6,377.7c-1.8-0.7-3.3-0.4-5.2,0.2c-7.6,2.5-15.5,4.2-23.2,6.4c-6.1,1.7-12.5,2.7-18.5,5
		c-10.1,3.8-20.5,6.3-31,8.9c-9.3,2.3-18.7,4.6-27.8,7.6c-4.5,1.5-9.4,1-13.9,2.6c-1.8,0.6-6.1,3.3-8,3.8"/>
	<path class="st0" d="M137.4,434.4c-1.7,7.3-2.3,29.6-2.3,37c0,6.4-0.8,12.7-0.5,19.1c0.2,6,0,12.1,0.2,18.1c0.1,4.1,0,8.2-0.3,12.3
		c-0.1,1.6,0.1,3,0.3,4.5c0.4,4.8,0.1,9.7-0.5,14.5c-0.3,2.2-0.2,4.5,0,6.8c0.7,7.8,1.4,15.7,1.3,23.6c-0.1,5.3,0.3,10.6,0.6,15.8
		c0.1,1.3-0.8,2.3-0.7,3.6"/>
	<path class="st0" d="M124.4,403.6c2.4,4.6,6,26,7.4,30.8"/>
	<path class="st0" d="M137.3,437.2c0.3-6-0.1-12.1,0.4-18.1c0.1-0.9,0.2-1.7,0.6-2.6c0.7-1.5,0.6-2.7-1.1-4.3
		c-6.4-5.9-14.3-9.2-21.8-13.4c-6.3-3.5-12.6-7.1-19-10.4c-8.6-4.4-16.8-9.7-25.3-14.3c-7.9-4.2-15.7-8.9-23.8-12.8
		c-3.3-1.6-6.3-4-9.7-5.5c-1-0.5-2-1.1-3.2-1"/>
	<path class="st0" d="M35.1,534.7c0.4-1.3,1.1-1.1,2.1-0.7c4.4,1.7,8.3,4.2,12.3,6.8c11.3,7.4,22.6,15,34.3,21.9
		c5.6,3.3,11.2,6.6,16.5,10.3c4.4,3,9.4,5.2,14.4,7.3c5.4,2.2,10.5,5,15.5,8c1.9,1.1,4.1,1.2,5.9,2.5c0.8,0.6,1.8-0.1,2.5-0.6
		c7.8-5,16-9.1,24.6-12.5c11-4.5,22.2-8.7,33.6-11.9c8.6-2.4,25.3-9.3,33.9-11.4"/>
	<path class="st0" d="M264.4,457.2c-0.8-6.9,0.4-35.8-0.1-42.6c-0.7-10.4,0.3-20.7,0.5-31c0.1-4.6,0.8-9.3,1.6-13.9
		c0.6-3.2-0.4-6.2,0.1-9.4c0.3-2.1,0.5-4.3,0.5-6.4c-0.1-9.6-0.1-19.2,0-28.7c0.1-9.4,0.7-18.7,0.6-28.1
		c-0.2-13.2,0.7-26.3,2.1-39.4c0.7-6.6,0.9-13.1,1.3-19.7c0.3-5,1.5-9.9,1.5-14.9c0-2.4,0.1-4.8,0.6-7.1c0.2-1.1,0.1-2.2-1.3-2.6
		c-6-1.8-11.1-5.7-16.8-8c-3.2-1.3-6.6-2.3-10-2.9c-3.2-0.6-6-2.2-8.6-3.5c-4.9-2.5-10.3-4.2-14.9-7.3c-6.3-4.2-13.4-6.4-20.4-9.1
		c-5.5-2.1-11.2-1.9-16.8-2.5c-1.5-0.2,0,0-1.9,1.6c0.7,2.8-0.5,5.4-0.8,8.1c-0.3,2.5-0.1,5,0.1,7.4c0.3,4.1-0.5,8.2-0.5,12.3
		c-0.1,6.9,0.1,13.8-0.2,20.7c-0.5,12.6-1,25.2-1.2,37.8c-0.1,4.7,0.3,9.5-0.5,14.2c-1.6,9.5-0.8,19.3-3.2,28.7
		c-0.4,1.5,0.5,2.4,0.7,3.6"/>
	<path class="st0" d="M361.5,277.9c0.7,4.7-0.2,9.5-0.7,14.2c-0.5,5.5-0.9,11-1.5,16.5c-1.9,18-2.5,36.1-2.5,54.3
		c0,5.4,0.5,10.8-0.4,16.2"/>
	<path class="st0" d="M517.9,245.6c-2.6-0.9-8.5-3.5-11-2.8c-6.8,2-13.6,3.7-20.4,5.5c-9.5,2.4-18.7,6.2-28.4,7.9
		c-6.8,1.2-13.4,2.9-20,4.6"/>
	<path class="st0" d="M360.6,275.6c-4.5,1.5-5.7,5.7-7.4,9.4c-4.7,10.4-7,21.8-12.4,31.9c-3.8,7.2-7,14.7-12.2,21
		c-0.5,0.7-0.7,1.2-0.6,2"/>
	<path class="st0" d="M181.7,197.2c1.7,5.6,10.6,22.2,13,27.4c5.3,11.6,10,23.4,13.8,35.6c0.5,1.6,1.1,3.2,1.6,4.8"/>
	<path class="st0" d="M33.9,352.8c-0.7,3.8,0.4,7.5-0.1,11.3c-0.6,4.5,0.6,9,0.6,13.6c0,1.2,0.3,2.6,0.2,3.9
		c-0.3,3.6-0.1,7.1,0.2,10.7c0.7,7.8-0.3,15.7-0.9,23.6c-0.3,3.8-0.7,7.6-0.8,11.3c0,4.9-0.6,9.7-0.9,14.5c-0.4,7-0.3,14-1,21
		c-0.4,4,0.2,8.2,0.1,12.3c-0.1,6.1,0.3,12.3,0.5,18.4c0.3,8.7-0.4,17.5,0.9,26.2c0.5,3.3,0.9,6.8,0.8,10.3c0,1.5-0.1,3.1,1.6,3.9"
		/>
	<path class="st0" d="M195.9,183.1c1.6,6.2,11.4,30.2,13.9,36.1c2.9,7,6.5,13.8,8.6,21c1.1,3.6,1.6,7.3,3.4,10.6"/>
	<path class="st0" d="M515.3,337.3"/>
	<path class="st0" d="M528.2,356.7"/>
	<path class="st0" d="M34.6,381.6c1.9,5.9,9.5,24.1,11.9,29.8c2.9,6.9,5.8,13.9,8.4,21c1.7,4.5,4.1,8.5,6.5,12.6"/>
	<path class="st0" d="M527.6,359.8c3.2,0,7.9,0.1,11,1c5.6,1.6,8.2,5.7,9.2,10.8c0.6,2.7-0.7,5.5-2.5,7.7
		c-6.9,8.7-16.1,11.4-26.8,10c-2.9-0.4-5.8-0.8-8.7-1.1"/>
	<path class="st0" d="M52.1,363.7c5.5,13.2,11.7,39.3,18,52.2c1.3,2.7,1.6,5.8,2.7,8.7"/>
	<path class="st0" d="M237,515.4c-9.5,2.1-45,10.5-54.4,13.1c-6,1.7-12,3.9-18.4,3.3"/>
	<path class="st0" d="M436.5,341.5c-1.7,2.6-0.5,5.5-0.5,8.1c0,6.9,0.4,13.8,0.1,20.7c-0.5,12,0.5,23.9-0.7,35.8
		c-0.9,9.5,0.2,19-0.5,28.4c-0.2,3.2-0.1,6.5-0.6,9.7c-0.1,0.3-0.1,0.7,0,1c1.8,3.2,0.7,6.7,1.6,10"/>
	<path class="st0" d="M76.5,377.1c1.6,5.3,6.3,16.2,9,20.9c3.7,6.3,5.6,13.1,8.2,19.8c1.7,4.2,2.9,8.6,5.8,12.3"/>
	<path class="st0" d="M517.9,245.6c5.3,3.1,10.5,6.5,15,10.5c4.2,3.6,9,6,13.4,9.2c4.5,3.3,8.8,6.9,13.6,9.6
		c10.3,5.7,19.8,12.6,30,18.4c3.9,2.2,7,5.3,10.6,7.8c1.2,0.8,1.1,2,1.3,3.2c1.2,9.7,1.7,19.4,3.4,29.1c1,5.4,0.6,11,1.1,16.4
		c0.8,8.2-0.2,16.4-0.7,24.6"/>
	<path class="st0" d="M221.4,191.6c1.1,7.2,6.4,19.3,9.1,25.9c2.6,6.3,6.1,12.3,7.3,19.1c0.2,0.9,0.8,1.7,1.3,2.6"/>
	<path class="st0" d="M536.9,260.1c-2,2.2-0.5,4.4,0.1,6.4c1.7,6.2,2.7,12.4,2.9,18.8c0.1,5.6,1.4,11,2.6,16.5"/>
	<path class="st0" d="M262.4,543.7c-5.6,2.1-11.1,4.3-16.8,6.2c-4.9,1.6-10.1,2.5-14.9,4.5"/>
	<path class="st0" d="M519.2,255.3c0.9,4.2,1.7,8.4,2.6,12.6c1.8,9.3,3.6,18.5,5.5,27.8c0.2,1.2,0.8,2.4,1.3,3.6"/>
	<path class="st0" d="M243.3,202.6c-0.5,0.9-3.5-1.2-2.6,0c3.9,5.4,7.6,14.6,10,20.7c2.4,6.1,5.1,12.1,7.1,18.4"/>
	<path class="st0" d="M492,255.3c0.3,4,1.6,7.8,2.5,11.6c1.2,4.8,2.5,9.6,3.3,14.5c0.6,3.3,0.9,6.7,2.5,9.7"/>
	<path class="st0" d="M391.6,373.7c-9.1-0.3-18,1.3-26.8,3.5c-4.8,1.2-9.8,2.4-14.4,4.4"/>
	<path class="st0" d="M102,391.3c3.8,11.9,12.4,37,18.3,48.1"/>
	<path class="st0" d="M32.3,441.7c4.5,8.9,19.7,37.6,25.3,45.9c0.8,1.2,1.5,2.4,2.3,3.6"/>
	<path class="st0" d="M264.4,457.2c0.1,5.4-0.8,10.8-1,16.2c-0.1,2-0.2,4.1,0,6.1c0.5,5,0.4,9.9-0.7,14.9c-0.3,1.5,0.6,3,0.6,4.5
		c-0.1,7.7,1.2,15.3,0.9,22.9c-0.2,6.5-0.6,12.9-0.7,19.4"/>
	<path class="st0" d="M349.3,382.2c-8.8,4.5-17.6,9-27.4,11.7c-0.1-2,0-3.1,1.6-3.3"/>
	<path class="st0" d="M504,244.3c0.1,3.3,1.5,6.2,2.3,9.4c1.3,5.3,2.7,10.5,3.8,15.8c1,4.6,2.5,8.9,3.4,13.5
		c0.3,1.3,0.2,2.6,0.5,3.9"/>
	<path class="st0" d="M553.1,271.4c-1.6,2.2-0.3,4.5,0.1,6.4c1.5,6.6,2.5,13.3,3.4,20.1c0,0.2-0.4,0.4-0.3,0.6"/>
	<path class="st0" d="M570.9,286.3c1.8,3.1,1.9,6.3,1.3,9.7c-0.4,2-0.6,4,0.6,5.8"/>
	<path class="st0" d="M258.9,207.2c1.5,3.7,5.8,14.1,7.3,17.8"/>
	<path class="st0" d="M175.5,311.8"/>
</g>
<path class="st0" d="M535.3,359.8c21.1-8.6,7.3-26.1,7.3-26.1c-14-17.9-24.7-3.5-27.2-0.4"/>
</svg>
