<?xml version="1.0" encoding="utf-8"?>
<!-- Generator: Adobe Illustrator 21.1.0, SVG Export Plug-In . SVG Version: 6.00 Build 0)  -->
<svg version="1.1" id="Calque_1" xmlns="http://www.w3.org/2000/svg" xmlns:xlink="http://www.w3.org/1999/xlink" x="0px" y="0px"
	 viewBox="0 0 623.6 737" style="enable-background:new 0 0 623.6 737;" xml:space="preserve">
<style type="text/css">
	.st0{fill:none;stroke:#020203;stroke-width:4;stroke-linecap:round;stroke-linejoin:round;stroke-miterlimit:10;}
</style>
<g>
	<path class="st0" d="M374.8,249.7c-2.4-9.5-4.4-19-7.7-28.2c-2.5-7-5.3-13.9-7.5-20.9c-1.9-6.2-3.3-12.5-5-18.8
		c-2.8-10.4-5.7-20.7-7.3-31.4c-0.5-3.7-2.4-7-2.9-10.7c-0.5-4-1.2-8-2.4-11.8c-0.3-1,0.4-1.7,0.9-2.1c2.8-2.6,5-5.9,8.2-8.1
		c3.6-2.6,7.6-1.9,10,1.9c1.6,2.4,2.6,5,3.5,7.8c1.8,5.7,4.7,11,6.7,16.7c1.7,4.9,3.5,9.8,4.8,14.8c0.8,3.1,2.4,5.8,3.1,8.8
		c2.2,9.5,6.3,18.5,9.7,27.6c4.3,11.7,7.8,23.6,12.3,35.2c1.6,4.3,3.5,8.4,5.4,12.6c0.5,1.2,0.9,2.3,0.8,3.5"/>
	<path class="st0" d="M152.3,256.1c-1-4-2.5-7.8-4.3-11.6c-2.1-4.3-2.7-9-4.2-13.4c-3.8-10.7-7.1-21.7-10.9-32.4
		c-2.4-6.9-5.4-13.5-7.7-20.4c-2.9-8.7-6.1-17.3-9.5-25.7c-1.9-4.8-3.5-9.8-6.3-14.3c-0.8-1.3-1.6-2.5-2.8-3.4
		c-2.2-1.8-4.7-1.6-5.8,0.5c-2.3,4.3-5.5,8.2-5.4,13.4c0.1,3.9,0.5,7.7,0.9,11.5c0.4,4.2,0.9,8.4,1.5,12.6c0.3,2,0.7,4,1.4,5.9
		c1.1,3,1.8,6,2.3,9.2c1,6.4,3.2,12.6,3.9,19.1c0.7,6.9,2.1,13.7,3.7,20.4c1.5,6.6,3.1,13.3,4.7,19.9c1.1,4.6,3.4,8.8,4.4,13.4"/>
	<path class="st0" d="M431.7,365.9c-4.8-0.3-9.6-0.4-14.5,0.2c-3.7,0.5-7.5,0.3-11.3,0.6c-4.5,0.4-9.2,0.1-13.7,0.7
		c-5.4,0.7-10.8,0.6-16.1,1.1c-6.4,0.6-12.9,1.1-19.3,2c-4.7,0.7-9.5,1.1-14.2,1.8c-7.2,1-14.5,1.6-21.8,1.7
		c-5.2,0-10.4,1.1-15.6-0.2c-0.4-0.1-0.9,0-1.3,0c-8.1,0-16.1-0.2-24.2,0.1c-3.5,0.1-7,0.7-10.5,1.2c-3.5,0.6-7.1,1.1-10.7,0.9
		c-7.3-0.4-14.6,0.6-21.7,2c-4.4,0.9-6,0.7-6.1-4.8c-0.1-2.3-1.2-4.4-1.4-6.7c-0.7-6.5-3.5-12.5-5.3-18.8c-1-3.6-2-7.3-2.9-11
		c-0.6-2.2-1.7-4.1-2.5-6.1c-2.7-7.2-5.5-14.4-9.3-21.2c-4.4-7.9-9.4-15.4-15.6-22c-3.2-3.4-5.8-7.2-9.4-10.2
		c-5.3-4.5-11-8.2-17.2-11.3c-2-1-4.2-2-5.4-4.3"/>
	<path class="st0" d="M590.6,568.8c2-3.1,0.2-6-0.6-8.8c-2.6-8.5-7-16.1-12.5-23.2c-3.5-4.5-6.7-9.4-10.6-13.6
		c-4.6-4.8-8.8-10-13.6-14.5c-3.8-3.6-7.5-7.4-11.3-11c-4.7-4.6-9.1-9.5-13.6-14.3c-3.3-3.6-7.2-6.1-10.9-8.9
		c-3.4-2.6-6.8-5.1-10.1-7.9c-3.3-2.8-6.9-4.9-11.3-5.6"/>
	<path class="st0" d="M582.3,383.1c2.3-0.3-13.8-67.8-14.5-69.5c-1.5-3.5-3.3-6.9-5.1-10.2c-3.2-5.8-6.5-11.5-9.4-17.4
		c-3.9-7.8-8.6-15.2-14.4-21.8c-2.6-2.9-4.9-6-7.3-9.1c-3.9-5.1-9.5-6.5-15.3-7.4c-1.3-0.2-2.8,0.2-4,0.6
		c-5.6,1.6-11.3-0.1-16.9,0.7c-0.3,0-128.6,3.2-129,3"/>
	<path class="st0" d="M480.5,341.5c-0.3-0.2-0.3-0.5-0.3-0.8c0.6-7.5-1-14.9-1.9-22.3c-1.4-11.6-5-22.5-9.3-33.3
		c-4.1-10.4-10.6-19-17.4-27.5c-2-2.5-4.8-4.3-6.1-7.3"/>
	<path class="st0" d="M366.3,251.8"/>
	<path class="st0" d="M51.1,272.2c1.4-4.4,5.2-5.8,9.1-7c6.4-2,12.9-2.4,19.6-2.3C84.9,263,90,263,95.1,263c5.6,0,11.1-0.4,16.6-1.1
		c6.8-0.9,13.6-0.9,20.4-0.6c7.3,0.4,14.5-0.9,21.7-1.2c1.1,0,2,0.4,3,0.8c1.8,0.6,3.8,1.2,5.6-0.2c1-0.7,2.2-0.8,3.5-0.8
		c5.5-0.3,10.9-1.2,16.4-1.5c5.4-0.3,10.7-1.2,16.1-1.1c3.5,0.1,7.2-0.6,10.7-0.6c11.2-0.1,22.4-1,33.6-1.6c2.4-0.1,4.8,0,7.2,0
		c8.1,0,16.1-0.9,24.2-1.2c6-0.3,12-0.8,18-1.1c8.1-0.4,16.3-0.5,24.4-0.6c3.9,0,7.9,0.1,11.8,0.3c4.7,0.2,33.3-0.4,38-0.6"/>
	<path class="st0" d="M164.9,525.1c-2.6-0.6-7.7-0.6-9.9-2.2c-1.2-0.9-2.6-0.3-3.8-1c-6.3-3.4-13.1-5.8-19.7-8.7
		c-5.4-2.5-11-4.5-16.2-7.3c-7.9-4.2-16.5-6.1-25-8.2c-3.7-0.9-7.3-2.4-11-3.3c-6.4-1.5-12.5-4.1-18.5-6.8s-12.4-4.6-17-9.8
		c-2-2.4-3.3-4.9-3.5-8.1c-0.3-4-1.1-7.9-1.5-11.8c-0.2-1.4-1.4-162.8,0-164.3"/>
	<path class="st0" d="M590.6,569.9c-3.5,0.7-123.4,9.5-127,9.1c-2.2-0.2-4.4,0.1-6.4,0.6c-3.7,1-7.3,1-11,1
		c-5.9-0.1-11.4,2-17.2,2.4c-8.5,0.6-16.9,2.1-25.5,2.7c-8.5,0.6-17.1,1.7-25.6,3.6c-4.3,0.9-8.9,1.2-13.4,1.8
		c-1.4,0.2-2.7,0.5-4,0.8c-5,1.1-10,1.1-15,1.6c-2,0.2-4,0.6-5.9,1.4c-4,1.6-8.2,2.1-12.4,2.9c-1.8,0.3-3.4,1.2-5.1,1.7
		c-2.6,0.9-5.4,0.5-8.1,1.5c-1.5,0.6-3.3-0.3-4.2-1.8c-2-3.1-3.9-6.3-5.9-9.4c-1-1.5-0.9-3.4-1.6-5.1c-3.9-9.9-8.9-19.4-13-29.2
		c-0.7-1.6-1.6-3.1-2.4-4.6c-3.7-6.9-7-14.1-11.2-20.7c-4.2-6.6-8.1-13.5-13.4-19.4c-1.7-1.9-3.7-3.8-4.1-6.6"/>
	<path class="st0" d="M111.7,141.2c1-0.8,2.1-1.4,3.5-1.7c5.2-1.1,10.4-0.8,15.6-1.2c4.7-0.4,9.3-0.2,14-0.5c3.9-0.2,7.9,0,11.8-0.1
		c8.1-0.3,16.1-0.9,24.2-1.5c6.1-0.4,12.2-0.6,18.2-1.2c8.6-0.9,17.2-0.9,25.8-2.1c1.7-0.2,3.4,0,5.1,0c3.3,0,6.6-1.2,9.9-0.8
		c0.8,0.1,1.9-0.3,2,1.1"/>
	<path class="st0" d="M536.8,492.5c3.3,0.5,13.8-0.8,17-0.9c5.3-0.1,9.9-2.6,14.8-4c3.6-1.1,6-3.6,6.6-7c0.9-5.3,2.2-10.5,3-15.8
		c0.6-4.5,1.9-9.1,3.6-13.4"/>
	<path class="st0" d="M243.3,477.3c11.6-0.7,134.4-11.8,146-12.3c5.8-0.2,11.6-0.2,17.4-0.3c6.1-0.2,12.2-1.1,18.3-1.8
		c2.1-0.2,69.9-7.7,72.1-7.3"/>
	<path class="st0" d="M241.9,132.4c5.3-0.3,10.6-0.6,15.8-0.3c5.4,0.3,10.7,0.3,16.1,0.4c6.3,0.1,12.5-1.3,18.8-1.4
		c5.1-0.1,10.2-0.8,15.3-1.9c4.5-1,9.1-0.7,13.7-0.6c5.4,0.2,10.8-0.1,16.1-1c1.4-0.2,2.7,0.3,4.1-0.1"/>
	<path class="st0" d="M527,480.8c2.7-2.1,1.2-4.9,0.9-7.2c-0.5-4.7-0.6-9.3-1.2-14c-0.6-4.4-4.2-9.5-10.5-6.6
		c-2.9,1.3-5.9,1.7-8.9,2c-1.7,0.2-3.4,0.6-5.1,0.6c-1.7,0-3.4,0-5.2,0c-0.3,1.9,0,4.1-1.7,5.5"/>
	<path class="st0" d="M36.3,408.5"/>
	<path class="st0" d="M31.5,362.8"/>
	<path class="st0" d="M122.5,280.6c-0.2,1.6-1.7,0.8-2.4,1c-3.6,0.9-5.7,3-6.2,6.5c-0.3,2.4,0.9,4.1,3.2,4.6c2.2,0.4,6.3-1.2,7.5-3
		c2-2.9,1.3-5.7-2.1-8.3"/>
	<path class="st0" d="M237.6,519.7c2,1.7,4.4,2,7,1.9c5.6-0.1,11.3-0.2,16.9-0.5c1.7-0.1,3.4,0.2,5.1,0.2"/>
	<path class="st0" d="M292.4,499.6c-8.3,2-16.8,1.8-25.2,2.9c-2.5,0.3-5.1,0.2-7.5,1.1c-1.7,0.6-3,0-4.3-0.8c-3.3-2.1-5.9-5.1-9.4-7
		c-2.7-1.4-5.4-2.7-8.6-3c-2.8-0.3-3.4-0.4-3.4-3.7c0-2.1-0.8-4.3,0.8-6.2c1.2-1.4,2.4-2.8,3.5-4.3c1.2-1.5,3.2-1.3,5-1.4"/>
	<path class="st0" d="M326.5,470.9"/>
	<path class="st0" d="M164.9,525.1c2.1,0.3,4.3,0.3,6.4,0.4c7.5,0.3,15-0.7,22.6-0.6c8.1,0.1,16.3,0.6,24.4-0.4
		c4.3-0.5,8.6-1.6,12.9-2.7c2.1-0.5,4.7,0.8,6.1-2.2c-0.6-5.3-1.6-10.9-2.2-16.5c-0.3-2.4-0.5-4.9-0.9-7.3c-0.2-1.2-0.2-2.4,0.5-3.5
		"/>
	<path class="st0" d="M581.8,451.3c0.1-0.7,1.4-67.6,0.5-68.2"/>
	<path class="st0" d="M301.8,581.2c2.1-1.4,4.7-1.1,7-1.5c4.5-0.8,8.9-1.7,13.4-2.6c2.9-0.6,5.8-0.3,8.6-1.2
		c2.6-0.8,5.4-0.3,8.1-1.3"/>
	<path class="st0" d="M432,365.9c7.2-0.2,14.3-1.9,21.5-1.8c6.4,0.1,12.9,0.6,19.3,1c4.6,0.3,8.2-3.5,7.2-8.3
		c-1-4.9,0.4-9.7,0.4-14.5"/>
	<path class="st0" d="M155,522.9c0.2-5.6,2.8-18,2.7-23.6c-0.1-7.7,1.3-15.4,0.8-23.1c-0.1-1,0.5-2.2,0.7-3.2
		c1.6-8.6,2.8-17.2,1.9-26l0.3-1.6c-0.7-6.4-1.5-12.7-2.1-19.1c-0.1-1-0.2-2,0.2-3l-0.3-1.9c0.2-2.2-0.2-4.3-0.8-6.4
		c-0.5-1.8-0.8-3.6-0.7-5.6c0.1-2.7-0.8-5.3-1-8c-0.6-8.5-3.2-16.6-5.6-24.7c-0.5-1.7-0.8-3.4-1.1-5.1c-1.2-7.1-2.9-14.1-6.5-20.4
		c-1.7-2.9-3.3-5.9-5.2-8.7c-3.9-6.2-8.1-12.2-12-18.4c-5.1-8.2-9.8-16.9-16.6-23.9c-3-3.1-6.4-5.8-9.5-8.7c-3.2-3-6.6-5.8-10.3-8.3
		c-3.1-2-6.5-3.2-10.2-3.2c-1.5,0-2.9-0.7-4.3-1c-6.6-1.2-13.1-2.8-19.6-4.6c-0.8-0.2-1.6-0.5-2.4-0.9c-2.6-1.1-6-0.4-7.5,1.9
		c-2.9,4.6-5.7,9.3-7.1,14.7c-0.3,1.2-0.1,2.3-0.2,3.5"/>
	<path class="st0" d="M40.6,466.8"/>
	<path class="st0" d="M144.5,295c4.6-0.3,6.6-3.9,8.6-7.3c1.2-2-0.7-3.2-1.7-4.5c-1.2-1.7-4.8-1.8-6.6-0.6c-1.5,0.9-2.9,1.9-3.8,3.5
		c-1.8,3.2-0.6,6.3,3.2,8.9"/>
</g>
<path class="st0" d="M316.9,540.6"/>
<path class="st0" d="M291.3,557.8c2.9-0.6,46.4-4.2,49.2-5.1"/>
<path class="st0" d="M282.5,540.9c2.9-0.6,46.4-4.2,49.2-5.1"/>
<path class="st0" d="M274.2,525.8c6-2.1,39.8-3.7,41.7-4.3"/>
<path class="st0" d="M38.7,311.5c2.9-0.6,35.8,5.4,56.7,8.5"/>
<path class="st0" d="M38.7,342.3c2.9-0.6,24.7,3.7,45.6,6.8"/>
<path class="st0" d="M38.7,409c2.9-0.6,47.2,10.2,68.1,13.3"/>
<path class="st0" d="M40.6,437.5c2.9-0.6,16.6,5.1,37.5,8.2"/>
<path class="st0" d="M566.6,311.1c-2.9-0.6-24.7,3.7-45.6,6.8"/>
<path class="st0" d="M571.4,334.9c-2.9-0.6-4.7,0.4-25.7,3.5"/>
<path class="st0" d="M579.8,364.4c-2.9-0.6-47.2,10.2-68.1,13.3"/>
<path class="st0" d="M581.2,388c-2.9-0.6-16.6,5.1-37.5,8.2"/>
</svg>
