<?xml version="1.0" encoding="utf-8"?>
<!-- Generator: Adobe Illustrator 21.1.0, SVG Export Plug-In . SVG Version: 6.00 Build 0)  -->
<svg version="1.1" id="Calque_1" xmlns="http://www.w3.org/2000/svg" xmlns:xlink="http://www.w3.org/1999/xlink" x="0px" y="0px"
	 viewBox="0 0 623.6 737" style="enable-background:new 0 0 623.6 737;" xml:space="preserve">
<style type="text/css">
	.st0{fill:none;stroke:#000000;stroke-width:4;stroke-linecap:round;stroke-linejoin:round;stroke-miterlimit:10;}
</style>
<g>
	<path class="st0" d="M328.6,485.7c-6.1,4.4-12.9,7-20.2,8.3c-3.3,0.6-6.4,1.8-9.7,2.1c-3.2,0.3-6.5,1.1-9.8,1.6
		c-5.1,0.7-10.2,0.9-15.3,1.6c-6.1,0.8-12.1,1.8-18.3,2.1c-7.2,0.4-14.4,1.6-21.7,0.7c-2.1-0.3-4.3-0.8-6.3-1.5
		c-2.7-0.9-3.3-2.8-2.2-5.6c1.9-4.8,3-9.9,4.4-14.8c0.5-1.7,1.2-3.3,1.5-5.1c0.5-3.1,0.1-6-0.3-9c-0.3-2.1,0.4-4.6-0.3-6.8
		c-1.6-5.4-1.1-11.2-3.6-16.3c-0.6-1.2-1.1-2.2-2.4-3c-3.3-2.1-5.8-5.3-9.3-7.2c-6.1-3.4-12.5-5.2-19.5-4.1
		c-7.5,1.2-14,4.5-17.7,11.5c-3.3,6.3-6.2,12.9-5.9,20.4c0.1,5,0.1,10,1.2,14.9c1.2,4.9,0.5,9.8-0.3,14.6c-0.1,0.7-0.6,1.3-1,2
		c-0.9,1.7-0.6,5.3,0.5,6.6"/>
	<path class="st0" d="M423,176.5c1.4-6.8,3.5-13.3,9.3-17.7c5.1-3.9,10-8,16-10.5c3.3-1.3,6.8-1.4,10.2-1.7c2.3-0.2,4.6-0.6,6.8-0.6
		c2.5,0,5,0.8,7.5,1.3c7.3,1.5,12,6.5,16.4,12.1c1.9,2.4,3.8,4.7,4.5,7.6c0.9,3.6,0.9,7.3,0.2,10.9C493.2,183,492,188,491,193
		c-0.3,1.5-0.9,2.8-1.5,4.1c-1.3,2.8-2,5.8-2.9,8.8c-0.5,1.7,0.3,3.3,0.5,4.9c1,6.4,3.4,11.7,9.9,14.4c2,0.8,4.2,1.9,5.2,4.3
		c0.5,1.2,1.9,1.9,3.3,1.7c3.6-0.4,7.1,0.5,10.7,0.3c5-0.3,9.9-1.2,14.9-1.7c4.9-0.5,9.6-1.7,14.6-1.8c5.3-0.2,10.6-0.8,15.9-1.6
		c7.1-1.2,14.3-2.2,21.4-3.6c3.4-0.7,7,1.2,8.3,4.4c3.3,8.2,7,16.1,8.9,24.8c0.5,2.4,1.6,4.9,2.2,7.3c1.6,5.9,1.9,12,2.6,18
		c0.5,4.8,0.1,9.4,0.2,14.1c0.2,6-1,11.6-2.3,17.3c-1,4.3-1.9,8.6-2.9,12.9c-0.3,1.3-0.8,2.6-2,3.4c-0.9,0.6-1.7,1.1-2.9,0.3
		c-3.6-2.5-7.8-3.8-11.8-5.5c-4.4-1.8-8.8-3.4-13.2-5.2c-3.9-1.6-8.1-2.1-12.2-1.5c-2.8,0.4-5.5,1.9-8,3.3c-2.6,1.4-5.1,2.9-8,4.1
		c-3.6,1.4-6.5,4.7-7.6,8.8c-1.6,5.7-2.7,11.5-3.1,17.5c-0.2,3.6,0.2,7.4-0.8,11c-0.3,1.3,0.4,2.6,0.9,3.9c2.8,7.1,8.6,11,15.1,14.1
		c4.5,2.2,9,4.5,14.1,4.9c3.9,0.3,7.7,1.8,11.7,0.9c4.4-1,8.9-1,13.4-1.6s8.9-2.1,13.4-2.7c1.9-0.3,3.4,0,4.4,1.6
		c1.1,1.9,2,3.8,3.9,5.2c0.1,0.1,0.5,1.2,0.6,1.9c0.1,3.8,0.4,7.7-0.3,11.4c-1.1,5.8-1.2,11.7-1.9,17.5c-0.5,4.4-1,8.8-2.1,13.2
		c-0.7,2.8-0.6,5.7-1.3,8.5c-1.5,6.3-1.3,12.8-3.1,19c-1.5,4.8-1.3,9.9-2.2,14.9c-1.1,6.8-2.1,13.6-2.7,20.4
		c-0.2,1.6-2.3,3.1-3.6,2.4c-5.9-3.1-12.6-3.5-18.7-5.6c-4.4-1.5-8.5-3.8-12.9-5.6c-5-2-10.2-3.3-15.4-4.7c-3-0.8-6.3-0.4-9.5-0.9
		c-4.6-0.6-9.2-1.3-13.9-1.7c-3.1-0.3-6.3,0-9.5,0.2c-4.5,0.3-8.7,1.2-12.7,3.4c-3.4,1.9-5.7,4.5-6.7,8.5c-1.1,4.3-1,8.3,0.5,12.5
		c1.9,5.4,3.5,10.9,4.6,16.5c0.4,2,0.3,4.1,0,6.1c-0.4,3.3,0,6.7,0.1,10c0.1,4.9-1.6,9-4.8,12.7c-1.8,2.1-3,4.7-5.4,6.3
		c-1,0.7-1.9,1.2-3.2,1.5c-2.4,0.6-4.3,2.2-6.8,2.7c-3.8,0.7-7.4,2.6-11.4,2.1c-4.7-0.6-9.4-1.2-13.9-2.8c-0.6-0.2-1.2-0.5-1.9-0.6
		c-7-0.5-12-4.5-15.8-10c-3.4-4.9-5.5-10.5-7.1-16.3c-1.2-4.5-0.6-9.1-0.2-13.6c0.5-5.3,2.6-10.3,3.4-15.6c0.5-3.1,0.8-6.2,1.1-9.3
		c0.3-3.2-1.3-5.9-3.8-7.7c-4.9-3.5-10.3-5.8-16.5-5.9c-11.4-0.3-22.7,0.6-34.1,0.7c-8.2,0-16.3,1.9-24.4,3.2
		c-7.3,1.2-14.1,3.7-20.5,7.3c-0.3,0.2-0.7-0.1-1,0.3c-2.3-1-2.3-3.4-2.5-5.2c-1.2-7.1-3.1-14-4.7-20.9c-2.3-9.4-3.8-18.9-5-28.5
		c-0.9-7.2-1.8-14.4-3.7-21.5c-0.5-2.1-1.1-4.3-0.8-6.6c0.2-1.7-0.7-3.2-1-4.9c-0.8-4-0.4-7.8,1.8-11.2c1.1-1.6,1-3.7,2.8-5
		c0.8-0.6,5.7-2.2,6.6-2.6"/>
	<path class="st0" d="M423.3,177.2c1.4,7.3,2.9,14.5,3.1,21.9c0.1,3.6,0,7.3-0.2,11c-0.2,2.8,0.5,5.7-0.3,8.5s-0.6,6.3-3.6,8
		c-2.1,1.2-4.5,1.6-6.8,1.9c-4.2,0.7-8.4,0.6-12.6,0.7c-3.6,0.1-7.1-0.5-10.7,0c-3.5,0.4-7.1-0.1-10.7-0.4
		c-6.6-0.4-13.1-1.9-19.7-2.2c-6.3-0.2-12.7-0.3-19-1.1c-2.8-0.3-5.7-0.9-8.5-1.4c-2.7-0.5-5.3-1.3-8.1,0c-1.4,0.6-2.6-0.5-3.9-0.7
		c-4.2-0.6-8.4-1-12.4-2.2c-4.5-1.4-9.3-1.7-13.9-2.9c-3.3-0.8-6.6-0.9-10-1c-4.5-0.2-8.9-1.1-13.4-1.3c-4.7-0.3-9.4-1-14.1-0.3
		c-3.3,0.5-6.7-0.2-10-0.5c-5.5-0.4-11-1.6-16.6-0.5c-2,0.4-2.5,1.7-2.7,3.4c-0.3,2.5-0.5,5-0.9,7.6c-1,5.3-1.3,10.7-1.2,16.1
		c0.1,5.1,0.5,10.2,1,15.3c0.8,8.3-0.5,16.2-5.2,23.1c-2.2,3.1-5.1,5.7-8.9,7.5c-4.1,2-8.4,3.6-12.7,5c-4.6,1.4-9.5,1.6-14,0.1
		c-2.8-0.9-5.5-3.1-7.1-5.9c-0.6-1.1-1.3-2.1-2.2-2.9c-2.1-2-2.8-4.6-3.4-7.3c-0.1-0.5,0-1-0.5-1.5c-2.6-2.6-1.8-6.2-2.9-9.2
		c-1.1-3-1.9-6-2.1-9.2c-0.1-2.7-0.4-5.5-0.8-8.3c-0.7-5.1,1.9-9.7,2.3-14.6c0.3-3.7,1.5-7.8-1.9-10.9c-0.6-0.6-0.3-1.2-0.7-1.8
		c-1.4-2.3-2.3-2.7-5.2-2.7c-4-0.1-7.7,1.2-11.4,2.3c-4.3,1.3-8.7,1.8-12.9,3.1c-6.4,2-13.2,2-19.7,3.2c-5.6,1-11.2,1.7-16.8,2.4
		c-4.2,0.5-8.5,0.7-12.7,1.5c-1.9,0.4-3.8,0.5-5.6,1.2c-2.7,1.1-5.5,1-8.3,1.5c-2.7,0.4-4.2,3.2-4,5.9c0.3,3.8,2.8,6.8,3.5,10.5
		c1.6,7.9,3.9,15.6,6,23.4c1.2,4.5,2.7,9,3.5,13.6c0.6,3.5,1.1,7,1.9,10.5c0.6,2.7,1.3,5.6,1.3,8.3c0,4.9,2.4,9.7,0.7,14.6
		c-0.3,0.8-0.1,1.8,0,2.7c0.7,4.9-4.1,9.2-8,10.4c-1.9,0.5-3.6-0.3-5.1-1c-5.1-2.4-10.8-2.4-15.9-4.5c-2.2-0.9-4.2-2.1-6.6-2.5
		c-4.3-0.6-8.5,0-12.7,0.6c-6.7,1-13.1,2.8-19.3,5.7c-7.4,3.4-11.2,9-12.9,16.6c-1.1,4.7-0.6,9.4-0.8,14.1c-0.1,4,1.8,7.8,3.6,11.4
		c0.6,1.4,2.3,1.9,3.4,2.9c4.3,4.3,9.5,7.5,14.9,9.8c4,1.7,8.6,2.8,13.1,3.1c2.3,0.1,4.4,0.6,6.3,1.8c2.2,1.3,4.4,1.3,6.9,1
		c3-0.3,6-0.8,9-1.2c3.1-0.4,6.4-1,8.8-3.3c5.4-5.2,12-3,14.2,4.1c1.9,6.1,1.3,12.1,1.2,18.3c-0.1,4.2-0.7,8.4-0.6,12.7
		c0,3.6-1,7.1-1.3,10.7c-0.4,4.2-1.9,8.2-1.9,12.4c0.1,4.7-1,9.1-1.9,13.6c-1,4.9-2.7,9.7-4,14.6c-0.9,3.4,0,7-0.4,10.5
		c-0.2,1.9,1.6,2.5,3.1,2.9c5.4,1.5,11,2.2,16.6,3c6.7,0.9,13.3,2.6,20,2.7c7.3,0.1,14,3,21.2,3.6c3.8,0.3,7.6,0.8,11.4,1.1
		c5,0.3,9.9,0.7,14.9,0.6c1.2,0,2.2,0.6,3.4,0.5c1.1-0.1,2.3,0.1,3.2-0.7"/>
	<path class="st0" d="M325.4,224.7c0.2,1.9-0.2,3.9-1.3,5.3c-1.9,2.6-1.9,5.7-2.3,8.6c-0.4,3.6-0.9,7.3-2.1,10.7
		c-0.6,1.7,0,3.4-0.5,4.9c-1.6,4.4-0.9,9-1.4,13.4c-0.4,3.7-1.2,7.7-0.6,11.4c0.6,3.4,0.2,6.7,0.1,10c-0.1,6-1.2,12-1.1,18
		c0.1,5.5-0.9,11.1,0.1,16.6c0.2,1.1,0.5,2.2,1.7,2.7"/>
	<path class="st0" d="M318.2,326.7c0.2-0.6,0.8-0.9,1.3-0.7c4.5,1.2,8.8-0.9,13.1-1.3c0.9-0.1,2-0.4,2.9-0.3c4.4,0.2,8.6-0.9,12.9-1
		c4.7-0.1,9.5-0.4,14.1,0.1c6.6,0.6,12.9,2.1,18.8,5.6c3.3,1.9,6.7,3.4,9.2,6.5c4.1,5.1,6.3,10.4,5.3,17.3
		c-1.3,8.6-6,14.7-12.2,19.8c-3.5,2.9-8,4.6-12.6,5.7c-3.2,0.7-6.3,2-9.4,2.9c-3.5,1-7,1.8-10.5,1.4c-5-0.7-10.1,0-15.1-1.1
		c-4.1-0.9-8.3-0.6-12.4-0.8"/>
	<path class="st0" d="M368,382.7"/>
	<path class="st0" d="M351.9,384.4"/>
	<path class="st0" d="M360.2,382.2"/>
	<path class="st0" d="M332.7,385.4"/>
	<path class="st0" d="M501.9,228.1"/>
</g>
</svg>
