<?xml version="1.0" encoding="utf-8"?>
<!-- Generator: Adobe Illustrator 21.1.0, SVG Export Plug-In . SVG Version: 6.00 Build 0)  -->
<svg version="1.1" id="Calque_1" xmlns="http://www.w3.org/2000/svg" xmlns:xlink="http://www.w3.org/1999/xlink" x="0px" y="0px"
	 viewBox="0 0 623.6 737" style="enable-background:new 0 0 623.6 737;" xml:space="preserve">
<style type="text/css">
	.st0{fill:none;stroke:#000000;stroke-width:4;stroke-linecap:round;stroke-linejoin:round;stroke-miterlimit:10;}
</style>
<g>
	<path class="st0" d="M157.3,74.3c10.3,5.9,18.4,14.3,27.1,22.1c6.2,5.6,12.4,11.2,18.5,16.9c4.8,4.5,9.7,9,14.2,13.9
		c4.9,5.4,10.1,10.6,15.4,15.8c11,10.8,22.7,20.9,33.5,32c11.2,11.5,21.6,24,33.9,34.4c10.1,8.5,18.5,18.8,28.4,27.5
		c11.2,9.8,22.5,19.4,34,28.8c4.8,3.9,10.3,6.8,14.6,11.4c10,10.9,20.9,21.1,31.7,31c9.8,8.9,18.9,18.6,29.4,26.8
		c5.2,4.1,10.1,9.1,14.7,14c7.1,7.5,15.3,13.9,22.9,20.8c6.1,5.5,12.5,10.6,18.4,16.3c2.5,2.4,5.7,4,8.4,6.2c1.5,1.2,2,2.4,1.6,3.9
		c-0.5,2-2.3,2.5-4.1,2.1c-8.1-1.8-16.5-1.2-24.6-2.3c-2.6-0.4-5.4,0.5-8,0.5c-8.2,0-16.4,1-24.6,1.3c-4.5,0.2-9,1.6-13.5,2
		c-8.6,0.7-17.1,1.8-25.7,2.7c-4.3,0.5-8.2,2.4-12.5,3.1c-3.1,0.5-6.1,1.8-9.4,1.4c-1.6-0.2-2.1,1.5-3.5,1.8
		c-2.9,0.7-5.3,2.5-7.9,3.9c-4.1,2.1-4,6.4-4.6,10.3c-0.7,5,0,10,0.4,14.9c0.3,2.8,1.3,5.5,2.5,7.9c4.2,8.4,7.7,17.1,11.3,25.7
		c1.4,3.3,4,5.8,5.9,8.6c7.9,11.5,16.2,22.8,23.8,34.4c3.5,5.3,5.7,11.5,8.6,17.2c3.8,7.4,6.7,15.1,10.8,22.3
		c3.6,6.3,6.1,13.1,7.1,20.4c0.5,3.7,2,7.3,2.4,11.1c0.6,5.2-1.1,9.5-4.9,12.8c-5.2,4.5-11.5,7.4-17.4,10.5c-5.8,3-12.3,5-18.9,6.1
		c-5.7,0.9-11.1,3.9-17,3c-3.3-0.5-6.3,0.9-9.8,0c-5.2-1.3-8-4.7-11.1-8.5c-5.1-6.4-7.6-14-11-21.2c-3.2-6.9-6.8-13.6-10.8-20.1
		c-4.1-6.7-7.5-13.8-10.4-21.1c-3-7.5-6.2-14.8-9.3-22.2c-3.7-8.6-7.3-17.2-10.5-26c-2.3-6.3-5.5-12.2-7.8-18.4
		c-3.2-8.8-8.6-16.2-14.3-23.6c-1.1-1.4-2.1-2.8-2.8-4.5c-0.8-1.9-2-3.2-4.1-3.9c-2.9-1-3.1,1.3-4.2,2.8c-1.9,2.4-5.2,2.9-7.6,4.8
		c-2.6,2.1-5.3,4.1-7.6,6.6c-5,5.2-10.6,9.7-16,14.6c-3.7,3.4-7.1,6.9-9.9,10.9c-3.6,5-7.7,9.7-11.6,14.5
		c-5.7,7.1-11,14.5-15.9,22.2c-4,6.3-8.4,12.4-12.8,18.4c-2.6,3.5-6.2,5.7-10.4,7c-1.2,0.4-2.4,0.8-3.5,1.4
		c-4.1,2.3-5.4,1.9-6.2-2.8c-1-5.8-1.4-11.7-1.6-17.7c-0.2-3.9-0.7-7.9-1.5-11.8c-1-4.9-0.1-9.9-0.4-14.9c-0.7-11-2.6-21.9-2.8-32.9
		c-0.1-5.4,0.8-10.8,0.4-16.3c-0.3-4.5-0.9-9-1-13.5c-0.1-2.7,0.2-5.5,0.3-8.3c0.1-7.1-0.6-14.1-1.3-21.2c-0.5-4.9-0.2-10,0.3-14.9
		c0.6-6.4-0.6-12.7-0.4-19.1c0.3-10.4-1.1-20.6-2-30.9c-0.4-4.5-1-9-0.9-13.5c0-4-0.4-8.1-1-12.1c-1-6.6,0.6-13.2,0.1-19.8
		c-0.9-10.3-0.4-20.6-0.3-30.9c0.1-13-1-25.9-0.9-38.8c0-7-1.9-13.9-0.8-20.8c0.9-5.7,1-11.3,0.4-17c-0.7-6.4-1.1-12.9-1-19.4
		c0.1-5.7,0.2-11.4-0.5-17c-1.3-11.1-1.1-22.2-2.5-33.3c-1.2-9.2-1-18.7-1.4-28.1c-0.3-5.4,1.1-10.9-0.6-16.3
		c-0.5-1.6,0.2-3.9,1.4-5.5"/>
	<path class="st0" d="M165.8,32.6c5.6,4.5,263.9,239.5,269.8,243.6c7.5,5.2,13.9,11.6,20.9,17.3c7,5.7,14,11.4,21,17.1
		c8.8,7.2,17.8,14.1,26.5,21.4c4.5,3.7,8.3,8.4,13,12c10.2,7.8,15.6,19.3,23.1,29.2c2.8,3.7,4.8,7.8,5.6,12.4c0.1,0.7,0.5,1.6,0.8,2
		c2.9,4.4,2.7,9.4,3.3,14.3c0.3,2-0.5,3.9-0.8,5.9c-0.4,2.9-0.5,5.9-1.7,8.7"/>
	<path class="st0" d="M479.8,613.9"/>
	<path class="st0" d="M427.1,441.2c-1,2.5,0.1,5,0.8,7.3c2.7,9.6,6,19.2,10.5,28c2.9,5.6,6,11.1,8.8,16.8c3.8,7.8,7.8,15.7,10.2,24
		c2,7.2,4.2,14.4,6.7,21.4c3.7,10.5,6.7,21.1,10.2,31.6c1.6,4.7,1.7,9.7,2.8,14.6c1.4,6.4,1.4,13,2.7,19.4"/>
	<path class="st0" d="M261.4,518.6c2,8.6,10.1,28.5,14.5,36c2.2,3.7,3.2,7.9,4.6,11.9c2,5.4,5.1,10.4,6.8,15.9
		c2.1,6.7,5.8,12.8,8.3,19.4c1.7,4.6,4.7,8.7,7.3,12.9c3.7,6,6.1,12.6,10.1,18.4c7.6,11,15.7,21.5,25.6,30.6
		c3.2,2.9,6.5,5.8,9.8,8.6c2.6,2.3,5.4,4,9,4.2c1.6,0.1,3.2,1,4.9,1.3c5.1,1.1,10.3,1.6,15.6,1.5c2.7,0,5.5,0.6,8.3,0.7
		c7.8,0.3,14.6-2.4,21.1-5.8c5.1-2.6,10.5-4.2,15.7-6.4c7.4-3.1,14.7-6.3,21.5-10.5c2-1.2,4.3-2,6.2-3.2c6.6-4.2,12.7-9.2,18-14.9
		c2.3-2.4,3.5-5.6,3.9-9c0.3-3.1,6.4-22.9,7.2-26"/>
	<path class="st0" d="M107.3,67.3c0.1,5,19.9,326.2,20.5,331.2c0.5,4.1-0.3,8.3,0,12.5c0.8,9.9,0.4,19.9,1.5,29.8
		c0.5,4.3-0.3,8.6-0.1,12.8c0.2,3.5-0.2,7,0.8,10.4c1,3.2,0.7,6.5,0.8,9.7c0.2,5.2,1.4,10.4,1.1,15.6c-0.4,6.9-0.4,13.9-0.8,20.8
		c-0.3,5.2,0.7,10.4,0.9,15.6c0.2,6,0.3,12,1.2,18.1c0.9,5.9,0,12,0.2,18c0.3,8.5,2.9,16,9.2,22.3c8.2,8.2,18.3,13.8,28.7,18
		c7.6,3.1,16.2,5.3,24.8,3c4.9-1.3,9.3-4.2,12.5-8.3c2-2.5,4.1-4.9,6.3-7.2c3-3.2,4.8-7.3,7.4-10.7c3.6-4.7,7.4-9.3,10.5-14.4
		c3.4-5.6,7.6-10.6,10.8-16.4c2.9-5.2,13.6-25.1,17.9-29.6"/>
	<path class="st0" d="M165.8,32.6c-1.8-0.2-21.5,1.7-23,2.5c-4.5,2.5-9.4,3.8-13.9,6.2c-10.8,5.6-19,13.3-21.6,26"/>
	<path class="st0" d="M165.8,32.6"/>
	<path class="st0" d="M547.4,416.5c-4,12.6-16.6,17.3-25.6,18.7c-2.9,0.5-5.2,2.2-8,3.2c-5.3,1.8-10.6,1.5-16,1.2
		c-6.2-0.3-12.3,0.4-18.4,0.9c-5.9,0.5-11.8,0.5-17.7,0.8c-9.9,0.5-24.7,0.5-34.7-0.3"/>
	<path class="st0" d="M518,348.2"/>
</g>
</svg>
